{"glyphs":{"0":{"ha":1302,"x_min":8,"x_max":1119,"o":"m 217 0 q 186 12 198 0 q 174 43 174 24 q 186 73 174 61 q 217 87 198 87 q 247 73 235 87 q 260 43 260 61 q 247 12 260 24 q 217 0 235 0 l 217 0 m 304 0 q 273 12 285 0 q 260 43 260 24 q 273 73 260 61 q 304 87 285 87 q 334 73 321 87 q 347 43 347 61 q 334 12 347 24 q 304 0 321 0 l 304 0 m 391 0 q 359 12 372 0 q 347 43 347 24 q 359 73 347 61 q 391 87 372 87 q 420 73 408 87 q 434 43 434 61 q 420 12 434 24 q 391 0 408 0 l 391 0 m 477 0 q 446 12 458 0 q 434 43 434 24 q 446 73 434 61 q 477 87 458 87 q 507 73 495 87 q 521 43 521 61 q 507 12 521 24 q 477 0 495 0 l 477 0 m 564 0 q 533 12 545 0 q 521 43 521 24 q 533 73 521 61 q 564 87 545 87 q 594 73 582 87 q 608 43 608 61 q 594 12 608 24 q 564 0 582 0 l 564 0 m 651 0 q 620 12 632 0 q 608 43 608 24 q 620 73 608 61 q 651 87 632 87 q 681 73 669 87 q 694 43 694 61 q 681 12 694 24 q 651 0 669 0 l 651 0 m 738 0 q 707 12 719 0 q 694 43 694 24 q 707 73 694 61 q 738 87 719 87 q 768 73 755 87 q 781 43 781 61 q 768 12 781 24 q 738 0 755 0 l 738 0 m 825 0 q 793 12 806 0 q 781 43 781 24 q 793 73 781 61 q 825 87 806 87 q 854 73 842 87 q 868 43 868 61 q 854 12 868 24 q 825 0 842 0 l 825 0 m 911 0 q 880 12 892 0 q 868 43 868 24 q 880 73 868 61 q 911 87 892 87 q 941 73 929 87 q 955 43 955 61 q 941 12 955 24 q 911 0 929 0 l 911 0 m 130 87 q 99 99 111 87 q 87 130 87 111 q 99 160 87 148 q 130 174 111 174 q 160 160 148 174 q 174 130 174 148 q 160 99 174 111 q 130 87 148 87 l 130 87 m 217 87 q 186 99 198 87 q 174 130 174 111 q 186 160 174 148 q 217 174 198 174 q 247 160 235 174 q 260 130 260 148 q 247 99 260 111 q 217 87 235 87 l 217 87 m 304 87 q 273 99 285 87 q 260 130 260 111 q 273 160 260 148 q 304 174 285 174 q 334 160 321 174 q 347 130 347 148 q 334 99 347 111 q 304 87 321 87 l 304 87 m 391 87 q 359 99 372 87 q 347 130 347 111 q 359 160 347 148 q 391 174 372 174 q 420 160 408 174 q 434 130 434 148 q 420 99 434 111 q 391 87 408 87 l 391 87 m 477 87 q 446 99 458 87 q 434 130 434 111 q 446 160 434 148 q 477 174 458 174 q 507 160 495 174 q 521 130 521 148 q 507 99 521 111 q 477 87 495 87 l 477 87 m 564 87 q 533 99 545 87 q 521 130 521 111 q 533 160 521 148 q 564 174 545 174 q 594 160 582 174 q 608 130 608 148 q 594 99 608 111 q 564 87 582 87 l 564 87 m 651 87 q 620 99 632 87 q 608 130 608 111 q 620 160 608 148 q 651 174 632 174 q 681 160 669 174 q 694 130 694 148 q 681 99 694 111 q 651 87 669 87 l 651 87 m 738 87 q 707 99 719 87 q 694 130 694 111 q 707 160 694 148 q 738 174 719 174 q 768 160 755 174 q 781 130 781 148 q 768 99 781 111 q 738 87 755 87 l 738 87 m 825 87 q 793 99 806 87 q 781 130 781 111 q 793 160 781 148 q 825 174 806 174 q 854 160 842 174 q 868 130 868 148 q 854 99 868 111 q 825 87 842 87 l 825 87 m 911 87 q 880 99 892 87 q 868 130 868 111 q 880 160 868 148 q 911 174 892 174 q 941 160 929 174 q 955 130 955 148 q 941 99 955 111 q 911 87 929 87 l 911 87 m 998 87 q 967 99 979 87 q 955 130 955 111 q 967 160 955 148 q 998 174 979 174 q 1028 160 1016 174 q 1042 130 1042 148 q 1028 99 1042 111 q 998 87 1016 87 l 998 87 m 43 182 q 20 191 31 182 q 8 217 8 202 q 18 239 8 228 q 43 251 30 251 q 65 241 54 251 q 77 217 77 229 q 68 191 77 202 q 43 182 57 182 l 43 182 m 130 182 q 107 191 118 182 q 95 217 95 202 q 104 239 95 228 q 130 251 117 251 q 152 241 141 251 q 164 217 164 229 q 155 191 164 202 q 130 182 144 182 l 130 182 m 217 182 q 194 191 205 182 q 182 217 182 202 q 191 239 182 228 q 217 251 203 251 q 239 241 228 251 q 251 217 251 229 q 241 191 251 202 q 217 182 231 182 l 217 182 m 304 182 q 281 191 292 182 q 269 217 269 202 q 278 239 269 228 q 304 251 290 251 q 326 241 315 251 q 338 217 338 229 q 328 191 338 202 q 304 182 317 182 l 304 182 m 825 182 q 802 191 812 182 q 789 217 789 202 q 799 239 789 228 q 825 251 811 251 q 846 241 836 251 q 859 217 859 229 q 849 191 859 202 q 825 182 838 182 l 825 182 m 911 182 q 888 191 899 182 q 876 217 876 202 q 886 239 876 228 q 911 251 898 251 q 933 241 922 251 q 945 217 945 229 q 936 191 945 202 q 911 182 925 182 l 911 182 m 998 182 q 975 191 986 182 q 963 217 963 202 q 972 239 963 228 q 998 251 985 251 q 1020 241 1009 251 q 1032 217 1032 229 q 1023 191 1032 202 q 998 182 1012 182 l 998 182 m 1085 182 q 1062 191 1073 182 q 1050 217 1050 202 q 1059 239 1050 228 q 1085 251 1072 251 q 1107 241 1096 251 q 1119 217 1119 229 q 1109 191 1119 202 q 1085 182 1099 182 l 1085 182 m 43 269 q 20 278 31 269 q 8 304 8 289 q 18 326 8 315 q 43 338 30 338 q 65 328 54 338 q 77 304 77 316 q 68 278 77 289 q 43 269 57 269 l 43 269 m 130 269 q 107 278 118 269 q 95 304 95 289 q 104 326 95 315 q 130 338 117 338 q 152 328 141 338 q 164 304 164 316 q 155 278 164 289 q 130 269 144 269 l 130 269 m 217 269 q 194 278 205 269 q 182 304 182 289 q 191 326 182 315 q 217 338 203 338 q 239 328 228 338 q 251 304 251 316 q 241 278 251 289 q 217 269 231 269 l 217 269 m 911 269 q 888 278 899 269 q 876 304 876 289 q 886 326 876 315 q 911 338 898 338 q 933 328 922 338 q 945 304 945 316 q 936 278 945 289 q 911 269 925 269 l 911 269 m 998 269 q 975 278 986 269 q 963 304 963 289 q 972 326 963 315 q 998 338 985 338 q 1020 328 1009 338 q 1032 304 1032 316 q 1023 278 1032 289 q 998 269 1012 269 l 998 269 m 1085 269 q 1062 278 1073 269 q 1050 304 1050 289 q 1059 326 1050 315 q 1085 338 1072 338 q 1107 328 1096 338 q 1119 304 1119 316 q 1109 278 1119 289 q 1085 269 1099 269 l 1085 269 m 43 363 q 26 372 34 363 q 16 391 16 380 q 24 407 16 399 q 43 416 33 416 q 60 408 52 416 q 69 391 69 400 q 61 372 69 380 q 43 363 54 363 l 43 363 m 130 363 q 113 372 121 363 q 103 391 103 380 q 111 407 103 399 q 130 416 119 416 q 146 408 138 416 q 156 391 156 400 q 148 372 156 380 q 130 363 141 363 l 130 363 m 217 363 q 199 372 208 363 q 190 391 190 380 q 198 407 190 399 q 217 416 206 416 q 233 408 225 416 q 243 391 243 400 q 235 372 243 380 q 217 363 228 363 l 217 363 m 911 363 q 894 372 902 363 q 884 391 884 380 q 892 407 884 399 q 911 416 901 416 q 928 408 920 416 q 937 391 937 400 q 929 372 937 380 q 911 363 922 363 l 911 363 m 998 363 q 981 372 989 363 q 971 391 971 380 q 979 407 971 399 q 998 416 987 416 q 1015 408 1006 416 q 1024 391 1024 400 q 1016 372 1024 380 q 998 363 1009 363 l 998 363 m 1085 363 q 1067 372 1076 363 q 1058 391 1058 380 q 1066 407 1058 399 q 1085 416 1074 416 q 1101 408 1093 416 q 1111 391 1111 400 q 1103 372 1111 380 q 1085 363 1096 363 l 1085 363 m 43 450 q 26 458 34 450 q 16 477 16 467 q 24 494 16 486 q 43 503 33 503 q 60 495 52 503 q 69 477 69 487 q 61 458 69 467 q 43 450 54 450 l 43 450 m 130 450 q 113 458 121 450 q 103 477 103 467 q 111 494 103 486 q 130 503 119 503 q 146 495 138 503 q 156 477 156 487 q 148 458 156 467 q 130 450 141 450 l 130 450 m 217 450 q 199 458 208 450 q 190 477 190 467 q 198 494 190 486 q 217 503 206 503 q 233 495 225 503 q 243 477 243 487 q 235 458 243 467 q 217 450 228 450 l 217 450 m 911 450 q 894 458 902 450 q 884 477 884 467 q 892 494 884 486 q 911 503 901 503 q 928 495 920 503 q 937 477 937 487 q 929 458 937 467 q 911 450 922 450 l 911 450 m 998 450 q 981 458 989 450 q 971 477 971 467 q 979 494 971 486 q 998 503 987 503 q 1015 495 1006 503 q 1024 477 1024 487 q 1016 458 1024 467 q 998 450 1009 450 l 998 450 m 1085 450 q 1067 458 1076 450 q 1058 477 1058 467 q 1066 494 1058 486 q 1085 503 1074 503 q 1101 495 1093 503 q 1111 477 1111 487 q 1103 458 1111 467 q 1085 450 1096 450 l 1085 450 m 43 529 q 20 538 31 529 q 8 564 8 549 q 18 586 8 575 q 43 598 30 598 q 65 589 54 598 q 77 564 77 576 q 68 538 77 549 q 43 529 57 529 l 43 529 m 130 529 q 107 538 118 529 q 95 564 95 549 q 104 586 95 575 q 130 598 117 598 q 152 589 141 598 q 164 564 164 576 q 155 538 164 549 q 130 529 144 529 l 130 529 m 217 529 q 194 538 205 529 q 182 564 182 549 q 191 586 182 575 q 217 598 203 598 q 239 589 228 598 q 251 564 251 576 q 241 538 251 549 q 217 529 231 529 l 217 529 m 911 529 q 888 538 899 529 q 876 564 876 549 q 886 586 876 575 q 911 598 898 598 q 933 589 922 598 q 945 564 945 576 q 936 538 945 549 q 911 529 925 529 l 911 529 m 998 529 q 975 538 986 529 q 963 564 963 549 q 972 586 963 575 q 998 598 985 598 q 1020 589 1009 598 q 1032 564 1032 576 q 1023 538 1032 549 q 998 529 1012 529 l 998 529 m 1085 529 q 1062 538 1073 529 q 1050 564 1050 549 q 1059 586 1050 575 q 1085 598 1072 598 q 1107 589 1096 598 q 1119 564 1119 576 q 1109 538 1119 549 q 1085 529 1099 529 l 1085 529 m 43 616 q 20 625 31 616 q 8 651 8 636 q 18 673 8 662 q 43 685 30 685 q 65 675 54 685 q 77 651 77 663 q 68 625 77 636 q 43 616 57 616 l 43 616 m 130 616 q 107 625 118 616 q 95 651 95 636 q 104 673 95 662 q 130 685 117 685 q 152 675 141 685 q 164 651 164 663 q 155 625 164 636 q 130 616 144 616 l 130 616 m 217 616 q 194 625 205 616 q 182 651 182 636 q 191 673 182 662 q 217 685 203 685 q 239 675 228 685 q 251 651 251 663 q 241 625 251 636 q 217 616 231 616 l 217 616 m 304 616 q 281 625 292 616 q 269 651 269 636 q 278 673 269 662 q 304 685 290 685 q 326 675 315 685 q 338 651 338 663 q 328 625 338 636 q 304 616 317 616 l 304 616 m 825 616 q 802 625 812 616 q 789 651 789 636 q 799 673 789 662 q 825 685 811 685 q 846 675 836 685 q 859 651 859 663 q 849 625 859 636 q 825 616 838 616 l 825 616 m 911 616 q 888 625 899 616 q 876 651 876 636 q 886 673 876 662 q 911 685 898 685 q 933 675 922 685 q 945 651 945 663 q 936 625 945 636 q 911 616 925 616 l 911 616 m 998 616 q 975 625 986 616 q 963 651 963 636 q 972 673 963 662 q 998 685 985 685 q 1020 675 1009 685 q 1032 651 1032 663 q 1023 625 1032 636 q 998 616 1012 616 l 998 616 m 1085 616 q 1062 625 1073 616 q 1050 651 1050 636 q 1059 673 1050 662 q 1085 685 1072 685 q 1107 675 1096 685 q 1119 651 1119 663 q 1109 625 1119 636 q 1085 616 1099 616 l 1085 616 m 130 694 q 99 707 111 694 q 87 738 87 719 q 99 768 87 755 q 130 781 111 781 q 160 768 148 781 q 174 738 174 755 q 160 707 174 719 q 130 694 148 694 l 130 694 m 217 694 q 186 707 198 694 q 174 738 174 719 q 186 768 174 755 q 217 781 198 781 q 247 768 235 781 q 260 738 260 755 q 247 707 260 719 q 217 694 235 694 l 217 694 m 304 694 q 273 707 285 694 q 260 738 260 719 q 273 768 260 755 q 304 781 285 781 q 334 768 321 781 q 347 738 347 755 q 334 707 347 719 q 304 694 321 694 l 304 694 m 391 694 q 359 707 372 694 q 347 738 347 719 q 359 768 347 755 q 391 781 372 781 q 420 768 408 781 q 434 738 434 755 q 420 707 434 719 q 391 694 408 694 l 391 694 m 477 694 q 446 707 458 694 q 434 738 434 719 q 446 768 434 755 q 477 781 458 781 q 507 768 495 781 q 521 738 521 755 q 507 707 521 719 q 477 694 495 694 l 477 694 m 564 694 q 533 707 545 694 q 521 738 521 719 q 533 768 521 755 q 564 781 545 781 q 594 768 582 781 q 608 738 608 755 q 594 707 608 719 q 564 694 582 694 l 564 694 m 651 694 q 620 707 632 694 q 608 738 608 719 q 620 768 608 755 q 651 781 632 781 q 681 768 669 781 q 694 738 694 755 q 681 707 694 719 q 651 694 669 694 l 651 694 m 738 694 q 707 707 719 694 q 694 738 694 719 q 707 768 694 755 q 738 781 719 781 q 768 768 755 781 q 781 738 781 755 q 768 707 781 719 q 738 694 755 694 l 738 694 m 825 694 q 793 707 806 694 q 781 738 781 719 q 793 768 781 755 q 825 781 806 781 q 854 768 842 781 q 868 738 868 755 q 854 707 868 719 q 825 694 842 694 l 825 694 m 911 694 q 880 707 892 694 q 868 738 868 719 q 880 768 868 755 q 911 781 892 781 q 941 768 929 781 q 955 738 955 755 q 941 707 955 719 q 911 694 929 694 l 911 694 m 998 694 q 967 707 979 694 q 955 738 955 719 q 967 768 955 755 q 998 781 979 781 q 1028 768 1016 781 q 1042 738 1042 755 q 1028 707 1042 719 q 998 694 1016 694 l 998 694 m 217 781 q 186 793 198 781 q 174 825 174 806 q 186 854 174 842 q 217 868 198 868 q 247 854 235 868 q 260 825 260 842 q 247 793 260 806 q 217 781 235 781 l 217 781 m 304 781 q 273 793 285 781 q 260 825 260 806 q 273 854 260 842 q 304 868 285 868 q 334 854 321 868 q 347 825 347 842 q 334 793 347 806 q 304 781 321 781 l 304 781 m 391 781 q 359 793 372 781 q 347 825 347 806 q 359 854 347 842 q 391 868 372 868 q 420 854 408 868 q 434 825 434 842 q 420 793 434 806 q 391 781 408 781 l 391 781 m 477 781 q 446 793 458 781 q 434 825 434 806 q 446 854 434 842 q 477 868 458 868 q 507 854 495 868 q 521 825 521 842 q 507 793 521 806 q 477 781 495 781 l 477 781 m 564 781 q 533 793 545 781 q 521 825 521 806 q 533 854 521 842 q 564 868 545 868 q 594 854 582 868 q 608 825 608 842 q 594 793 608 806 q 564 781 582 781 l 564 781 m 651 781 q 620 793 632 781 q 608 825 608 806 q 620 854 608 842 q 651 868 632 868 q 681 854 669 868 q 694 825 694 842 q 681 793 694 806 q 651 781 669 781 l 651 781 m 738 781 q 707 793 719 781 q 694 825 694 806 q 707 854 694 842 q 738 868 719 868 q 768 854 755 868 q 781 825 781 842 q 768 793 781 806 q 738 781 755 781 l 738 781 m 825 781 q 793 793 806 781 q 781 825 781 806 q 793 854 781 842 q 825 868 806 868 q 854 854 842 868 q 868 825 868 842 q 854 793 868 806 q 825 781 842 781 l 825 781 m 911 781 q 880 793 892 781 q 868 825 868 806 q 880 854 868 842 q 911 868 892 868 q 941 854 929 868 q 955 825 955 842 q 941 793 955 806 q 911 781 929 781 l 911 781 z "},"1":{"ha":694,"x_min":0,"x_max":521,"o":"m 304 0 q 273 12 285 0 q 260 43 260 24 q 273 73 260 61 q 304 87 285 87 q 334 73 321 87 q 347 43 347 61 q 334 12 347 24 q 304 0 321 0 l 304 0 m 391 0 q 359 12 372 0 q 347 43 347 24 q 359 73 347 61 q 391 87 372 87 q 420 73 408 87 q 434 43 434 61 q 420 12 434 24 q 391 0 408 0 l 391 0 m 477 0 q 446 12 458 0 q 434 43 434 24 q 446 73 434 61 q 477 87 458 87 q 507 73 495 87 q 521 43 521 61 q 507 12 521 24 q 477 0 495 0 l 477 0 m 304 87 q 273 99 285 87 q 260 130 260 111 q 273 160 260 148 q 304 174 285 174 q 334 160 321 174 q 347 130 347 148 q 334 99 347 111 q 304 87 321 87 l 304 87 m 391 87 q 359 99 372 87 q 347 130 347 111 q 359 160 347 148 q 391 174 372 174 q 420 160 408 174 q 434 130 434 148 q 420 99 434 111 q 391 87 408 87 l 391 87 m 477 87 q 446 99 458 87 q 434 130 434 111 q 446 160 434 148 q 477 174 458 174 q 507 160 495 174 q 521 130 521 148 q 507 99 521 111 q 477 87 495 87 l 477 87 m 304 182 q 281 191 292 182 q 269 217 269 202 q 278 239 269 228 q 304 251 290 251 q 326 241 315 251 q 338 217 338 229 q 328 191 338 202 q 304 182 317 182 l 304 182 m 391 182 q 368 191 378 182 q 355 217 355 202 q 365 239 355 228 q 391 251 377 251 q 412 241 401 251 q 425 217 425 229 q 415 191 425 202 q 391 182 404 182 l 391 182 m 477 182 q 454 191 465 182 q 442 217 442 202 q 452 239 442 228 q 477 251 464 251 q 499 241 488 251 q 511 217 511 229 q 502 191 511 202 q 477 182 491 182 l 477 182 m 304 269 q 281 278 292 269 q 269 304 269 289 q 278 326 269 315 q 304 338 290 338 q 326 328 315 338 q 338 304 338 316 q 328 278 338 289 q 304 269 317 269 l 304 269 m 391 269 q 368 278 378 269 q 355 304 355 289 q 365 326 355 315 q 391 338 377 338 q 412 328 401 338 q 425 304 425 316 q 415 278 425 289 q 391 269 404 269 l 391 269 m 477 269 q 454 278 465 269 q 442 304 442 289 q 452 326 442 315 q 477 338 464 338 q 499 328 488 338 q 511 304 511 316 q 502 278 511 289 q 477 269 491 269 l 477 269 m 304 363 q 286 372 294 363 q 277 391 277 380 q 285 407 277 399 q 304 416 293 416 q 320 408 312 416 q 330 391 330 400 q 321 372 330 380 q 304 363 315 363 l 304 363 m 391 363 q 373 372 381 363 q 363 391 363 380 q 372 407 363 399 q 391 416 380 416 q 407 408 399 416 q 416 391 416 400 q 408 372 416 380 q 391 363 401 363 l 391 363 m 477 363 q 460 372 468 363 q 450 391 450 380 q 458 407 450 399 q 477 416 467 416 q 494 408 486 416 q 503 391 503 400 q 495 372 503 380 q 477 363 488 363 l 477 363 m 304 450 q 286 458 294 450 q 277 477 277 467 q 285 494 277 486 q 304 503 293 503 q 320 495 312 503 q 330 477 330 487 q 321 458 330 467 q 304 450 315 450 l 304 450 m 391 450 q 373 458 381 450 q 363 477 363 467 q 372 494 363 486 q 391 503 380 503 q 407 495 399 503 q 416 477 416 487 q 408 458 416 467 q 391 450 401 450 l 391 450 m 477 450 q 460 458 468 450 q 450 477 450 467 q 458 494 450 486 q 477 503 467 503 q 494 495 486 503 q 503 477 503 487 q 495 458 503 467 q 477 450 488 450 l 477 450 m 304 529 q 281 538 292 529 q 269 564 269 549 q 278 586 269 575 q 304 598 290 598 q 326 589 315 598 q 338 564 338 576 q 328 538 338 549 q 304 529 317 529 l 304 529 m 391 529 q 368 538 378 529 q 355 564 355 549 q 365 586 355 575 q 391 598 377 598 q 412 589 401 598 q 425 564 425 576 q 415 538 425 549 q 391 529 404 529 l 391 529 m 477 529 q 454 538 465 529 q 442 564 442 549 q 452 586 442 575 q 477 598 464 598 q 499 589 488 598 q 511 564 511 576 q 502 538 511 549 q 477 529 491 529 l 477 529 m 304 616 q 281 625 292 616 q 269 651 269 636 q 278 673 269 662 q 304 685 290 685 q 326 675 315 685 q 338 651 338 663 q 328 625 338 636 q 304 616 317 616 l 304 616 m 391 616 q 368 625 378 616 q 355 651 355 636 q 365 673 355 662 q 391 685 377 685 q 412 675 401 685 q 425 651 425 663 q 415 625 425 636 q 391 616 404 616 l 391 616 m 477 616 q 454 625 465 616 q 442 651 442 636 q 452 673 442 662 q 477 685 464 685 q 499 675 488 685 q 511 651 511 663 q 502 625 511 636 q 477 616 491 616 l 477 616 m 43 694 q 12 707 24 694 q 0 738 0 719 q 12 768 0 755 q 43 781 24 781 q 73 768 61 781 q 87 738 87 755 q 73 707 87 719 q 43 694 61 694 l 43 694 m 130 694 q 99 707 111 694 q 87 738 87 719 q 99 768 87 755 q 130 781 111 781 q 160 768 148 781 q 174 738 174 755 q 160 707 174 719 q 130 694 148 694 l 130 694 m 217 694 q 186 707 198 694 q 174 738 174 719 q 186 768 174 755 q 217 781 198 781 q 247 768 235 781 q 260 738 260 755 q 247 707 260 719 q 217 694 235 694 l 217 694 m 304 694 q 273 707 285 694 q 260 738 260 719 q 273 768 260 755 q 304 781 285 781 q 334 768 321 781 q 347 738 347 755 q 334 707 347 719 q 304 694 321 694 l 304 694 m 391 694 q 359 707 372 694 q 347 738 347 719 q 359 768 347 755 q 391 781 372 781 q 420 768 408 781 q 434 738 434 755 q 420 707 434 719 q 391 694 408 694 l 391 694 m 477 694 q 446 707 458 694 q 434 738 434 719 q 446 768 434 755 q 477 781 458 781 q 507 768 495 781 q 521 738 521 755 q 507 707 521 719 q 477 694 495 694 l 477 694 m 130 781 q 99 793 111 781 q 87 825 87 806 q 99 854 87 842 q 130 868 111 868 q 160 854 148 868 q 174 825 174 842 q 160 793 174 806 q 130 781 148 781 l 130 781 m 217 781 q 186 793 198 781 q 174 825 174 806 q 186 854 174 842 q 217 868 198 868 q 247 854 235 868 q 260 825 260 842 q 247 793 260 806 q 217 781 235 781 l 217 781 m 304 781 q 273 793 285 781 q 260 825 260 806 q 273 854 260 842 q 304 868 285 868 q 334 854 321 868 q 347 825 347 842 q 334 793 347 806 q 304 781 321 781 l 304 781 m 391 781 q 359 793 372 781 q 347 825 347 806 q 359 854 347 842 q 391 868 372 868 q 420 854 408 868 q 434 825 434 842 q 420 793 434 806 q 391 781 408 781 l 391 781 m 477 781 q 446 793 458 781 q 434 825 434 806 q 446 854 434 842 q 477 868 458 868 q 507 854 495 868 q 521 825 521 842 q 507 793 521 806 q 477 781 495 781 l 477 781 z "},"2":{"ha":1302,"x_min":0,"x_max":1128,"o":"m 43 0 q 12 12 24 0 q 0 43 0 24 q 12 73 0 61 q 43 87 24 87 q 73 73 61 87 q 87 43 87 61 q 73 12 87 24 q 43 0 61 0 l 43 0 m 130 0 q 99 12 111 0 q 87 43 87 24 q 99 73 87 61 q 130 87 111 87 q 160 73 148 87 q 174 43 174 61 q 160 12 174 24 q 130 0 148 0 l 130 0 m 217 0 q 186 12 198 0 q 174 43 174 24 q 186 73 174 61 q 217 87 198 87 q 247 73 235 87 q 260 43 260 61 q 247 12 260 24 q 217 0 235 0 l 217 0 m 304 0 q 273 12 285 0 q 260 43 260 24 q 273 73 260 61 q 304 87 285 87 q 334 73 321 87 q 347 43 347 61 q 334 12 347 24 q 304 0 321 0 l 304 0 m 391 0 q 359 12 372 0 q 347 43 347 24 q 359 73 347 61 q 391 87 372 87 q 420 73 408 87 q 434 43 434 61 q 420 12 434 24 q 391 0 408 0 l 391 0 m 477 0 q 446 12 458 0 q 434 43 434 24 q 446 73 434 61 q 477 87 458 87 q 507 73 495 87 q 521 43 521 61 q 507 12 521 24 q 477 0 495 0 l 477 0 m 564 0 q 533 12 545 0 q 521 43 521 24 q 533 73 521 61 q 564 87 545 87 q 594 73 582 87 q 608 43 608 61 q 594 12 608 24 q 564 0 582 0 l 564 0 m 651 0 q 620 12 632 0 q 608 43 608 24 q 620 73 608 61 q 651 87 632 87 q 681 73 669 87 q 694 43 694 61 q 681 12 694 24 q 651 0 669 0 l 651 0 m 738 0 q 707 12 719 0 q 694 43 694 24 q 707 73 694 61 q 738 87 719 87 q 768 73 755 87 q 781 43 781 61 q 768 12 781 24 q 738 0 755 0 l 738 0 m 825 0 q 793 12 806 0 q 781 43 781 24 q 793 73 781 61 q 825 87 806 87 q 854 73 842 87 q 868 43 868 61 q 854 12 868 24 q 825 0 842 0 l 825 0 m 911 0 q 880 12 892 0 q 868 43 868 24 q 880 73 868 61 q 911 87 892 87 q 941 73 929 87 q 955 43 955 61 q 941 12 955 24 q 911 0 929 0 l 911 0 m 998 0 q 967 12 979 0 q 955 43 955 24 q 967 73 955 61 q 998 87 979 87 q 1028 73 1016 87 q 1042 43 1042 61 q 1028 12 1042 24 q 998 0 1016 0 l 998 0 m 1085 0 q 1054 12 1066 0 q 1042 43 1042 24 q 1054 73 1042 61 q 1085 87 1066 87 q 1115 73 1103 87 q 1128 43 1128 61 q 1115 12 1128 24 q 1085 0 1103 0 l 1085 0 m 43 87 q 12 99 24 87 q 0 130 0 111 q 12 160 0 148 q 43 174 24 174 q 73 160 61 174 q 87 130 87 148 q 73 99 87 111 q 43 87 61 87 l 43 87 m 130 87 q 99 99 111 87 q 87 130 87 111 q 99 160 87 148 q 130 174 111 174 q 160 160 148 174 q 174 130 174 148 q 160 99 174 111 q 130 87 148 87 l 130 87 m 217 87 q 186 99 198 87 q 174 130 174 111 q 186 160 174 148 q 217 174 198 174 q 247 160 235 174 q 260 130 260 148 q 247 99 260 111 q 217 87 235 87 l 217 87 m 304 87 q 273 99 285 87 q 260 130 260 111 q 273 160 260 148 q 304 174 285 174 q 334 160 321 174 q 347 130 347 148 q 334 99 347 111 q 304 87 321 87 l 304 87 m 391 87 q 359 99 372 87 q 347 130 347 111 q 359 160 347 148 q 391 174 372 174 q 420 160 408 174 q 434 130 434 148 q 420 99 434 111 q 391 87 408 87 l 391 87 m 477 87 q 446 99 458 87 q 434 130 434 111 q 446 160 434 148 q 477 174 458 174 q 507 160 495 174 q 521 130 521 148 q 507 99 521 111 q 477 87 495 87 l 477 87 m 564 87 q 533 99 545 87 q 521 130 521 111 q 533 160 521 148 q 564 174 545 174 q 594 160 582 174 q 608 130 608 148 q 594 99 608 111 q 564 87 582 87 l 564 87 m 651 87 q 620 99 632 87 q 608 130 608 111 q 620 160 608 148 q 651 174 632 174 q 681 160 669 174 q 694 130 694 148 q 681 99 694 111 q 651 87 669 87 l 651 87 m 738 87 q 707 99 719 87 q 694 130 694 111 q 707 160 694 148 q 738 174 719 174 q 768 160 755 174 q 781 130 781 148 q 768 99 781 111 q 738 87 755 87 l 738 87 m 825 87 q 793 99 806 87 q 781 130 781 111 q 793 160 781 148 q 825 174 806 174 q 854 160 842 174 q 868 130 868 148 q 854 99 868 111 q 825 87 842 87 l 825 87 m 911 87 q 880 99 892 87 q 868 130 868 111 q 880 160 868 148 q 911 174 892 174 q 941 160 929 174 q 955 130 955 148 q 941 99 955 111 q 911 87 929 87 l 911 87 m 998 87 q 967 99 979 87 q 955 130 955 111 q 967 160 955 148 q 998 174 979 174 q 1028 160 1016 174 q 1042 130 1042 148 q 1028 99 1042 111 q 998 87 1016 87 l 998 87 m 1085 87 q 1054 99 1066 87 q 1042 130 1042 111 q 1054 160 1042 148 q 1085 174 1066 174 q 1115 160 1103 174 q 1128 130 1128 148 q 1115 99 1128 111 q 1085 87 1103 87 l 1085 87 m 43 182 q 20 191 31 182 q 8 217 8 202 q 18 239 8 228 q 43 251 30 251 q 65 241 54 251 q 77 217 77 229 q 68 191 77 202 q 43 182 57 182 l 43 182 m 130 182 q 107 191 118 182 q 95 217 95 202 q 104 239 95 228 q 130 251 117 251 q 152 241 141 251 q 164 217 164 229 q 155 191 164 202 q 130 182 144 182 l 130 182 m 217 182 q 194 191 205 182 q 182 217 182 202 q 191 239 182 228 q 217 251 203 251 q 239 241 228 251 q 251 217 251 229 q 241 191 251 202 q 217 182 231 182 l 217 182 m 43 269 q 20 278 31 269 q 8 304 8 289 q 18 326 8 315 q 43 338 30 338 q 65 328 54 338 q 77 304 77 316 q 68 278 77 289 q 43 269 57 269 l 43 269 m 130 269 q 107 278 118 269 q 95 304 95 289 q 104 326 95 315 q 130 338 117 338 q 152 328 141 338 q 164 304 164 316 q 155 278 164 289 q 130 269 144 269 l 130 269 m 217 269 q 194 278 205 269 q 182 304 182 289 q 191 326 182 315 q 217 338 203 338 q 239 328 228 338 q 251 304 251 316 q 241 278 251 289 q 217 269 231 269 l 217 269 m 304 269 q 281 278 292 269 q 269 304 269 289 q 278 326 269 315 q 304 338 290 338 q 326 328 315 338 q 338 304 338 316 q 328 278 338 289 q 304 269 317 269 l 304 269 m 130 363 q 113 372 121 363 q 103 391 103 380 q 111 407 103 399 q 130 416 119 416 q 146 408 138 416 q 156 391 156 400 q 148 372 156 380 q 130 363 141 363 l 130 363 m 217 363 q 199 372 208 363 q 190 391 190 380 q 198 407 190 399 q 217 416 206 416 q 233 408 225 416 q 243 391 243 400 q 235 372 243 380 q 217 363 228 363 l 217 363 m 304 363 q 286 372 294 363 q 277 391 277 380 q 285 407 277 399 q 304 416 293 416 q 320 408 312 416 q 330 391 330 400 q 321 372 330 380 q 304 363 315 363 l 304 363 m 391 363 q 373 372 381 363 q 363 391 363 380 q 372 407 363 399 q 391 416 380 416 q 407 408 399 416 q 416 391 416 400 q 408 372 416 380 q 391 363 401 363 l 391 363 m 477 363 q 460 372 468 363 q 450 391 450 380 q 458 407 450 399 q 477 416 467 416 q 494 408 486 416 q 503 391 503 400 q 495 372 503 380 q 477 363 488 363 l 477 363 m 564 363 q 547 372 555 363 q 537 391 537 380 q 545 407 537 399 q 564 416 553 416 q 581 408 572 416 q 590 391 590 400 q 582 372 590 380 q 564 363 575 363 l 564 363 m 651 363 q 633 372 642 363 q 624 391 624 380 q 632 407 624 399 q 651 416 640 416 q 667 408 659 416 q 677 391 677 400 q 669 372 677 380 q 651 363 662 363 l 651 363 m 738 363 q 720 372 728 363 q 711 391 711 380 q 719 407 711 399 q 738 416 727 416 q 754 408 746 416 q 764 391 764 400 q 755 372 764 380 q 738 363 749 363 l 738 363 m 825 363 q 807 372 815 363 q 798 391 798 380 q 806 407 798 399 q 825 416 814 416 q 841 408 833 416 q 850 391 850 400 q 842 372 850 380 q 825 363 836 363 l 825 363 m 911 363 q 894 372 902 363 q 884 391 884 380 q 892 407 884 399 q 911 416 901 416 q 928 408 920 416 q 937 391 937 400 q 929 372 937 380 q 911 363 922 363 l 911 363 m 217 450 q 199 458 208 450 q 190 477 190 467 q 198 494 190 486 q 217 503 206 503 q 233 495 225 503 q 243 477 243 487 q 235 458 243 467 q 217 450 228 450 l 217 450 m 304 450 q 286 458 294 450 q 277 477 277 467 q 285 494 277 486 q 304 503 293 503 q 320 495 312 503 q 330 477 330 487 q 321 458 330 467 q 304 450 315 450 l 304 450 m 391 450 q 373 458 381 450 q 363 477 363 467 q 372 494 363 486 q 391 503 380 503 q 407 495 399 503 q 416 477 416 487 q 408 458 416 467 q 391 450 401 450 l 391 450 m 477 450 q 460 458 468 450 q 450 477 450 467 q 458 494 450 486 q 477 503 467 503 q 494 495 486 503 q 503 477 503 487 q 495 458 503 467 q 477 450 488 450 l 477 450 m 564 450 q 547 458 555 450 q 537 477 537 467 q 545 494 537 486 q 564 503 553 503 q 581 495 572 503 q 590 477 590 487 q 582 458 590 467 q 564 450 575 450 l 564 450 m 651 450 q 633 458 642 450 q 624 477 624 467 q 632 494 624 486 q 651 503 640 503 q 667 495 659 503 q 677 477 677 487 q 669 458 677 467 q 651 450 662 450 l 651 450 m 738 450 q 720 458 728 450 q 711 477 711 467 q 719 494 711 486 q 738 503 727 503 q 754 495 746 503 q 764 477 764 487 q 755 458 764 467 q 738 450 749 450 l 738 450 m 825 450 q 807 458 815 450 q 798 477 798 467 q 806 494 798 486 q 825 503 814 503 q 841 495 833 503 q 850 477 850 487 q 842 458 850 467 q 825 450 836 450 l 825 450 m 911 450 q 894 458 902 450 q 884 477 884 467 q 892 494 884 486 q 911 503 901 503 q 928 495 920 503 q 937 477 937 487 q 929 458 937 467 q 911 450 922 450 l 911 450 m 998 450 q 981 458 989 450 q 971 477 971 467 q 979 494 971 486 q 998 503 987 503 q 1015 495 1006 503 q 1024 477 1024 487 q 1016 458 1024 467 q 998 450 1009 450 l 998 450 m 911 529 q 888 538 899 529 q 876 564 876 549 q 886 586 876 575 q 911 598 898 598 q 933 589 922 598 q 945 564 945 576 q 936 538 945 549 q 911 529 925 529 l 911 529 m 998 529 q 975 538 986 529 q 963 564 963 549 q 972 586 963 575 q 998 598 985 598 q 1020 589 1009 598 q 1032 564 1032 576 q 1023 538 1032 549 q 998 529 1012 529 l 998 529 m 1085 529 q 1062 538 1073 529 q 1050 564 1050 549 q 1059 586 1050 575 q 1085 598 1072 598 q 1107 589 1096 598 q 1119 564 1119 576 q 1109 538 1119 549 q 1085 529 1099 529 l 1085 529 m 825 616 q 802 625 812 616 q 789 651 789 636 q 799 673 789 662 q 825 685 811 685 q 846 675 836 685 q 859 651 859 663 q 849 625 859 636 q 825 616 838 616 l 825 616 m 911 616 q 888 625 899 616 q 876 651 876 636 q 886 673 876 662 q 911 685 898 685 q 933 675 922 685 q 945 651 945 663 q 936 625 945 636 q 911 616 925 616 l 911 616 m 998 616 q 975 625 986 616 q 963 651 963 636 q 972 673 963 662 q 998 685 985 685 q 1020 675 1009 685 q 1032 651 1032 663 q 1023 625 1032 636 q 998 616 1012 616 l 998 616 m 1085 616 q 1062 625 1073 616 q 1050 651 1050 636 q 1059 673 1050 662 q 1085 685 1072 685 q 1107 675 1096 685 q 1119 651 1119 663 q 1109 625 1119 636 q 1085 616 1099 616 l 1085 616 m 43 694 q 12 707 24 694 q 0 738 0 719 q 12 768 0 755 q 43 781 24 781 q 73 768 61 781 q 87 738 87 755 q 73 707 87 719 q 43 694 61 694 l 43 694 m 130 694 q 99 707 111 694 q 87 738 87 719 q 99 768 87 755 q 130 781 111 781 q 160 768 148 781 q 174 738 174 755 q 160 707 174 719 q 130 694 148 694 l 130 694 m 217 694 q 186 707 198 694 q 174 738 174 719 q 186 768 174 755 q 217 781 198 781 q 247 768 235 781 q 260 738 260 755 q 247 707 260 719 q 217 694 235 694 l 217 694 m 304 694 q 273 707 285 694 q 260 738 260 719 q 273 768 260 755 q 304 781 285 781 q 334 768 321 781 q 347 738 347 755 q 334 707 347 719 q 304 694 321 694 l 304 694 m 391 694 q 359 707 372 694 q 347 738 347 719 q 359 768 347 755 q 391 781 372 781 q 420 768 408 781 q 434 738 434 755 q 420 707 434 719 q 391 694 408 694 l 391 694 m 477 694 q 446 707 458 694 q 434 738 434 719 q 446 768 434 755 q 477 781 458 781 q 507 768 495 781 q 521 738 521 755 q 507 707 521 719 q 477 694 495 694 l 477 694 m 564 694 q 533 707 545 694 q 521 738 521 719 q 533 768 521 755 q 564 781 545 781 q 594 768 582 781 q 608 738 608 755 q 594 707 608 719 q 564 694 582 694 l 564 694 m 651 694 q 620 707 632 694 q 608 738 608 719 q 620 768 608 755 q 651 781 632 781 q 681 768 669 781 q 694 738 694 755 q 681 707 694 719 q 651 694 669 694 l 651 694 m 738 694 q 707 707 719 694 q 694 738 694 719 q 707 768 694 755 q 738 781 719 781 q 768 768 755 781 q 781 738 781 755 q 768 707 781 719 q 738 694 755 694 l 738 694 m 825 694 q 793 707 806 694 q 781 738 781 719 q 793 768 781 755 q 825 781 806 781 q 854 768 842 781 q 868 738 868 755 q 854 707 868 719 q 825 694 842 694 l 825 694 m 911 694 q 880 707 892 694 q 868 738 868 719 q 880 768 868 755 q 911 781 892 781 q 941 768 929 781 q 955 738 955 755 q 941 707 955 719 q 911 694 929 694 l 911 694 m 998 694 q 967 707 979 694 q 955 738 955 719 q 967 768 955 755 q 998 781 979 781 q 1028 768 1016 781 q 1042 738 1042 755 q 1028 707 1042 719 q 998 694 1016 694 l 998 694 m 43 781 q 12 793 24 781 q 0 825 0 806 q 12 854 0 842 q 43 868 24 868 q 73 854 61 868 q 87 825 87 842 q 73 793 87 806 q 43 781 61 781 l 43 781 m 130 781 q 99 793 111 781 q 87 825 87 806 q 99 854 87 842 q 130 868 111 868 q 160 854 148 868 q 174 825 174 842 q 160 793 174 806 q 130 781 148 781 l 130 781 m 217 781 q 186 793 198 781 q 174 825 174 806 q 186 854 174 842 q 217 868 198 868 q 247 854 235 868 q 260 825 260 842 q 247 793 260 806 q 217 781 235 781 l 217 781 m 304 781 q 273 793 285 781 q 260 825 260 806 q 273 854 260 842 q 304 868 285 868 q 334 854 321 868 q 347 825 347 842 q 334 793 347 806 q 304 781 321 781 l 304 781 m 391 781 q 359 793 372 781 q 347 825 347 806 q 359 854 347 842 q 391 868 372 868 q 420 854 408 868 q 434 825 434 842 q 420 793 434 806 q 391 781 408 781 l 391 781 m 477 781 q 446 793 458 781 q 434 825 434 806 q 446 854 434 842 q 477 868 458 868 q 507 854 495 868 q 521 825 521 842 q 507 793 521 806 q 477 781 495 781 l 477 781 m 564 781 q 533 793 545 781 q 521 825 521 806 q 533 854 521 842 q 564 868 545 868 q 594 854 582 868 q 608 825 608 842 q 594 793 608 806 q 564 781 582 781 l 564 781 m 651 781 q 620 793 632 781 q 608 825 608 806 q 620 854 608 842 q 651 868 632 868 q 681 854 669 868 q 694 825 694 842 q 681 793 694 806 q 651 781 669 781 l 651 781 m 738 781 q 707 793 719 781 q 694 825 694 806 q 707 854 694 842 q 738 868 719 868 q 768 854 755 868 q 781 825 781 842 q 768 793 781 806 q 738 781 755 781 l 738 781 m 825 781 q 793 793 806 781 q 781 825 781 806 q 793 854 781 842 q 825 868 806 868 q 854 854 842 868 q 868 825 868 842 q 854 793 868 806 q 825 781 842 781 l 825 781 m 911 781 q 880 793 892 781 q 868 825 868 806 q 880 854 868 842 q 911 868 892 868 q 941 854 929 868 q 955 825 955 842 q 941 793 955 806 q 911 781 929 781 l 911 781 z "},"3":{"ha":1302,"x_min":0,"x_max":1119,"o":"m 43 0 q 12 12 24 0 q 0 43 0 24 q 12 73 0 61 q 43 87 24 87 q 73 73 61 87 q 87 43 87 61 q 73 12 87 24 q 43 0 61 0 l 43 0 m 130 0 q 99 12 111 0 q 87 43 87 24 q 99 73 87 61 q 130 87 111 87 q 160 73 148 87 q 174 43 174 61 q 160 12 174 24 q 130 0 148 0 l 130 0 m 217 0 q 186 12 198 0 q 174 43 174 24 q 186 73 174 61 q 217 87 198 87 q 247 73 235 87 q 260 43 260 61 q 247 12 260 24 q 217 0 235 0 l 217 0 m 304 0 q 273 12 285 0 q 260 43 260 24 q 273 73 260 61 q 304 87 285 87 q 334 73 321 87 q 347 43 347 61 q 334 12 347 24 q 304 0 321 0 l 304 0 m 391 0 q 359 12 372 0 q 347 43 347 24 q 359 73 347 61 q 391 87 372 87 q 420 73 408 87 q 434 43 434 61 q 420 12 434 24 q 391 0 408 0 l 391 0 m 477 0 q 446 12 458 0 q 434 43 434 24 q 446 73 434 61 q 477 87 458 87 q 507 73 495 87 q 521 43 521 61 q 507 12 521 24 q 477 0 495 0 l 477 0 m 564 0 q 533 12 545 0 q 521 43 521 24 q 533 73 521 61 q 564 87 545 87 q 594 73 582 87 q 608 43 608 61 q 594 12 608 24 q 564 0 582 0 l 564 0 m 651 0 q 620 12 632 0 q 608 43 608 24 q 620 73 608 61 q 651 87 632 87 q 681 73 669 87 q 694 43 694 61 q 681 12 694 24 q 651 0 669 0 l 651 0 m 738 0 q 707 12 719 0 q 694 43 694 24 q 707 73 694 61 q 738 87 719 87 q 768 73 755 87 q 781 43 781 61 q 768 12 781 24 q 738 0 755 0 l 738 0 m 825 0 q 793 12 806 0 q 781 43 781 24 q 793 73 781 61 q 825 87 806 87 q 854 73 842 87 q 868 43 868 61 q 854 12 868 24 q 825 0 842 0 l 825 0 m 911 0 q 880 12 892 0 q 868 43 868 24 q 880 73 868 61 q 911 87 892 87 q 941 73 929 87 q 955 43 955 61 q 941 12 955 24 q 911 0 929 0 l 911 0 m 43 87 q 12 99 24 87 q 0 130 0 111 q 12 160 0 148 q 43 174 24 174 q 73 160 61 174 q 87 130 87 148 q 73 99 87 111 q 43 87 61 87 l 43 87 m 130 87 q 99 99 111 87 q 87 130 87 111 q 99 160 87 148 q 130 174 111 174 q 160 160 148 174 q 174 130 174 148 q 160 99 174 111 q 130 87 148 87 l 130 87 m 217 87 q 186 99 198 87 q 174 130 174 111 q 186 160 174 148 q 217 174 198 174 q 247 160 235 174 q 260 130 260 148 q 247 99 260 111 q 217 87 235 87 l 217 87 m 304 87 q 273 99 285 87 q 260 130 260 111 q 273 160 260 148 q 304 174 285 174 q 334 160 321 174 q 347 130 347 148 q 334 99 347 111 q 304 87 321 87 l 304 87 m 391 87 q 359 99 372 87 q 347 130 347 111 q 359 160 347 148 q 391 174 372 174 q 420 160 408 174 q 434 130 434 148 q 420 99 434 111 q 391 87 408 87 l 391 87 m 477 87 q 446 99 458 87 q 434 130 434 111 q 446 160 434 148 q 477 174 458 174 q 507 160 495 174 q 521 130 521 148 q 507 99 521 111 q 477 87 495 87 l 477 87 m 564 87 q 533 99 545 87 q 521 130 521 111 q 533 160 521 148 q 564 174 545 174 q 594 160 582 174 q 608 130 608 148 q 594 99 608 111 q 564 87 582 87 l 564 87 m 651 87 q 620 99 632 87 q 608 130 608 111 q 620 160 608 148 q 651 174 632 174 q 681 160 669 174 q 694 130 694 148 q 681 99 694 111 q 651 87 669 87 l 651 87 m 738 87 q 707 99 719 87 q 694 130 694 111 q 707 160 694 148 q 738 174 719 174 q 768 160 755 174 q 781 130 781 148 q 768 99 781 111 q 738 87 755 87 l 738 87 m 825 87 q 793 99 806 87 q 781 130 781 111 q 793 160 781 148 q 825 174 806 174 q 854 160 842 174 q 868 130 868 148 q 854 99 868 111 q 825 87 842 87 l 825 87 m 911 87 q 880 99 892 87 q 868 130 868 111 q 880 160 868 148 q 911 174 892 174 q 941 160 929 174 q 955 130 955 148 q 941 99 955 111 q 911 87 929 87 l 911 87 m 998 87 q 967 99 979 87 q 955 130 955 111 q 967 160 955 148 q 998 174 979 174 q 1028 160 1016 174 q 1042 130 1042 148 q 1028 99 1042 111 q 998 87 1016 87 l 998 87 m 825 182 q 802 191 812 182 q 789 217 789 202 q 799 239 789 228 q 825 251 811 251 q 846 241 836 251 q 859 217 859 229 q 849 191 859 202 q 825 182 838 182 l 825 182 m 911 182 q 888 191 899 182 q 876 217 876 202 q 886 239 876 228 q 911 251 898 251 q 933 241 922 251 q 945 217 945 229 q 936 191 945 202 q 911 182 925 182 l 911 182 m 998 182 q 975 191 986 182 q 963 217 963 202 q 972 239 963 228 q 998 251 985 251 q 1020 241 1009 251 q 1032 217 1032 229 q 1023 191 1032 202 q 998 182 1012 182 l 998 182 m 1085 182 q 1062 191 1073 182 q 1050 217 1050 202 q 1059 239 1050 228 q 1085 251 1072 251 q 1107 241 1096 251 q 1119 217 1119 229 q 1109 191 1119 202 q 1085 182 1099 182 l 1085 182 m 911 269 q 888 278 899 269 q 876 304 876 289 q 886 326 876 315 q 911 338 898 338 q 933 328 922 338 q 945 304 945 316 q 936 278 945 289 q 911 269 925 269 l 911 269 m 998 269 q 975 278 986 269 q 963 304 963 289 q 972 326 963 315 q 998 338 985 338 q 1020 328 1009 338 q 1032 304 1032 316 q 1023 278 1032 289 q 998 269 1012 269 l 998 269 m 1085 269 q 1062 278 1073 269 q 1050 304 1050 289 q 1059 326 1050 315 q 1085 338 1072 338 q 1107 328 1096 338 q 1119 304 1119 316 q 1109 278 1119 289 q 1085 269 1099 269 l 1085 269 m 217 363 q 199 372 208 363 q 190 391 190 380 q 198 407 190 399 q 217 416 206 416 q 233 408 225 416 q 243 391 243 400 q 235 372 243 380 q 217 363 228 363 l 217 363 m 304 363 q 286 372 294 363 q 277 391 277 380 q 285 407 277 399 q 304 416 293 416 q 320 408 312 416 q 330 391 330 400 q 321 372 330 380 q 304 363 315 363 l 304 363 m 391 363 q 373 372 381 363 q 363 391 363 380 q 372 407 363 399 q 391 416 380 416 q 407 408 399 416 q 416 391 416 400 q 408 372 416 380 q 391 363 401 363 l 391 363 m 477 363 q 460 372 468 363 q 450 391 450 380 q 458 407 450 399 q 477 416 467 416 q 494 408 486 416 q 503 391 503 400 q 495 372 503 380 q 477 363 488 363 l 477 363 m 564 363 q 547 372 555 363 q 537 391 537 380 q 545 407 537 399 q 564 416 553 416 q 581 408 572 416 q 590 391 590 400 q 582 372 590 380 q 564 363 575 363 l 564 363 m 651 363 q 633 372 642 363 q 624 391 624 380 q 632 407 624 399 q 651 416 640 416 q 667 408 659 416 q 677 391 677 400 q 669 372 677 380 q 651 363 662 363 l 651 363 m 738 363 q 720 372 728 363 q 711 391 711 380 q 719 407 711 399 q 738 416 727 416 q 754 408 746 416 q 764 391 764 400 q 755 372 764 380 q 738 363 749 363 l 738 363 m 825 363 q 807 372 815 363 q 798 391 798 380 q 806 407 798 399 q 825 416 814 416 q 841 408 833 416 q 850 391 850 400 q 842 372 850 380 q 825 363 836 363 l 825 363 m 911 363 q 894 372 902 363 q 884 391 884 380 q 892 407 884 399 q 911 416 901 416 q 928 408 920 416 q 937 391 937 400 q 929 372 937 380 q 911 363 922 363 l 911 363 m 998 363 q 981 372 989 363 q 971 391 971 380 q 979 407 971 399 q 998 416 987 416 q 1015 408 1006 416 q 1024 391 1024 400 q 1016 372 1024 380 q 998 363 1009 363 l 998 363 m 217 450 q 199 458 208 450 q 190 477 190 467 q 198 494 190 486 q 217 503 206 503 q 233 495 225 503 q 243 477 243 487 q 235 458 243 467 q 217 450 228 450 l 217 450 m 304 450 q 286 458 294 450 q 277 477 277 467 q 285 494 277 486 q 304 503 293 503 q 320 495 312 503 q 330 477 330 487 q 321 458 330 467 q 304 450 315 450 l 304 450 m 391 450 q 373 458 381 450 q 363 477 363 467 q 372 494 363 486 q 391 503 380 503 q 407 495 399 503 q 416 477 416 487 q 408 458 416 467 q 391 450 401 450 l 391 450 m 477 450 q 460 458 468 450 q 450 477 450 467 q 458 494 450 486 q 477 503 467 503 q 494 495 486 503 q 503 477 503 487 q 495 458 503 467 q 477 450 488 450 l 477 450 m 564 450 q 547 458 555 450 q 537 477 537 467 q 545 494 537 486 q 564 503 553 503 q 581 495 572 503 q 590 477 590 487 q 582 458 590 467 q 564 450 575 450 l 564 450 m 651 450 q 633 458 642 450 q 624 477 624 467 q 632 494 624 486 q 651 503 640 503 q 667 495 659 503 q 677 477 677 487 q 669 458 677 467 q 651 450 662 450 l 651 450 m 738 450 q 720 458 728 450 q 711 477 711 467 q 719 494 711 486 q 738 503 727 503 q 754 495 746 503 q 764 477 764 487 q 755 458 764 467 q 738 450 749 450 l 738 450 m 825 450 q 807 458 815 450 q 798 477 798 467 q 806 494 798 486 q 825 503 814 503 q 841 495 833 503 q 850 477 850 487 q 842 458 850 467 q 825 450 836 450 l 825 450 m 911 450 q 894 458 902 450 q 884 477 884 467 q 892 494 884 486 q 911 503 901 503 q 928 495 920 503 q 937 477 937 487 q 929 458 937 467 q 911 450 922 450 l 911 450 m 998 450 q 981 458 989 450 q 971 477 971 467 q 979 494 971 486 q 998 503 987 503 q 1015 495 1006 503 q 1024 477 1024 487 q 1016 458 1024 467 q 998 450 1009 450 l 998 450 m 911 529 q 888 538 899 529 q 876 564 876 549 q 886 586 876 575 q 911 598 898 598 q 933 589 922 598 q 945 564 945 576 q 936 538 945 549 q 911 529 925 529 l 911 529 m 998 529 q 975 538 986 529 q 963 564 963 549 q 972 586 963 575 q 998 598 985 598 q 1020 589 1009 598 q 1032 564 1032 576 q 1023 538 1032 549 q 998 529 1012 529 l 998 529 m 1085 529 q 1062 538 1073 529 q 1050 564 1050 549 q 1059 586 1050 575 q 1085 598 1072 598 q 1107 589 1096 598 q 1119 564 1119 576 q 1109 538 1119 549 q 1085 529 1099 529 l 1085 529 m 825 616 q 802 625 812 616 q 789 651 789 636 q 799 673 789 662 q 825 685 811 685 q 846 675 836 685 q 859 651 859 663 q 849 625 859 636 q 825 616 838 616 l 825 616 m 911 616 q 888 625 899 616 q 876 651 876 636 q 886 673 876 662 q 911 685 898 685 q 933 675 922 685 q 945 651 945 663 q 936 625 945 636 q 911 616 925 616 l 911 616 m 998 616 q 975 625 986 616 q 963 651 963 636 q 972 673 963 662 q 998 685 985 685 q 1020 675 1009 685 q 1032 651 1032 663 q 1023 625 1032 636 q 998 616 1012 616 l 998 616 m 1085 616 q 1062 625 1073 616 q 1050 651 1050 636 q 1059 673 1050 662 q 1085 685 1072 685 q 1107 675 1096 685 q 1119 651 1119 663 q 1109 625 1119 636 q 1085 616 1099 616 l 1085 616 m 43 694 q 12 707 24 694 q 0 738 0 719 q 12 768 0 755 q 43 781 24 781 q 73 768 61 781 q 87 738 87 755 q 73 707 87 719 q 43 694 61 694 l 43 694 m 130 694 q 99 707 111 694 q 87 738 87 719 q 99 768 87 755 q 130 781 111 781 q 160 768 148 781 q 174 738 174 755 q 160 707 174 719 q 130 694 148 694 l 130 694 m 217 694 q 186 707 198 694 q 174 738 174 719 q 186 768 174 755 q 217 781 198 781 q 247 768 235 781 q 260 738 260 755 q 247 707 260 719 q 217 694 235 694 l 217 694 m 304 694 q 273 707 285 694 q 260 738 260 719 q 273 768 260 755 q 304 781 285 781 q 334 768 321 781 q 347 738 347 755 q 334 707 347 719 q 304 694 321 694 l 304 694 m 391 694 q 359 707 372 694 q 347 738 347 719 q 359 768 347 755 q 391 781 372 781 q 420 768 408 781 q 434 738 434 755 q 420 707 434 719 q 391 694 408 694 l 391 694 m 477 694 q 446 707 458 694 q 434 738 434 719 q 446 768 434 755 q 477 781 458 781 q 507 768 495 781 q 521 738 521 755 q 507 707 521 719 q 477 694 495 694 l 477 694 m 564 694 q 533 707 545 694 q 521 738 521 719 q 533 768 521 755 q 564 781 545 781 q 594 768 582 781 q 608 738 608 755 q 594 707 608 719 q 564 694 582 694 l 564 694 m 651 694 q 620 707 632 694 q 608 738 608 719 q 620 768 608 755 q 651 781 632 781 q 681 768 669 781 q 694 738 694 755 q 681 707 694 719 q 651 694 669 694 l 651 694 m 738 694 q 707 707 719 694 q 694 738 694 719 q 707 768 694 755 q 738 781 719 781 q 768 768 755 781 q 781 738 781 755 q 768 707 781 719 q 738 694 755 694 l 738 694 m 825 694 q 793 707 806 694 q 781 738 781 719 q 793 768 781 755 q 825 781 806 781 q 854 768 842 781 q 868 738 868 755 q 854 707 868 719 q 825 694 842 694 l 825 694 m 911 694 q 880 707 892 694 q 868 738 868 719 q 880 768 868 755 q 911 781 892 781 q 941 768 929 781 q 955 738 955 755 q 941 707 955 719 q 911 694 929 694 l 911 694 m 998 694 q 967 707 979 694 q 955 738 955 719 q 967 768 955 755 q 998 781 979 781 q 1028 768 1016 781 q 1042 738 1042 755 q 1028 707 1042 719 q 998 694 1016 694 l 998 694 m 43 781 q 12 793 24 781 q 0 825 0 806 q 12 854 0 842 q 43 868 24 868 q 73 854 61 868 q 87 825 87 842 q 73 793 87 806 q 43 781 61 781 l 43 781 m 130 781 q 99 793 111 781 q 87 825 87 806 q 99 854 87 842 q 130 868 111 868 q 160 854 148 868 q 174 825 174 842 q 160 793 174 806 q 130 781 148 781 l 130 781 m 217 781 q 186 793 198 781 q 174 825 174 806 q 186 854 174 842 q 217 868 198 868 q 247 854 235 868 q 260 825 260 842 q 247 793 260 806 q 217 781 235 781 l 217 781 m 304 781 q 273 793 285 781 q 260 825 260 806 q 273 854 260 842 q 304 868 285 868 q 334 854 321 868 q 347 825 347 842 q 334 793 347 806 q 304 781 321 781 l 304 781 m 391 781 q 359 793 372 781 q 347 825 347 806 q 359 854 347 842 q 391 868 372 868 q 420 854 408 868 q 434 825 434 842 q 420 793 434 806 q 391 781 408 781 l 391 781 m 477 781 q 446 793 458 781 q 434 825 434 806 q 446 854 434 842 q 477 868 458 868 q 507 854 495 868 q 521 825 521 842 q 507 793 521 806 q 477 781 495 781 l 477 781 m 564 781 q 533 793 545 781 q 521 825 521 806 q 533 854 521 842 q 564 868 545 868 q 594 854 582 868 q 608 825 608 842 q 594 793 608 806 q 564 781 582 781 l 564 781 m 651 781 q 620 793 632 781 q 608 825 608 806 q 620 854 608 842 q 651 868 632 868 q 681 854 669 868 q 694 825 694 842 q 681 793 694 806 q 651 781 669 781 l 651 781 m 738 781 q 707 793 719 781 q 694 825 694 806 q 707 854 694 842 q 738 868 719 868 q 768 854 755 868 q 781 825 781 842 q 768 793 781 806 q 738 781 755 781 l 738 781 m 825 781 q 793 793 806 781 q 781 825 781 806 q 793 854 781 842 q 825 868 806 868 q 854 854 842 868 q 868 825 868 842 q 854 793 868 806 q 825 781 842 781 l 825 781 m 911 781 q 880 793 892 781 q 868 825 868 806 q 880 854 868 842 q 911 868 892 868 q 941 854 929 868 q 955 825 955 842 q 941 793 955 806 q 911 781 929 781 l 911 781 z "},"4":{"ha":1302,"x_min":8,"x_max":1119,"o":"m 738 0 q 707 12 719 0 q 694 43 694 24 q 707 73 694 61 q 738 87 719 87 q 768 73 755 87 q 781 43 781 61 q 768 12 781 24 q 738 0 755 0 l 738 0 m 825 0 q 793 12 806 0 q 781 43 781 24 q 793 73 781 61 q 825 87 806 87 q 854 73 842 87 q 868 43 868 61 q 854 12 868 24 q 825 0 842 0 l 825 0 m 911 0 q 880 12 892 0 q 868 43 868 24 q 880 73 868 61 q 911 87 892 87 q 941 73 929 87 q 955 43 955 61 q 941 12 955 24 q 911 0 929 0 l 911 0 m 738 87 q 707 99 719 87 q 694 130 694 111 q 707 160 694 148 q 738 174 719 174 q 768 160 755 174 q 781 130 781 148 q 768 99 781 111 q 738 87 755 87 l 738 87 m 825 87 q 793 99 806 87 q 781 130 781 111 q 793 160 781 148 q 825 174 806 174 q 854 160 842 174 q 868 130 868 148 q 854 99 868 111 q 825 87 842 87 l 825 87 m 911 87 q 880 99 892 87 q 868 130 868 111 q 880 160 868 148 q 911 174 892 174 q 941 160 929 174 q 955 130 955 148 q 941 99 955 111 q 911 87 929 87 l 911 87 m 43 182 q 20 191 31 182 q 8 217 8 202 q 18 239 8 228 q 43 251 30 251 q 65 241 54 251 q 77 217 77 229 q 68 191 77 202 q 43 182 57 182 l 43 182 m 130 182 q 107 191 118 182 q 95 217 95 202 q 104 239 95 228 q 130 251 117 251 q 152 241 141 251 q 164 217 164 229 q 155 191 164 202 q 130 182 144 182 l 130 182 m 217 182 q 194 191 205 182 q 182 217 182 202 q 191 239 182 228 q 217 251 203 251 q 239 241 228 251 q 251 217 251 229 q 241 191 251 202 q 217 182 231 182 l 217 182 m 304 182 q 281 191 292 182 q 269 217 269 202 q 278 239 269 228 q 304 251 290 251 q 326 241 315 251 q 338 217 338 229 q 328 191 338 202 q 304 182 317 182 l 304 182 m 391 182 q 368 191 378 182 q 355 217 355 202 q 365 239 355 228 q 391 251 377 251 q 412 241 401 251 q 425 217 425 229 q 415 191 425 202 q 391 182 404 182 l 391 182 m 477 182 q 454 191 465 182 q 442 217 442 202 q 452 239 442 228 q 477 251 464 251 q 499 241 488 251 q 511 217 511 229 q 502 191 511 202 q 477 182 491 182 l 477 182 m 564 182 q 541 191 552 182 q 529 217 529 202 q 538 239 529 228 q 564 251 551 251 q 586 241 575 251 q 598 217 598 229 q 589 191 598 202 q 564 182 578 182 l 564 182 m 651 182 q 628 191 639 182 q 616 217 616 202 q 625 239 616 228 q 651 251 637 251 q 673 241 662 251 q 685 217 685 229 q 675 191 685 202 q 651 182 665 182 l 651 182 m 738 182 q 715 191 726 182 q 703 217 703 202 q 712 239 703 228 q 738 251 724 251 q 760 241 749 251 q 772 217 772 229 q 762 191 772 202 q 738 182 751 182 l 738 182 m 825 182 q 802 191 812 182 q 789 217 789 202 q 799 239 789 228 q 825 251 811 251 q 846 241 836 251 q 859 217 859 229 q 849 191 859 202 q 825 182 838 182 l 825 182 m 911 182 q 888 191 899 182 q 876 217 876 202 q 886 239 876 228 q 911 251 898 251 q 933 241 922 251 q 945 217 945 229 q 936 191 945 202 q 911 182 925 182 l 911 182 m 998 182 q 975 191 986 182 q 963 217 963 202 q 972 239 963 228 q 998 251 985 251 q 1020 241 1009 251 q 1032 217 1032 229 q 1023 191 1032 202 q 998 182 1012 182 l 998 182 m 1085 182 q 1062 191 1073 182 q 1050 217 1050 202 q 1059 239 1050 228 q 1085 251 1072 251 q 1107 241 1096 251 q 1119 217 1119 229 q 1109 191 1119 202 q 1085 182 1099 182 l 1085 182 m 43 269 q 20 278 31 269 q 8 304 8 289 q 18 326 8 315 q 43 338 30 338 q 65 328 54 338 q 77 304 77 316 q 68 278 77 289 q 43 269 57 269 l 43 269 m 130 269 q 107 278 118 269 q 95 304 95 289 q 104 326 95 315 q 130 338 117 338 q 152 328 141 338 q 164 304 164 316 q 155 278 164 289 q 130 269 144 269 l 130 269 m 217 269 q 194 278 205 269 q 182 304 182 289 q 191 326 182 315 q 217 338 203 338 q 239 328 228 338 q 251 304 251 316 q 241 278 251 289 q 217 269 231 269 l 217 269 m 304 269 q 281 278 292 269 q 269 304 269 289 q 278 326 269 315 q 304 338 290 338 q 326 328 315 338 q 338 304 338 316 q 328 278 338 289 q 304 269 317 269 l 304 269 m 391 269 q 368 278 378 269 q 355 304 355 289 q 365 326 355 315 q 391 338 377 338 q 412 328 401 338 q 425 304 425 316 q 415 278 425 289 q 391 269 404 269 l 391 269 m 477 269 q 454 278 465 269 q 442 304 442 289 q 452 326 442 315 q 477 338 464 338 q 499 328 488 338 q 511 304 511 316 q 502 278 511 289 q 477 269 491 269 l 477 269 m 564 269 q 541 278 552 269 q 529 304 529 289 q 538 326 529 315 q 564 338 551 338 q 586 328 575 338 q 598 304 598 316 q 589 278 598 289 q 564 269 578 269 l 564 269 m 651 269 q 628 278 639 269 q 616 304 616 289 q 625 326 616 315 q 651 338 637 338 q 673 328 662 338 q 685 304 685 316 q 675 278 685 289 q 651 269 665 269 l 651 269 m 738 269 q 715 278 726 269 q 703 304 703 289 q 712 326 703 315 q 738 338 724 338 q 760 328 749 338 q 772 304 772 316 q 762 278 772 289 q 738 269 751 269 l 738 269 m 825 269 q 802 278 812 269 q 789 304 789 289 q 799 326 789 315 q 825 338 811 338 q 846 328 836 338 q 859 304 859 316 q 849 278 859 289 q 825 269 838 269 l 825 269 m 911 269 q 888 278 899 269 q 876 304 876 289 q 886 326 876 315 q 911 338 898 338 q 933 328 922 338 q 945 304 945 316 q 936 278 945 289 q 911 269 925 269 l 911 269 m 998 269 q 975 278 986 269 q 963 304 963 289 q 972 326 963 315 q 998 338 985 338 q 1020 328 1009 338 q 1032 304 1032 316 q 1023 278 1032 289 q 998 269 1012 269 l 998 269 m 1085 269 q 1062 278 1073 269 q 1050 304 1050 289 q 1059 326 1050 315 q 1085 338 1072 338 q 1107 328 1096 338 q 1119 304 1119 316 q 1109 278 1119 289 q 1085 269 1099 269 l 1085 269 m 43 363 q 26 372 34 363 q 16 391 16 380 q 24 407 16 399 q 43 416 33 416 q 60 408 52 416 q 69 391 69 400 q 61 372 69 380 q 43 363 54 363 l 43 363 m 130 363 q 113 372 121 363 q 103 391 103 380 q 111 407 103 399 q 130 416 119 416 q 146 408 138 416 q 156 391 156 400 q 148 372 156 380 q 130 363 141 363 l 130 363 m 217 363 q 199 372 208 363 q 190 391 190 380 q 198 407 190 399 q 217 416 206 416 q 233 408 225 416 q 243 391 243 400 q 235 372 243 380 q 217 363 228 363 l 217 363 m 738 363 q 720 372 728 363 q 711 391 711 380 q 719 407 711 399 q 738 416 727 416 q 754 408 746 416 q 764 391 764 400 q 755 372 764 380 q 738 363 749 363 l 738 363 m 825 363 q 807 372 815 363 q 798 391 798 380 q 806 407 798 399 q 825 416 814 416 q 841 408 833 416 q 850 391 850 400 q 842 372 850 380 q 825 363 836 363 l 825 363 m 911 363 q 894 372 902 363 q 884 391 884 380 q 892 407 884 399 q 911 416 901 416 q 928 408 920 416 q 937 391 937 400 q 929 372 937 380 q 911 363 922 363 l 911 363 m 130 450 q 113 458 121 450 q 103 477 103 467 q 111 494 103 486 q 130 503 119 503 q 146 495 138 503 q 156 477 156 487 q 148 458 156 467 q 130 450 141 450 l 130 450 m 217 450 q 199 458 208 450 q 190 477 190 467 q 198 494 190 486 q 217 503 206 503 q 233 495 225 503 q 243 477 243 487 q 235 458 243 467 q 217 450 228 450 l 217 450 m 304 450 q 286 458 294 450 q 277 477 277 467 q 285 494 277 486 q 304 503 293 503 q 320 495 312 503 q 330 477 330 487 q 321 458 330 467 q 304 450 315 450 l 304 450 m 738 450 q 720 458 728 450 q 711 477 711 467 q 719 494 711 486 q 738 503 727 503 q 754 495 746 503 q 764 477 764 487 q 755 458 764 467 q 738 450 749 450 l 738 450 m 825 450 q 807 458 815 450 q 798 477 798 467 q 806 494 798 486 q 825 503 814 503 q 841 495 833 503 q 850 477 850 487 q 842 458 850 467 q 825 450 836 450 l 825 450 m 911 450 q 894 458 902 450 q 884 477 884 467 q 892 494 884 486 q 911 503 901 503 q 928 495 920 503 q 937 477 937 487 q 929 458 937 467 q 911 450 922 450 l 911 450 m 217 529 q 194 538 205 529 q 182 564 182 549 q 191 586 182 575 q 217 598 203 598 q 239 589 228 598 q 251 564 251 576 q 241 538 251 549 q 217 529 231 529 l 217 529 m 304 529 q 281 538 292 529 q 269 564 269 549 q 278 586 269 575 q 304 598 290 598 q 326 589 315 598 q 338 564 338 576 q 328 538 338 549 q 304 529 317 529 l 304 529 m 391 529 q 368 538 378 529 q 355 564 355 549 q 365 586 355 575 q 391 598 377 598 q 412 589 401 598 q 425 564 425 576 q 415 538 425 549 q 391 529 404 529 l 391 529 m 738 529 q 715 538 726 529 q 703 564 703 549 q 712 586 703 575 q 738 598 724 598 q 760 589 749 598 q 772 564 772 576 q 762 538 772 549 q 738 529 751 529 l 738 529 m 825 529 q 802 538 812 529 q 789 564 789 549 q 799 586 789 575 q 825 598 811 598 q 846 589 836 598 q 859 564 859 576 q 849 538 859 549 q 825 529 838 529 l 825 529 m 911 529 q 888 538 899 529 q 876 564 876 549 q 886 586 876 575 q 911 598 898 598 q 933 589 922 598 q 945 564 945 576 q 936 538 945 549 q 911 529 925 529 l 911 529 m 304 616 q 281 625 292 616 q 269 651 269 636 q 278 673 269 662 q 304 685 290 685 q 326 675 315 685 q 338 651 338 663 q 328 625 338 636 q 304 616 317 616 l 304 616 m 391 616 q 368 625 378 616 q 355 651 355 636 q 365 673 355 662 q 391 685 377 685 q 412 675 401 685 q 425 651 425 663 q 415 625 425 636 q 391 616 404 616 l 391 616 m 477 616 q 454 625 465 616 q 442 651 442 636 q 452 673 442 662 q 477 685 464 685 q 499 675 488 685 q 511 651 511 663 q 502 625 511 636 q 477 616 491 616 l 477 616 m 738 616 q 715 625 726 616 q 703 651 703 636 q 712 673 703 662 q 738 685 724 685 q 760 675 749 685 q 772 651 772 663 q 762 625 772 636 q 738 616 751 616 l 738 616 m 825 616 q 802 625 812 616 q 789 651 789 636 q 799 673 789 662 q 825 685 811 685 q 846 675 836 685 q 859 651 859 663 q 849 625 859 636 q 825 616 838 616 l 825 616 m 911 616 q 888 625 899 616 q 876 651 876 636 q 886 673 876 662 q 911 685 898 685 q 933 675 922 685 q 945 651 945 663 q 936 625 945 636 q 911 616 925 616 l 911 616 m 391 694 q 359 707 372 694 q 347 738 347 719 q 359 768 347 755 q 391 781 372 781 q 420 768 408 781 q 434 738 434 755 q 420 707 434 719 q 391 694 408 694 l 391 694 m 477 694 q 446 707 458 694 q 434 738 434 719 q 446 768 434 755 q 477 781 458 781 q 507 768 495 781 q 521 738 521 755 q 507 707 521 719 q 477 694 495 694 l 477 694 m 564 694 q 533 707 545 694 q 521 738 521 719 q 533 768 521 755 q 564 781 545 781 q 594 768 582 781 q 608 738 608 755 q 594 707 608 719 q 564 694 582 694 l 564 694 m 651 694 q 620 707 632 694 q 608 738 608 719 q 620 768 608 755 q 651 781 632 781 q 681 768 669 781 q 694 738 694 755 q 681 707 694 719 q 651 694 669 694 l 651 694 m 738 694 q 707 707 719 694 q 694 738 694 719 q 707 768 694 755 q 738 781 719 781 q 768 768 755 781 q 781 738 781 755 q 768 707 781 719 q 738 694 755 694 l 738 694 m 825 694 q 793 707 806 694 q 781 738 781 719 q 793 768 781 755 q 825 781 806 781 q 854 768 842 781 q 868 738 868 755 q 854 707 868 719 q 825 694 842 694 l 825 694 m 911 694 q 880 707 892 694 q 868 738 868 719 q 880 768 868 755 q 911 781 892 781 q 941 768 929 781 q 955 738 955 755 q 941 707 955 719 q 911 694 929 694 l 911 694 m 477 781 q 446 793 458 781 q 434 825 434 806 q 446 854 434 842 q 477 868 458 868 q 507 854 495 868 q 521 825 521 842 q 507 793 521 806 q 477 781 495 781 l 477 781 m 564 781 q 533 793 545 781 q 521 825 521 806 q 533 854 521 842 q 564 868 545 868 q 594 854 582 868 q 608 825 608 842 q 594 793 608 806 q 564 781 582 781 l 564 781 m 651 781 q 620 793 632 781 q 608 825 608 806 q 620 854 608 842 q 651 868 632 868 q 681 854 669 868 q 694 825 694 842 q 681 793 694 806 q 651 781 669 781 l 651 781 m 738 781 q 707 793 719 781 q 694 825 694 806 q 707 854 694 842 q 738 868 719 868 q 768 854 755 868 q 781 825 781 842 q 768 793 781 806 q 738 781 755 781 l 738 781 m 825 781 q 793 793 806 781 q 781 825 781 806 q 793 854 781 842 q 825 868 806 868 q 854 854 842 868 q 868 825 868 842 q 854 793 868 806 q 825 781 842 781 l 825 781 m 911 781 q 880 793 892 781 q 868 825 868 806 q 880 854 868 842 q 911 868 892 868 q 941 854 929 868 q 955 825 955 842 q 941 793 955 806 q 911 781 929 781 l 911 781 z "},"5":{"ha":1302,"x_min":0,"x_max":1128,"o":"m 43 0 q 12 12 24 0 q 0 43 0 24 q 12 73 0 61 q 43 87 24 87 q 73 73 61 87 q 87 43 87 61 q 73 12 87 24 q 43 0 61 0 l 43 0 m 130 0 q 99 12 111 0 q 87 43 87 24 q 99 73 87 61 q 130 87 111 87 q 160 73 148 87 q 174 43 174 61 q 160 12 174 24 q 130 0 148 0 l 130 0 m 217 0 q 186 12 198 0 q 174 43 174 24 q 186 73 174 61 q 217 87 198 87 q 247 73 235 87 q 260 43 260 61 q 247 12 260 24 q 217 0 235 0 l 217 0 m 304 0 q 273 12 285 0 q 260 43 260 24 q 273 73 260 61 q 304 87 285 87 q 334 73 321 87 q 347 43 347 61 q 334 12 347 24 q 304 0 321 0 l 304 0 m 391 0 q 359 12 372 0 q 347 43 347 24 q 359 73 347 61 q 391 87 372 87 q 420 73 408 87 q 434 43 434 61 q 420 12 434 24 q 391 0 408 0 l 391 0 m 477 0 q 446 12 458 0 q 434 43 434 24 q 446 73 434 61 q 477 87 458 87 q 507 73 495 87 q 521 43 521 61 q 507 12 521 24 q 477 0 495 0 l 477 0 m 564 0 q 533 12 545 0 q 521 43 521 24 q 533 73 521 61 q 564 87 545 87 q 594 73 582 87 q 608 43 608 61 q 594 12 608 24 q 564 0 582 0 l 564 0 m 651 0 q 620 12 632 0 q 608 43 608 24 q 620 73 608 61 q 651 87 632 87 q 681 73 669 87 q 694 43 694 61 q 681 12 694 24 q 651 0 669 0 l 651 0 m 738 0 q 707 12 719 0 q 694 43 694 24 q 707 73 694 61 q 738 87 719 87 q 768 73 755 87 q 781 43 781 61 q 768 12 781 24 q 738 0 755 0 l 738 0 m 825 0 q 793 12 806 0 q 781 43 781 24 q 793 73 781 61 q 825 87 806 87 q 854 73 842 87 q 868 43 868 61 q 854 12 868 24 q 825 0 842 0 l 825 0 m 911 0 q 880 12 892 0 q 868 43 868 24 q 880 73 868 61 q 911 87 892 87 q 941 73 929 87 q 955 43 955 61 q 941 12 955 24 q 911 0 929 0 l 911 0 m 43 87 q 12 99 24 87 q 0 130 0 111 q 12 160 0 148 q 43 174 24 174 q 73 160 61 174 q 87 130 87 148 q 73 99 87 111 q 43 87 61 87 l 43 87 m 130 87 q 99 99 111 87 q 87 130 87 111 q 99 160 87 148 q 130 174 111 174 q 160 160 148 174 q 174 130 174 148 q 160 99 174 111 q 130 87 148 87 l 130 87 m 217 87 q 186 99 198 87 q 174 130 174 111 q 186 160 174 148 q 217 174 198 174 q 247 160 235 174 q 260 130 260 148 q 247 99 260 111 q 217 87 235 87 l 217 87 m 304 87 q 273 99 285 87 q 260 130 260 111 q 273 160 260 148 q 304 174 285 174 q 334 160 321 174 q 347 130 347 148 q 334 99 347 111 q 304 87 321 87 l 304 87 m 391 87 q 359 99 372 87 q 347 130 347 111 q 359 160 347 148 q 391 174 372 174 q 420 160 408 174 q 434 130 434 148 q 420 99 434 111 q 391 87 408 87 l 391 87 m 477 87 q 446 99 458 87 q 434 130 434 111 q 446 160 434 148 q 477 174 458 174 q 507 160 495 174 q 521 130 521 148 q 507 99 521 111 q 477 87 495 87 l 477 87 m 564 87 q 533 99 545 87 q 521 130 521 111 q 533 160 521 148 q 564 174 545 174 q 594 160 582 174 q 608 130 608 148 q 594 99 608 111 q 564 87 582 87 l 564 87 m 651 87 q 620 99 632 87 q 608 130 608 111 q 620 160 608 148 q 651 174 632 174 q 681 160 669 174 q 694 130 694 148 q 681 99 694 111 q 651 87 669 87 l 651 87 m 738 87 q 707 99 719 87 q 694 130 694 111 q 707 160 694 148 q 738 174 719 174 q 768 160 755 174 q 781 130 781 148 q 768 99 781 111 q 738 87 755 87 l 738 87 m 825 87 q 793 99 806 87 q 781 130 781 111 q 793 160 781 148 q 825 174 806 174 q 854 160 842 174 q 868 130 868 148 q 854 99 868 111 q 825 87 842 87 l 825 87 m 911 87 q 880 99 892 87 q 868 130 868 111 q 880 160 868 148 q 911 174 892 174 q 941 160 929 174 q 955 130 955 148 q 941 99 955 111 q 911 87 929 87 l 911 87 m 998 87 q 967 99 979 87 q 955 130 955 111 q 967 160 955 148 q 998 174 979 174 q 1028 160 1016 174 q 1042 130 1042 148 q 1028 99 1042 111 q 998 87 1016 87 l 998 87 m 825 182 q 802 191 812 182 q 789 217 789 202 q 799 239 789 228 q 825 251 811 251 q 846 241 836 251 q 859 217 859 229 q 849 191 859 202 q 825 182 838 182 l 825 182 m 911 182 q 888 191 899 182 q 876 217 876 202 q 886 239 876 228 q 911 251 898 251 q 933 241 922 251 q 945 217 945 229 q 936 191 945 202 q 911 182 925 182 l 911 182 m 998 182 q 975 191 986 182 q 963 217 963 202 q 972 239 963 228 q 998 251 985 251 q 1020 241 1009 251 q 1032 217 1032 229 q 1023 191 1032 202 q 998 182 1012 182 l 998 182 m 1085 182 q 1062 191 1073 182 q 1050 217 1050 202 q 1059 239 1050 228 q 1085 251 1072 251 q 1107 241 1096 251 q 1119 217 1119 229 q 1109 191 1119 202 q 1085 182 1099 182 l 1085 182 m 911 269 q 888 278 899 269 q 876 304 876 289 q 886 326 876 315 q 911 338 898 338 q 933 328 922 338 q 945 304 945 316 q 936 278 945 289 q 911 269 925 269 l 911 269 m 998 269 q 975 278 986 269 q 963 304 963 289 q 972 326 963 315 q 998 338 985 338 q 1020 328 1009 338 q 1032 304 1032 316 q 1023 278 1032 289 q 998 269 1012 269 l 998 269 m 1085 269 q 1062 278 1073 269 q 1050 304 1050 289 q 1059 326 1050 315 q 1085 338 1072 338 q 1107 328 1096 338 q 1119 304 1119 316 q 1109 278 1119 289 q 1085 269 1099 269 l 1085 269 m 43 363 q 26 372 34 363 q 16 391 16 380 q 24 407 16 399 q 43 416 33 416 q 60 408 52 416 q 69 391 69 400 q 61 372 69 380 q 43 363 54 363 l 43 363 m 130 363 q 113 372 121 363 q 103 391 103 380 q 111 407 103 399 q 130 416 119 416 q 146 408 138 416 q 156 391 156 400 q 148 372 156 380 q 130 363 141 363 l 130 363 m 217 363 q 199 372 208 363 q 190 391 190 380 q 198 407 190 399 q 217 416 206 416 q 233 408 225 416 q 243 391 243 400 q 235 372 243 380 q 217 363 228 363 l 217 363 m 304 363 q 286 372 294 363 q 277 391 277 380 q 285 407 277 399 q 304 416 293 416 q 320 408 312 416 q 330 391 330 400 q 321 372 330 380 q 304 363 315 363 l 304 363 m 391 363 q 373 372 381 363 q 363 391 363 380 q 372 407 363 399 q 391 416 380 416 q 407 408 399 416 q 416 391 416 400 q 408 372 416 380 q 391 363 401 363 l 391 363 m 477 363 q 460 372 468 363 q 450 391 450 380 q 458 407 450 399 q 477 416 467 416 q 494 408 486 416 q 503 391 503 400 q 495 372 503 380 q 477 363 488 363 l 477 363 m 564 363 q 547 372 555 363 q 537 391 537 380 q 545 407 537 399 q 564 416 553 416 q 581 408 572 416 q 590 391 590 400 q 582 372 590 380 q 564 363 575 363 l 564 363 m 651 363 q 633 372 642 363 q 624 391 624 380 q 632 407 624 399 q 651 416 640 416 q 667 408 659 416 q 677 391 677 400 q 669 372 677 380 q 651 363 662 363 l 651 363 m 738 363 q 720 372 728 363 q 711 391 711 380 q 719 407 711 399 q 738 416 727 416 q 754 408 746 416 q 764 391 764 400 q 755 372 764 380 q 738 363 749 363 l 738 363 m 825 363 q 807 372 815 363 q 798 391 798 380 q 806 407 798 399 q 825 416 814 416 q 841 408 833 416 q 850 391 850 400 q 842 372 850 380 q 825 363 836 363 l 825 363 m 911 363 q 894 372 902 363 q 884 391 884 380 q 892 407 884 399 q 911 416 901 416 q 928 408 920 416 q 937 391 937 400 q 929 372 937 380 q 911 363 922 363 l 911 363 m 998 363 q 981 372 989 363 q 971 391 971 380 q 979 407 971 399 q 998 416 987 416 q 1015 408 1006 416 q 1024 391 1024 400 q 1016 372 1024 380 q 998 363 1009 363 l 998 363 m 43 450 q 26 458 34 450 q 16 477 16 467 q 24 494 16 486 q 43 503 33 503 q 60 495 52 503 q 69 477 69 487 q 61 458 69 467 q 43 450 54 450 l 43 450 m 130 450 q 113 458 121 450 q 103 477 103 467 q 111 494 103 486 q 130 503 119 503 q 146 495 138 503 q 156 477 156 487 q 148 458 156 467 q 130 450 141 450 l 130 450 m 217 450 q 199 458 208 450 q 190 477 190 467 q 198 494 190 486 q 217 503 206 503 q 233 495 225 503 q 243 477 243 487 q 235 458 243 467 q 217 450 228 450 l 217 450 m 304 450 q 286 458 294 450 q 277 477 277 467 q 285 494 277 486 q 304 503 293 503 q 320 495 312 503 q 330 477 330 487 q 321 458 330 467 q 304 450 315 450 l 304 450 m 391 450 q 373 458 381 450 q 363 477 363 467 q 372 494 363 486 q 391 503 380 503 q 407 495 399 503 q 416 477 416 487 q 408 458 416 467 q 391 450 401 450 l 391 450 m 477 450 q 460 458 468 450 q 450 477 450 467 q 458 494 450 486 q 477 503 467 503 q 494 495 486 503 q 503 477 503 487 q 495 458 503 467 q 477 450 488 450 l 477 450 m 564 450 q 547 458 555 450 q 537 477 537 467 q 545 494 537 486 q 564 503 553 503 q 581 495 572 503 q 590 477 590 487 q 582 458 590 467 q 564 450 575 450 l 564 450 m 651 450 q 633 458 642 450 q 624 477 624 467 q 632 494 624 486 q 651 503 640 503 q 667 495 659 503 q 677 477 677 487 q 669 458 677 467 q 651 450 662 450 l 651 450 m 738 450 q 720 458 728 450 q 711 477 711 467 q 719 494 711 486 q 738 503 727 503 q 754 495 746 503 q 764 477 764 487 q 755 458 764 467 q 738 450 749 450 l 738 450 m 825 450 q 807 458 815 450 q 798 477 798 467 q 806 494 798 486 q 825 503 814 503 q 841 495 833 503 q 850 477 850 487 q 842 458 850 467 q 825 450 836 450 l 825 450 m 911 450 q 894 458 902 450 q 884 477 884 467 q 892 494 884 486 q 911 503 901 503 q 928 495 920 503 q 937 477 937 487 q 929 458 937 467 q 911 450 922 450 l 911 450 m 43 529 q 20 538 31 529 q 8 564 8 549 q 18 586 8 575 q 43 598 30 598 q 65 589 54 598 q 77 564 77 576 q 68 538 77 549 q 43 529 57 529 l 43 529 m 130 529 q 107 538 118 529 q 95 564 95 549 q 104 586 95 575 q 130 598 117 598 q 152 589 141 598 q 164 564 164 576 q 155 538 164 549 q 130 529 144 529 l 130 529 m 217 529 q 194 538 205 529 q 182 564 182 549 q 191 586 182 575 q 217 598 203 598 q 239 589 228 598 q 251 564 251 576 q 241 538 251 549 q 217 529 231 529 l 217 529 m 43 616 q 20 625 31 616 q 8 651 8 636 q 18 673 8 662 q 43 685 30 685 q 65 675 54 685 q 77 651 77 663 q 68 625 77 636 q 43 616 57 616 l 43 616 m 130 616 q 107 625 118 616 q 95 651 95 636 q 104 673 95 662 q 130 685 117 685 q 152 675 141 685 q 164 651 164 663 q 155 625 164 636 q 130 616 144 616 l 130 616 m 217 616 q 194 625 205 616 q 182 651 182 636 q 191 673 182 662 q 217 685 203 685 q 239 675 228 685 q 251 651 251 663 q 241 625 251 636 q 217 616 231 616 l 217 616 m 43 694 q 12 707 24 694 q 0 738 0 719 q 12 768 0 755 q 43 781 24 781 q 73 768 61 781 q 87 738 87 755 q 73 707 87 719 q 43 694 61 694 l 43 694 m 130 694 q 99 707 111 694 q 87 738 87 719 q 99 768 87 755 q 130 781 111 781 q 160 768 148 781 q 174 738 174 755 q 160 707 174 719 q 130 694 148 694 l 130 694 m 217 694 q 186 707 198 694 q 174 738 174 719 q 186 768 174 755 q 217 781 198 781 q 247 768 235 781 q 260 738 260 755 q 247 707 260 719 q 217 694 235 694 l 217 694 m 304 694 q 273 707 285 694 q 260 738 260 719 q 273 768 260 755 q 304 781 285 781 q 334 768 321 781 q 347 738 347 755 q 334 707 347 719 q 304 694 321 694 l 304 694 m 391 694 q 359 707 372 694 q 347 738 347 719 q 359 768 347 755 q 391 781 372 781 q 420 768 408 781 q 434 738 434 755 q 420 707 434 719 q 391 694 408 694 l 391 694 m 477 694 q 446 707 458 694 q 434 738 434 719 q 446 768 434 755 q 477 781 458 781 q 507 768 495 781 q 521 738 521 755 q 507 707 521 719 q 477 694 495 694 l 477 694 m 564 694 q 533 707 545 694 q 521 738 521 719 q 533 768 521 755 q 564 781 545 781 q 594 768 582 781 q 608 738 608 755 q 594 707 608 719 q 564 694 582 694 l 564 694 m 651 694 q 620 707 632 694 q 608 738 608 719 q 620 768 608 755 q 651 781 632 781 q 681 768 669 781 q 694 738 694 755 q 681 707 694 719 q 651 694 669 694 l 651 694 m 738 694 q 707 707 719 694 q 694 738 694 719 q 707 768 694 755 q 738 781 719 781 q 768 768 755 781 q 781 738 781 755 q 768 707 781 719 q 738 694 755 694 l 738 694 m 825 694 q 793 707 806 694 q 781 738 781 719 q 793 768 781 755 q 825 781 806 781 q 854 768 842 781 q 868 738 868 755 q 854 707 868 719 q 825 694 842 694 l 825 694 m 911 694 q 880 707 892 694 q 868 738 868 719 q 880 768 868 755 q 911 781 892 781 q 941 768 929 781 q 955 738 955 755 q 941 707 955 719 q 911 694 929 694 l 911 694 m 998 694 q 967 707 979 694 q 955 738 955 719 q 967 768 955 755 q 998 781 979 781 q 1028 768 1016 781 q 1042 738 1042 755 q 1028 707 1042 719 q 998 694 1016 694 l 998 694 m 1085 694 q 1054 707 1066 694 q 1042 738 1042 719 q 1054 768 1042 755 q 1085 781 1066 781 q 1115 768 1103 781 q 1128 738 1128 755 q 1115 707 1128 719 q 1085 694 1103 694 l 1085 694 m 43 781 q 12 793 24 781 q 0 825 0 806 q 12 854 0 842 q 43 868 24 868 q 73 854 61 868 q 87 825 87 842 q 73 793 87 806 q 43 781 61 781 l 43 781 m 130 781 q 99 793 111 781 q 87 825 87 806 q 99 854 87 842 q 130 868 111 868 q 160 854 148 868 q 174 825 174 842 q 160 793 174 806 q 130 781 148 781 l 130 781 m 217 781 q 186 793 198 781 q 174 825 174 806 q 186 854 174 842 q 217 868 198 868 q 247 854 235 868 q 260 825 260 842 q 247 793 260 806 q 217 781 235 781 l 217 781 m 304 781 q 273 793 285 781 q 260 825 260 806 q 273 854 260 842 q 304 868 285 868 q 334 854 321 868 q 347 825 347 842 q 334 793 347 806 q 304 781 321 781 l 304 781 m 391 781 q 359 793 372 781 q 347 825 347 806 q 359 854 347 842 q 391 868 372 868 q 420 854 408 868 q 434 825 434 842 q 420 793 434 806 q 391 781 408 781 l 391 781 m 477 781 q 446 793 458 781 q 434 825 434 806 q 446 854 434 842 q 477 868 458 868 q 507 854 495 868 q 521 825 521 842 q 507 793 521 806 q 477 781 495 781 l 477 781 m 564 781 q 533 793 545 781 q 521 825 521 806 q 533 854 521 842 q 564 868 545 868 q 594 854 582 868 q 608 825 608 842 q 594 793 608 806 q 564 781 582 781 l 564 781 m 651 781 q 620 793 632 781 q 608 825 608 806 q 620 854 608 842 q 651 868 632 868 q 681 854 669 868 q 694 825 694 842 q 681 793 694 806 q 651 781 669 781 l 651 781 m 738 781 q 707 793 719 781 q 694 825 694 806 q 707 854 694 842 q 738 868 719 868 q 768 854 755 868 q 781 825 781 842 q 768 793 781 806 q 738 781 755 781 l 738 781 m 825 781 q 793 793 806 781 q 781 825 781 806 q 793 854 781 842 q 825 868 806 868 q 854 854 842 868 q 868 825 868 842 q 854 793 868 806 q 825 781 842 781 l 825 781 m 911 781 q 880 793 892 781 q 868 825 868 806 q 880 854 868 842 q 911 868 892 868 q 941 854 929 868 q 955 825 955 842 q 941 793 955 806 q 911 781 929 781 l 911 781 m 998 781 q 967 793 979 781 q 955 825 955 806 q 967 854 955 842 q 998 868 979 868 q 1028 854 1016 868 q 1042 825 1042 842 q 1028 793 1042 806 q 998 781 1016 781 l 998 781 m 1085 781 q 1054 793 1066 781 q 1042 825 1042 806 q 1054 854 1042 842 q 1085 868 1066 868 q 1115 854 1103 868 q 1128 825 1128 842 q 1115 793 1128 806 q 1085 781 1103 781 l 1085 781 z "},"6":{"ha":1302,"x_min":8,"x_max":1128,"o":"m 217 0 q 186 12 198 0 q 174 43 174 24 q 186 73 174 61 q 217 87 198 87 q 247 73 235 87 q 260 43 260 61 q 247 12 260 24 q 217 0 235 0 l 217 0 m 304 0 q 273 12 285 0 q 260 43 260 24 q 273 73 260 61 q 304 87 285 87 q 334 73 321 87 q 347 43 347 61 q 334 12 347 24 q 304 0 321 0 l 304 0 m 391 0 q 359 12 372 0 q 347 43 347 24 q 359 73 347 61 q 391 87 372 87 q 420 73 408 87 q 434 43 434 61 q 420 12 434 24 q 391 0 408 0 l 391 0 m 477 0 q 446 12 458 0 q 434 43 434 24 q 446 73 434 61 q 477 87 458 87 q 507 73 495 87 q 521 43 521 61 q 507 12 521 24 q 477 0 495 0 l 477 0 m 564 0 q 533 12 545 0 q 521 43 521 24 q 533 73 521 61 q 564 87 545 87 q 594 73 582 87 q 608 43 608 61 q 594 12 608 24 q 564 0 582 0 l 564 0 m 651 0 q 620 12 632 0 q 608 43 608 24 q 620 73 608 61 q 651 87 632 87 q 681 73 669 87 q 694 43 694 61 q 681 12 694 24 q 651 0 669 0 l 651 0 m 738 0 q 707 12 719 0 q 694 43 694 24 q 707 73 694 61 q 738 87 719 87 q 768 73 755 87 q 781 43 781 61 q 768 12 781 24 q 738 0 755 0 l 738 0 m 825 0 q 793 12 806 0 q 781 43 781 24 q 793 73 781 61 q 825 87 806 87 q 854 73 842 87 q 868 43 868 61 q 854 12 868 24 q 825 0 842 0 l 825 0 m 911 0 q 880 12 892 0 q 868 43 868 24 q 880 73 868 61 q 911 87 892 87 q 941 73 929 87 q 955 43 955 61 q 941 12 955 24 q 911 0 929 0 l 911 0 m 130 87 q 99 99 111 87 q 87 130 87 111 q 99 160 87 148 q 130 174 111 174 q 160 160 148 174 q 174 130 174 148 q 160 99 174 111 q 130 87 148 87 l 130 87 m 217 87 q 186 99 198 87 q 174 130 174 111 q 186 160 174 148 q 217 174 198 174 q 247 160 235 174 q 260 130 260 148 q 247 99 260 111 q 217 87 235 87 l 217 87 m 304 87 q 273 99 285 87 q 260 130 260 111 q 273 160 260 148 q 304 174 285 174 q 334 160 321 174 q 347 130 347 148 q 334 99 347 111 q 304 87 321 87 l 304 87 m 391 87 q 359 99 372 87 q 347 130 347 111 q 359 160 347 148 q 391 174 372 174 q 420 160 408 174 q 434 130 434 148 q 420 99 434 111 q 391 87 408 87 l 391 87 m 477 87 q 446 99 458 87 q 434 130 434 111 q 446 160 434 148 q 477 174 458 174 q 507 160 495 174 q 521 130 521 148 q 507 99 521 111 q 477 87 495 87 l 477 87 m 564 87 q 533 99 545 87 q 521 130 521 111 q 533 160 521 148 q 564 174 545 174 q 594 160 582 174 q 608 130 608 148 q 594 99 608 111 q 564 87 582 87 l 564 87 m 651 87 q 620 99 632 87 q 608 130 608 111 q 620 160 608 148 q 651 174 632 174 q 681 160 669 174 q 694 130 694 148 q 681 99 694 111 q 651 87 669 87 l 651 87 m 738 87 q 707 99 719 87 q 694 130 694 111 q 707 160 694 148 q 738 174 719 174 q 768 160 755 174 q 781 130 781 148 q 768 99 781 111 q 738 87 755 87 l 738 87 m 825 87 q 793 99 806 87 q 781 130 781 111 q 793 160 781 148 q 825 174 806 174 q 854 160 842 174 q 868 130 868 148 q 854 99 868 111 q 825 87 842 87 l 825 87 m 911 87 q 880 99 892 87 q 868 130 868 111 q 880 160 868 148 q 911 174 892 174 q 941 160 929 174 q 955 130 955 148 q 941 99 955 111 q 911 87 929 87 l 911 87 m 998 87 q 967 99 979 87 q 955 130 955 111 q 967 160 955 148 q 998 174 979 174 q 1028 160 1016 174 q 1042 130 1042 148 q 1028 99 1042 111 q 998 87 1016 87 l 998 87 m 43 182 q 20 191 31 182 q 8 217 8 202 q 18 239 8 228 q 43 251 30 251 q 65 241 54 251 q 77 217 77 229 q 68 191 77 202 q 43 182 57 182 l 43 182 m 130 182 q 107 191 118 182 q 95 217 95 202 q 104 239 95 228 q 130 251 117 251 q 152 241 141 251 q 164 217 164 229 q 155 191 164 202 q 130 182 144 182 l 130 182 m 217 182 q 194 191 205 182 q 182 217 182 202 q 191 239 182 228 q 217 251 203 251 q 239 241 228 251 q 251 217 251 229 q 241 191 251 202 q 217 182 231 182 l 217 182 m 304 182 q 281 191 292 182 q 269 217 269 202 q 278 239 269 228 q 304 251 290 251 q 326 241 315 251 q 338 217 338 229 q 328 191 338 202 q 304 182 317 182 l 304 182 m 825 182 q 802 191 812 182 q 789 217 789 202 q 799 239 789 228 q 825 251 811 251 q 846 241 836 251 q 859 217 859 229 q 849 191 859 202 q 825 182 838 182 l 825 182 m 911 182 q 888 191 899 182 q 876 217 876 202 q 886 239 876 228 q 911 251 898 251 q 933 241 922 251 q 945 217 945 229 q 936 191 945 202 q 911 182 925 182 l 911 182 m 998 182 q 975 191 986 182 q 963 217 963 202 q 972 239 963 228 q 998 251 985 251 q 1020 241 1009 251 q 1032 217 1032 229 q 1023 191 1032 202 q 998 182 1012 182 l 998 182 m 1085 182 q 1062 191 1073 182 q 1050 217 1050 202 q 1059 239 1050 228 q 1085 251 1072 251 q 1107 241 1096 251 q 1119 217 1119 229 q 1109 191 1119 202 q 1085 182 1099 182 l 1085 182 m 43 269 q 20 278 31 269 q 8 304 8 289 q 18 326 8 315 q 43 338 30 338 q 65 328 54 338 q 77 304 77 316 q 68 278 77 289 q 43 269 57 269 l 43 269 m 130 269 q 107 278 118 269 q 95 304 95 289 q 104 326 95 315 q 130 338 117 338 q 152 328 141 338 q 164 304 164 316 q 155 278 164 289 q 130 269 144 269 l 130 269 m 217 269 q 194 278 205 269 q 182 304 182 289 q 191 326 182 315 q 217 338 203 338 q 239 328 228 338 q 251 304 251 316 q 241 278 251 289 q 217 269 231 269 l 217 269 m 911 269 q 888 278 899 269 q 876 304 876 289 q 886 326 876 315 q 911 338 898 338 q 933 328 922 338 q 945 304 945 316 q 936 278 945 289 q 911 269 925 269 l 911 269 m 998 269 q 975 278 986 269 q 963 304 963 289 q 972 326 963 315 q 998 338 985 338 q 1020 328 1009 338 q 1032 304 1032 316 q 1023 278 1032 289 q 998 269 1012 269 l 998 269 m 1085 269 q 1062 278 1073 269 q 1050 304 1050 289 q 1059 326 1050 315 q 1085 338 1072 338 q 1107 328 1096 338 q 1119 304 1119 316 q 1109 278 1119 289 q 1085 269 1099 269 l 1085 269 m 43 363 q 26 372 34 363 q 16 391 16 380 q 24 407 16 399 q 43 416 33 416 q 60 408 52 416 q 69 391 69 400 q 61 372 69 380 q 43 363 54 363 l 43 363 m 130 363 q 113 372 121 363 q 103 391 103 380 q 111 407 103 399 q 130 416 119 416 q 146 408 138 416 q 156 391 156 400 q 148 372 156 380 q 130 363 141 363 l 130 363 m 217 363 q 199 372 208 363 q 190 391 190 380 q 198 407 190 399 q 217 416 206 416 q 233 408 225 416 q 243 391 243 400 q 235 372 243 380 q 217 363 228 363 l 217 363 m 304 363 q 286 372 294 363 q 277 391 277 380 q 285 407 277 399 q 304 416 293 416 q 320 408 312 416 q 330 391 330 400 q 321 372 330 380 q 304 363 315 363 l 304 363 m 391 363 q 373 372 381 363 q 363 391 363 380 q 372 407 363 399 q 391 416 380 416 q 407 408 399 416 q 416 391 416 400 q 408 372 416 380 q 391 363 401 363 l 391 363 m 477 363 q 460 372 468 363 q 450 391 450 380 q 458 407 450 399 q 477 416 467 416 q 494 408 486 416 q 503 391 503 400 q 495 372 503 380 q 477 363 488 363 l 477 363 m 564 363 q 547 372 555 363 q 537 391 537 380 q 545 407 537 399 q 564 416 553 416 q 581 408 572 416 q 590 391 590 400 q 582 372 590 380 q 564 363 575 363 l 564 363 m 651 363 q 633 372 642 363 q 624 391 624 380 q 632 407 624 399 q 651 416 640 416 q 667 408 659 416 q 677 391 677 400 q 669 372 677 380 q 651 363 662 363 l 651 363 m 738 363 q 720 372 728 363 q 711 391 711 380 q 719 407 711 399 q 738 416 727 416 q 754 408 746 416 q 764 391 764 400 q 755 372 764 380 q 738 363 749 363 l 738 363 m 825 363 q 807 372 815 363 q 798 391 798 380 q 806 407 798 399 q 825 416 814 416 q 841 408 833 416 q 850 391 850 400 q 842 372 850 380 q 825 363 836 363 l 825 363 m 911 363 q 894 372 902 363 q 884 391 884 380 q 892 407 884 399 q 911 416 901 416 q 928 408 920 416 q 937 391 937 400 q 929 372 937 380 q 911 363 922 363 l 911 363 m 998 363 q 981 372 989 363 q 971 391 971 380 q 979 407 971 399 q 998 416 987 416 q 1015 408 1006 416 q 1024 391 1024 400 q 1016 372 1024 380 q 998 363 1009 363 l 998 363 m 43 450 q 26 458 34 450 q 16 477 16 467 q 24 494 16 486 q 43 503 33 503 q 60 495 52 503 q 69 477 69 487 q 61 458 69 467 q 43 450 54 450 l 43 450 m 130 450 q 113 458 121 450 q 103 477 103 467 q 111 494 103 486 q 130 503 119 503 q 146 495 138 503 q 156 477 156 487 q 148 458 156 467 q 130 450 141 450 l 130 450 m 217 450 q 199 458 208 450 q 190 477 190 467 q 198 494 190 486 q 217 503 206 503 q 233 495 225 503 q 243 477 243 487 q 235 458 243 467 q 217 450 228 450 l 217 450 m 304 450 q 286 458 294 450 q 277 477 277 467 q 285 494 277 486 q 304 503 293 503 q 320 495 312 503 q 330 477 330 487 q 321 458 330 467 q 304 450 315 450 l 304 450 m 391 450 q 373 458 381 450 q 363 477 363 467 q 372 494 363 486 q 391 503 380 503 q 407 495 399 503 q 416 477 416 487 q 408 458 416 467 q 391 450 401 450 l 391 450 m 477 450 q 460 458 468 450 q 450 477 450 467 q 458 494 450 486 q 477 503 467 503 q 494 495 486 503 q 503 477 503 487 q 495 458 503 467 q 477 450 488 450 l 477 450 m 564 450 q 547 458 555 450 q 537 477 537 467 q 545 494 537 486 q 564 503 553 503 q 581 495 572 503 q 590 477 590 487 q 582 458 590 467 q 564 450 575 450 l 564 450 m 651 450 q 633 458 642 450 q 624 477 624 467 q 632 494 624 486 q 651 503 640 503 q 667 495 659 503 q 677 477 677 487 q 669 458 677 467 q 651 450 662 450 l 651 450 m 738 450 q 720 458 728 450 q 711 477 711 467 q 719 494 711 486 q 738 503 727 503 q 754 495 746 503 q 764 477 764 487 q 755 458 764 467 q 738 450 749 450 l 738 450 m 825 450 q 807 458 815 450 q 798 477 798 467 q 806 494 798 486 q 825 503 814 503 q 841 495 833 503 q 850 477 850 487 q 842 458 850 467 q 825 450 836 450 l 825 450 m 911 450 q 894 458 902 450 q 884 477 884 467 q 892 494 884 486 q 911 503 901 503 q 928 495 920 503 q 937 477 937 487 q 929 458 937 467 q 911 450 922 450 l 911 450 m 43 529 q 20 538 31 529 q 8 564 8 549 q 18 586 8 575 q 43 598 30 598 q 65 589 54 598 q 77 564 77 576 q 68 538 77 549 q 43 529 57 529 l 43 529 m 130 529 q 107 538 118 529 q 95 564 95 549 q 104 586 95 575 q 130 598 117 598 q 152 589 141 598 q 164 564 164 576 q 155 538 164 549 q 130 529 144 529 l 130 529 m 217 529 q 194 538 205 529 q 182 564 182 549 q 191 586 182 575 q 217 598 203 598 q 239 589 228 598 q 251 564 251 576 q 241 538 251 549 q 217 529 231 529 l 217 529 m 43 616 q 20 625 31 616 q 8 651 8 636 q 18 673 8 662 q 43 685 30 685 q 65 675 54 685 q 77 651 77 663 q 68 625 77 636 q 43 616 57 616 l 43 616 m 130 616 q 107 625 118 616 q 95 651 95 636 q 104 673 95 662 q 130 685 117 685 q 152 675 141 685 q 164 651 164 663 q 155 625 164 636 q 130 616 144 616 l 130 616 m 217 616 q 194 625 205 616 q 182 651 182 636 q 191 673 182 662 q 217 685 203 685 q 239 675 228 685 q 251 651 251 663 q 241 625 251 636 q 217 616 231 616 l 217 616 m 304 616 q 281 625 292 616 q 269 651 269 636 q 278 673 269 662 q 304 685 290 685 q 326 675 315 685 q 338 651 338 663 q 328 625 338 636 q 304 616 317 616 l 304 616 m 130 694 q 99 707 111 694 q 87 738 87 719 q 99 768 87 755 q 130 781 111 781 q 160 768 148 781 q 174 738 174 755 q 160 707 174 719 q 130 694 148 694 l 130 694 m 217 694 q 186 707 198 694 q 174 738 174 719 q 186 768 174 755 q 217 781 198 781 q 247 768 235 781 q 260 738 260 755 q 247 707 260 719 q 217 694 235 694 l 217 694 m 304 694 q 273 707 285 694 q 260 738 260 719 q 273 768 260 755 q 304 781 285 781 q 334 768 321 781 q 347 738 347 755 q 334 707 347 719 q 304 694 321 694 l 304 694 m 391 694 q 359 707 372 694 q 347 738 347 719 q 359 768 347 755 q 391 781 372 781 q 420 768 408 781 q 434 738 434 755 q 420 707 434 719 q 391 694 408 694 l 391 694 m 477 694 q 446 707 458 694 q 434 738 434 719 q 446 768 434 755 q 477 781 458 781 q 507 768 495 781 q 521 738 521 755 q 507 707 521 719 q 477 694 495 694 l 477 694 m 564 694 q 533 707 545 694 q 521 738 521 719 q 533 768 521 755 q 564 781 545 781 q 594 768 582 781 q 608 738 608 755 q 594 707 608 719 q 564 694 582 694 l 564 694 m 651 694 q 620 707 632 694 q 608 738 608 719 q 620 768 608 755 q 651 781 632 781 q 681 768 669 781 q 694 738 694 755 q 681 707 694 719 q 651 694 669 694 l 651 694 m 738 694 q 707 707 719 694 q 694 738 694 719 q 707 768 694 755 q 738 781 719 781 q 768 768 755 781 q 781 738 781 755 q 768 707 781 719 q 738 694 755 694 l 738 694 m 825 694 q 793 707 806 694 q 781 738 781 719 q 793 768 781 755 q 825 781 806 781 q 854 768 842 781 q 868 738 868 755 q 854 707 868 719 q 825 694 842 694 l 825 694 m 911 694 q 880 707 892 694 q 868 738 868 719 q 880 768 868 755 q 911 781 892 781 q 941 768 929 781 q 955 738 955 755 q 941 707 955 719 q 911 694 929 694 l 911 694 m 998 694 q 967 707 979 694 q 955 738 955 719 q 967 768 955 755 q 998 781 979 781 q 1028 768 1016 781 q 1042 738 1042 755 q 1028 707 1042 719 q 998 694 1016 694 l 998 694 m 1085 694 q 1054 707 1066 694 q 1042 738 1042 719 q 1054 768 1042 755 q 1085 781 1066 781 q 1115 768 1103 781 q 1128 738 1128 755 q 1115 707 1128 719 q 1085 694 1103 694 l 1085 694 m 217 781 q 186 793 198 781 q 174 825 174 806 q 186 854 174 842 q 217 868 198 868 q 247 854 235 868 q 260 825 260 842 q 247 793 260 806 q 217 781 235 781 l 217 781 m 304 781 q 273 793 285 781 q 260 825 260 806 q 273 854 260 842 q 304 868 285 868 q 334 854 321 868 q 347 825 347 842 q 334 793 347 806 q 304 781 321 781 l 304 781 m 391 781 q 359 793 372 781 q 347 825 347 806 q 359 854 347 842 q 391 868 372 868 q 420 854 408 868 q 434 825 434 842 q 420 793 434 806 q 391 781 408 781 l 391 781 m 477 781 q 446 793 458 781 q 434 825 434 806 q 446 854 434 842 q 477 868 458 868 q 507 854 495 868 q 521 825 521 842 q 507 793 521 806 q 477 781 495 781 l 477 781 m 564 781 q 533 793 545 781 q 521 825 521 806 q 533 854 521 842 q 564 868 545 868 q 594 854 582 868 q 608 825 608 842 q 594 793 608 806 q 564 781 582 781 l 564 781 m 651 781 q 620 793 632 781 q 608 825 608 806 q 620 854 608 842 q 651 868 632 868 q 681 854 669 868 q 694 825 694 842 q 681 793 694 806 q 651 781 669 781 l 651 781 m 738 781 q 707 793 719 781 q 694 825 694 806 q 707 854 694 842 q 738 868 719 868 q 768 854 755 868 q 781 825 781 842 q 768 793 781 806 q 738 781 755 781 l 738 781 m 825 781 q 793 793 806 781 q 781 825 781 806 q 793 854 781 842 q 825 868 806 868 q 854 854 842 868 q 868 825 868 842 q 854 793 868 806 q 825 781 842 781 l 825 781 m 911 781 q 880 793 892 781 q 868 825 868 806 q 880 854 868 842 q 911 868 892 868 q 941 854 929 868 q 955 825 955 842 q 941 793 955 806 q 911 781 929 781 l 911 781 m 998 781 q 967 793 979 781 q 955 825 955 806 q 967 854 955 842 q 998 868 979 868 q 1028 854 1016 868 q 1042 825 1042 842 q 1028 793 1042 806 q 998 781 1016 781 l 998 781 m 1085 781 q 1054 793 1066 781 q 1042 825 1042 806 q 1054 854 1042 842 q 1085 868 1066 868 q 1115 854 1103 868 q 1128 825 1128 842 q 1115 793 1128 806 q 1085 781 1103 781 l 1085 781 z "},"7":{"ha":1302,"x_min":0,"x_max":1128,"o":"m 477 0 q 446 12 458 0 q 434 43 434 24 q 446 73 434 61 q 477 87 458 87 q 507 73 495 87 q 521 43 521 61 q 507 12 521 24 q 477 0 495 0 l 477 0 m 564 0 q 533 12 545 0 q 521 43 521 24 q 533 73 521 61 q 564 87 545 87 q 594 73 582 87 q 608 43 608 61 q 594 12 608 24 q 564 0 582 0 l 564 0 m 651 0 q 620 12 632 0 q 608 43 608 24 q 620 73 608 61 q 651 87 632 87 q 681 73 669 87 q 694 43 694 61 q 681 12 694 24 q 651 0 669 0 l 651 0 m 477 87 q 446 99 458 87 q 434 130 434 111 q 446 160 434 148 q 477 174 458 174 q 507 160 495 174 q 521 130 521 148 q 507 99 521 111 q 477 87 495 87 l 477 87 m 564 87 q 533 99 545 87 q 521 130 521 111 q 533 160 521 148 q 564 174 545 174 q 594 160 582 174 q 608 130 608 148 q 594 99 608 111 q 564 87 582 87 l 564 87 m 651 87 q 620 99 632 87 q 608 130 608 111 q 620 160 608 148 q 651 174 632 174 q 681 160 669 174 q 694 130 694 148 q 681 99 694 111 q 651 87 669 87 l 651 87 m 477 182 q 454 191 465 182 q 442 217 442 202 q 452 239 442 228 q 477 251 464 251 q 499 241 488 251 q 511 217 511 229 q 502 191 511 202 q 477 182 491 182 l 477 182 m 564 182 q 541 191 552 182 q 529 217 529 202 q 538 239 529 228 q 564 251 551 251 q 586 241 575 251 q 598 217 598 229 q 589 191 598 202 q 564 182 578 182 l 564 182 m 651 182 q 628 191 639 182 q 616 217 616 202 q 625 239 616 228 q 651 251 637 251 q 673 241 662 251 q 685 217 685 229 q 675 191 685 202 q 651 182 665 182 l 651 182 m 564 269 q 541 278 552 269 q 529 304 529 289 q 538 326 529 315 q 564 338 551 338 q 586 328 575 338 q 598 304 598 316 q 589 278 598 289 q 564 269 578 269 l 564 269 m 651 269 q 628 278 639 269 q 616 304 616 289 q 625 326 616 315 q 651 338 637 338 q 673 328 662 338 q 685 304 685 316 q 675 278 685 289 q 651 269 665 269 l 651 269 m 738 269 q 715 278 726 269 q 703 304 703 289 q 712 326 703 315 q 738 338 724 338 q 760 328 749 338 q 772 304 772 316 q 762 278 772 289 q 738 269 751 269 l 738 269 m 564 363 q 547 372 555 363 q 537 391 537 380 q 545 407 537 399 q 564 416 553 416 q 581 408 572 416 q 590 391 590 400 q 582 372 590 380 q 564 363 575 363 l 564 363 m 651 363 q 633 372 642 363 q 624 391 624 380 q 632 407 624 399 q 651 416 640 416 q 667 408 659 416 q 677 391 677 400 q 669 372 677 380 q 651 363 662 363 l 651 363 m 738 363 q 720 372 728 363 q 711 391 711 380 q 719 407 711 399 q 738 416 727 416 q 754 408 746 416 q 764 391 764 400 q 755 372 764 380 q 738 363 749 363 l 738 363 m 651 450 q 633 458 642 450 q 624 477 624 467 q 632 494 624 486 q 651 503 640 503 q 667 495 659 503 q 677 477 677 487 q 669 458 677 467 q 651 450 662 450 l 651 450 m 738 450 q 720 458 728 450 q 711 477 711 467 q 719 494 711 486 q 738 503 727 503 q 754 495 746 503 q 764 477 764 487 q 755 458 764 467 q 738 450 749 450 l 738 450 m 825 450 q 807 458 815 450 q 798 477 798 467 q 806 494 798 486 q 825 503 814 503 q 841 495 833 503 q 850 477 850 487 q 842 458 850 467 q 825 450 836 450 l 825 450 m 738 529 q 715 538 726 529 q 703 564 703 549 q 712 586 703 575 q 738 598 724 598 q 760 589 749 598 q 772 564 772 576 q 762 538 772 549 q 738 529 751 529 l 738 529 m 825 529 q 802 538 812 529 q 789 564 789 549 q 799 586 789 575 q 825 598 811 598 q 846 589 836 598 q 859 564 859 576 q 849 538 859 549 q 825 529 838 529 l 825 529 m 911 529 q 888 538 899 529 q 876 564 876 549 q 886 586 876 575 q 911 598 898 598 q 933 589 922 598 q 945 564 945 576 q 936 538 945 549 q 911 529 925 529 l 911 529 m 825 616 q 802 625 812 616 q 789 651 789 636 q 799 673 789 662 q 825 685 811 685 q 846 675 836 685 q 859 651 859 663 q 849 625 859 636 q 825 616 838 616 l 825 616 m 911 616 q 888 625 899 616 q 876 651 876 636 q 886 673 876 662 q 911 685 898 685 q 933 675 922 685 q 945 651 945 663 q 936 625 945 636 q 911 616 925 616 l 911 616 m 998 616 q 975 625 986 616 q 963 651 963 636 q 972 673 963 662 q 998 685 985 685 q 1020 675 1009 685 q 1032 651 1032 663 q 1023 625 1032 636 q 998 616 1012 616 l 998 616 m 43 694 q 12 707 24 694 q 0 738 0 719 q 12 768 0 755 q 43 781 24 781 q 73 768 61 781 q 87 738 87 755 q 73 707 87 719 q 43 694 61 694 l 43 694 m 130 694 q 99 707 111 694 q 87 738 87 719 q 99 768 87 755 q 130 781 111 781 q 160 768 148 781 q 174 738 174 755 q 160 707 174 719 q 130 694 148 694 l 130 694 m 217 694 q 186 707 198 694 q 174 738 174 719 q 186 768 174 755 q 217 781 198 781 q 247 768 235 781 q 260 738 260 755 q 247 707 260 719 q 217 694 235 694 l 217 694 m 304 694 q 273 707 285 694 q 260 738 260 719 q 273 768 260 755 q 304 781 285 781 q 334 768 321 781 q 347 738 347 755 q 334 707 347 719 q 304 694 321 694 l 304 694 m 391 694 q 359 707 372 694 q 347 738 347 719 q 359 768 347 755 q 391 781 372 781 q 420 768 408 781 q 434 738 434 755 q 420 707 434 719 q 391 694 408 694 l 391 694 m 477 694 q 446 707 458 694 q 434 738 434 719 q 446 768 434 755 q 477 781 458 781 q 507 768 495 781 q 521 738 521 755 q 507 707 521 719 q 477 694 495 694 l 477 694 m 564 694 q 533 707 545 694 q 521 738 521 719 q 533 768 521 755 q 564 781 545 781 q 594 768 582 781 q 608 738 608 755 q 594 707 608 719 q 564 694 582 694 l 564 694 m 651 694 q 620 707 632 694 q 608 738 608 719 q 620 768 608 755 q 651 781 632 781 q 681 768 669 781 q 694 738 694 755 q 681 707 694 719 q 651 694 669 694 l 651 694 m 738 694 q 707 707 719 694 q 694 738 694 719 q 707 768 694 755 q 738 781 719 781 q 768 768 755 781 q 781 738 781 755 q 768 707 781 719 q 738 694 755 694 l 738 694 m 825 694 q 793 707 806 694 q 781 738 781 719 q 793 768 781 755 q 825 781 806 781 q 854 768 842 781 q 868 738 868 755 q 854 707 868 719 q 825 694 842 694 l 825 694 m 911 694 q 880 707 892 694 q 868 738 868 719 q 880 768 868 755 q 911 781 892 781 q 941 768 929 781 q 955 738 955 755 q 941 707 955 719 q 911 694 929 694 l 911 694 m 998 694 q 967 707 979 694 q 955 738 955 719 q 967 768 955 755 q 998 781 979 781 q 1028 768 1016 781 q 1042 738 1042 755 q 1028 707 1042 719 q 998 694 1016 694 l 998 694 m 1085 694 q 1054 707 1066 694 q 1042 738 1042 719 q 1054 768 1042 755 q 1085 781 1066 781 q 1115 768 1103 781 q 1128 738 1128 755 q 1115 707 1128 719 q 1085 694 1103 694 l 1085 694 m 43 781 q 12 793 24 781 q 0 825 0 806 q 12 854 0 842 q 43 868 24 868 q 73 854 61 868 q 87 825 87 842 q 73 793 87 806 q 43 781 61 781 l 43 781 m 130 781 q 99 793 111 781 q 87 825 87 806 q 99 854 87 842 q 130 868 111 868 q 160 854 148 868 q 174 825 174 842 q 160 793 174 806 q 130 781 148 781 l 130 781 m 217 781 q 186 793 198 781 q 174 825 174 806 q 186 854 174 842 q 217 868 198 868 q 247 854 235 868 q 260 825 260 842 q 247 793 260 806 q 217 781 235 781 l 217 781 m 304 781 q 273 793 285 781 q 260 825 260 806 q 273 854 260 842 q 304 868 285 868 q 334 854 321 868 q 347 825 347 842 q 334 793 347 806 q 304 781 321 781 l 304 781 m 391 781 q 359 793 372 781 q 347 825 347 806 q 359 854 347 842 q 391 868 372 868 q 420 854 408 868 q 434 825 434 842 q 420 793 434 806 q 391 781 408 781 l 391 781 m 477 781 q 446 793 458 781 q 434 825 434 806 q 446 854 434 842 q 477 868 458 868 q 507 854 495 868 q 521 825 521 842 q 507 793 521 806 q 477 781 495 781 l 477 781 m 564 781 q 533 793 545 781 q 521 825 521 806 q 533 854 521 842 q 564 868 545 868 q 594 854 582 868 q 608 825 608 842 q 594 793 608 806 q 564 781 582 781 l 564 781 m 651 781 q 620 793 632 781 q 608 825 608 806 q 620 854 608 842 q 651 868 632 868 q 681 854 669 868 q 694 825 694 842 q 681 793 694 806 q 651 781 669 781 l 651 781 m 738 781 q 707 793 719 781 q 694 825 694 806 q 707 854 694 842 q 738 868 719 868 q 768 854 755 868 q 781 825 781 842 q 768 793 781 806 q 738 781 755 781 l 738 781 m 825 781 q 793 793 806 781 q 781 825 781 806 q 793 854 781 842 q 825 868 806 868 q 854 854 842 868 q 868 825 868 842 q 854 793 868 806 q 825 781 842 781 l 825 781 m 911 781 q 880 793 892 781 q 868 825 868 806 q 880 854 868 842 q 911 868 892 868 q 941 854 929 868 q 955 825 955 842 q 941 793 955 806 q 911 781 929 781 l 911 781 m 998 781 q 967 793 979 781 q 955 825 955 806 q 967 854 955 842 q 998 868 979 868 q 1028 854 1016 868 q 1042 825 1042 842 q 1028 793 1042 806 q 998 781 1016 781 l 998 781 m 1085 781 q 1054 793 1066 781 q 1042 825 1042 806 q 1054 854 1042 842 q 1085 868 1066 868 q 1115 854 1103 868 q 1128 825 1128 842 q 1115 793 1128 806 q 1085 781 1103 781 l 1085 781 z "},"8":{"ha":1302,"x_min":8,"x_max":1119,"o":"m 217 0 q 186 12 198 0 q 174 43 174 24 q 186 73 174 61 q 217 87 198 87 q 247 73 235 87 q 260 43 260 61 q 247 12 260 24 q 217 0 235 0 l 217 0 m 304 0 q 273 12 285 0 q 260 43 260 24 q 273 73 260 61 q 304 87 285 87 q 334 73 321 87 q 347 43 347 61 q 334 12 347 24 q 304 0 321 0 l 304 0 m 391 0 q 359 12 372 0 q 347 43 347 24 q 359 73 347 61 q 391 87 372 87 q 420 73 408 87 q 434 43 434 61 q 420 12 434 24 q 391 0 408 0 l 391 0 m 477 0 q 446 12 458 0 q 434 43 434 24 q 446 73 434 61 q 477 87 458 87 q 507 73 495 87 q 521 43 521 61 q 507 12 521 24 q 477 0 495 0 l 477 0 m 564 0 q 533 12 545 0 q 521 43 521 24 q 533 73 521 61 q 564 87 545 87 q 594 73 582 87 q 608 43 608 61 q 594 12 608 24 q 564 0 582 0 l 564 0 m 651 0 q 620 12 632 0 q 608 43 608 24 q 620 73 608 61 q 651 87 632 87 q 681 73 669 87 q 694 43 694 61 q 681 12 694 24 q 651 0 669 0 l 651 0 m 738 0 q 707 12 719 0 q 694 43 694 24 q 707 73 694 61 q 738 87 719 87 q 768 73 755 87 q 781 43 781 61 q 768 12 781 24 q 738 0 755 0 l 738 0 m 825 0 q 793 12 806 0 q 781 43 781 24 q 793 73 781 61 q 825 87 806 87 q 854 73 842 87 q 868 43 868 61 q 854 12 868 24 q 825 0 842 0 l 825 0 m 911 0 q 880 12 892 0 q 868 43 868 24 q 880 73 868 61 q 911 87 892 87 q 941 73 929 87 q 955 43 955 61 q 941 12 955 24 q 911 0 929 0 l 911 0 m 130 87 q 99 99 111 87 q 87 130 87 111 q 99 160 87 148 q 130 174 111 174 q 160 160 148 174 q 174 130 174 148 q 160 99 174 111 q 130 87 148 87 l 130 87 m 217 87 q 186 99 198 87 q 174 130 174 111 q 186 160 174 148 q 217 174 198 174 q 247 160 235 174 q 260 130 260 148 q 247 99 260 111 q 217 87 235 87 l 217 87 m 304 87 q 273 99 285 87 q 260 130 260 111 q 273 160 260 148 q 304 174 285 174 q 334 160 321 174 q 347 130 347 148 q 334 99 347 111 q 304 87 321 87 l 304 87 m 391 87 q 359 99 372 87 q 347 130 347 111 q 359 160 347 148 q 391 174 372 174 q 420 160 408 174 q 434 130 434 148 q 420 99 434 111 q 391 87 408 87 l 391 87 m 477 87 q 446 99 458 87 q 434 130 434 111 q 446 160 434 148 q 477 174 458 174 q 507 160 495 174 q 521 130 521 148 q 507 99 521 111 q 477 87 495 87 l 477 87 m 564 87 q 533 99 545 87 q 521 130 521 111 q 533 160 521 148 q 564 174 545 174 q 594 160 582 174 q 608 130 608 148 q 594 99 608 111 q 564 87 582 87 l 564 87 m 651 87 q 620 99 632 87 q 608 130 608 111 q 620 160 608 148 q 651 174 632 174 q 681 160 669 174 q 694 130 694 148 q 681 99 694 111 q 651 87 669 87 l 651 87 m 738 87 q 707 99 719 87 q 694 130 694 111 q 707 160 694 148 q 738 174 719 174 q 768 160 755 174 q 781 130 781 148 q 768 99 781 111 q 738 87 755 87 l 738 87 m 825 87 q 793 99 806 87 q 781 130 781 111 q 793 160 781 148 q 825 174 806 174 q 854 160 842 174 q 868 130 868 148 q 854 99 868 111 q 825 87 842 87 l 825 87 m 911 87 q 880 99 892 87 q 868 130 868 111 q 880 160 868 148 q 911 174 892 174 q 941 160 929 174 q 955 130 955 148 q 941 99 955 111 q 911 87 929 87 l 911 87 m 998 87 q 967 99 979 87 q 955 130 955 111 q 967 160 955 148 q 998 174 979 174 q 1028 160 1016 174 q 1042 130 1042 148 q 1028 99 1042 111 q 998 87 1016 87 l 998 87 m 43 182 q 20 191 31 182 q 8 217 8 202 q 18 239 8 228 q 43 251 30 251 q 65 241 54 251 q 77 217 77 229 q 68 191 77 202 q 43 182 57 182 l 43 182 m 130 182 q 107 191 118 182 q 95 217 95 202 q 104 239 95 228 q 130 251 117 251 q 152 241 141 251 q 164 217 164 229 q 155 191 164 202 q 130 182 144 182 l 130 182 m 217 182 q 194 191 205 182 q 182 217 182 202 q 191 239 182 228 q 217 251 203 251 q 239 241 228 251 q 251 217 251 229 q 241 191 251 202 q 217 182 231 182 l 217 182 m 304 182 q 281 191 292 182 q 269 217 269 202 q 278 239 269 228 q 304 251 290 251 q 326 241 315 251 q 338 217 338 229 q 328 191 338 202 q 304 182 317 182 l 304 182 m 825 182 q 802 191 812 182 q 789 217 789 202 q 799 239 789 228 q 825 251 811 251 q 846 241 836 251 q 859 217 859 229 q 849 191 859 202 q 825 182 838 182 l 825 182 m 911 182 q 888 191 899 182 q 876 217 876 202 q 886 239 876 228 q 911 251 898 251 q 933 241 922 251 q 945 217 945 229 q 936 191 945 202 q 911 182 925 182 l 911 182 m 998 182 q 975 191 986 182 q 963 217 963 202 q 972 239 963 228 q 998 251 985 251 q 1020 241 1009 251 q 1032 217 1032 229 q 1023 191 1032 202 q 998 182 1012 182 l 998 182 m 1085 182 q 1062 191 1073 182 q 1050 217 1050 202 q 1059 239 1050 228 q 1085 251 1072 251 q 1107 241 1096 251 q 1119 217 1119 229 q 1109 191 1119 202 q 1085 182 1099 182 l 1085 182 m 43 269 q 20 278 31 269 q 8 304 8 289 q 18 326 8 315 q 43 338 30 338 q 65 328 54 338 q 77 304 77 316 q 68 278 77 289 q 43 269 57 269 l 43 269 m 130 269 q 107 278 118 269 q 95 304 95 289 q 104 326 95 315 q 130 338 117 338 q 152 328 141 338 q 164 304 164 316 q 155 278 164 289 q 130 269 144 269 l 130 269 m 217 269 q 194 278 205 269 q 182 304 182 289 q 191 326 182 315 q 217 338 203 338 q 239 328 228 338 q 251 304 251 316 q 241 278 251 289 q 217 269 231 269 l 217 269 m 911 269 q 888 278 899 269 q 876 304 876 289 q 886 326 876 315 q 911 338 898 338 q 933 328 922 338 q 945 304 945 316 q 936 278 945 289 q 911 269 925 269 l 911 269 m 998 269 q 975 278 986 269 q 963 304 963 289 q 972 326 963 315 q 998 338 985 338 q 1020 328 1009 338 q 1032 304 1032 316 q 1023 278 1032 289 q 998 269 1012 269 l 998 269 m 1085 269 q 1062 278 1073 269 q 1050 304 1050 289 q 1059 326 1050 315 q 1085 338 1072 338 q 1107 328 1096 338 q 1119 304 1119 316 q 1109 278 1119 289 q 1085 269 1099 269 l 1085 269 m 130 363 q 113 372 121 363 q 103 391 103 380 q 111 407 103 399 q 130 416 119 416 q 146 408 138 416 q 156 391 156 400 q 148 372 156 380 q 130 363 141 363 l 130 363 m 217 363 q 199 372 208 363 q 190 391 190 380 q 198 407 190 399 q 217 416 206 416 q 233 408 225 416 q 243 391 243 400 q 235 372 243 380 q 217 363 228 363 l 217 363 m 304 363 q 286 372 294 363 q 277 391 277 380 q 285 407 277 399 q 304 416 293 416 q 320 408 312 416 q 330 391 330 400 q 321 372 330 380 q 304 363 315 363 l 304 363 m 391 363 q 373 372 381 363 q 363 391 363 380 q 372 407 363 399 q 391 416 380 416 q 407 408 399 416 q 416 391 416 400 q 408 372 416 380 q 391 363 401 363 l 391 363 m 477 363 q 460 372 468 363 q 450 391 450 380 q 458 407 450 399 q 477 416 467 416 q 494 408 486 416 q 503 391 503 400 q 495 372 503 380 q 477 363 488 363 l 477 363 m 564 363 q 547 372 555 363 q 537 391 537 380 q 545 407 537 399 q 564 416 553 416 q 581 408 572 416 q 590 391 590 400 q 582 372 590 380 q 564 363 575 363 l 564 363 m 651 363 q 633 372 642 363 q 624 391 624 380 q 632 407 624 399 q 651 416 640 416 q 667 408 659 416 q 677 391 677 400 q 669 372 677 380 q 651 363 662 363 l 651 363 m 738 363 q 720 372 728 363 q 711 391 711 380 q 719 407 711 399 q 738 416 727 416 q 754 408 746 416 q 764 391 764 400 q 755 372 764 380 q 738 363 749 363 l 738 363 m 825 363 q 807 372 815 363 q 798 391 798 380 q 806 407 798 399 q 825 416 814 416 q 841 408 833 416 q 850 391 850 400 q 842 372 850 380 q 825 363 836 363 l 825 363 m 911 363 q 894 372 902 363 q 884 391 884 380 q 892 407 884 399 q 911 416 901 416 q 928 408 920 416 q 937 391 937 400 q 929 372 937 380 q 911 363 922 363 l 911 363 m 998 363 q 981 372 989 363 q 971 391 971 380 q 979 407 971 399 q 998 416 987 416 q 1015 408 1006 416 q 1024 391 1024 400 q 1016 372 1024 380 q 998 363 1009 363 l 998 363 m 130 450 q 113 458 121 450 q 103 477 103 467 q 111 494 103 486 q 130 503 119 503 q 146 495 138 503 q 156 477 156 487 q 148 458 156 467 q 130 450 141 450 l 130 450 m 217 450 q 199 458 208 450 q 190 477 190 467 q 198 494 190 486 q 217 503 206 503 q 233 495 225 503 q 243 477 243 487 q 235 458 243 467 q 217 450 228 450 l 217 450 m 304 450 q 286 458 294 450 q 277 477 277 467 q 285 494 277 486 q 304 503 293 503 q 320 495 312 503 q 330 477 330 487 q 321 458 330 467 q 304 450 315 450 l 304 450 m 391 450 q 373 458 381 450 q 363 477 363 467 q 372 494 363 486 q 391 503 380 503 q 407 495 399 503 q 416 477 416 487 q 408 458 416 467 q 391 450 401 450 l 391 450 m 477 450 q 460 458 468 450 q 450 477 450 467 q 458 494 450 486 q 477 503 467 503 q 494 495 486 503 q 503 477 503 487 q 495 458 503 467 q 477 450 488 450 l 477 450 m 564 450 q 547 458 555 450 q 537 477 537 467 q 545 494 537 486 q 564 503 553 503 q 581 495 572 503 q 590 477 590 487 q 582 458 590 467 q 564 450 575 450 l 564 450 m 651 450 q 633 458 642 450 q 624 477 624 467 q 632 494 624 486 q 651 503 640 503 q 667 495 659 503 q 677 477 677 487 q 669 458 677 467 q 651 450 662 450 l 651 450 m 738 450 q 720 458 728 450 q 711 477 711 467 q 719 494 711 486 q 738 503 727 503 q 754 495 746 503 q 764 477 764 487 q 755 458 764 467 q 738 450 749 450 l 738 450 m 825 450 q 807 458 815 450 q 798 477 798 467 q 806 494 798 486 q 825 503 814 503 q 841 495 833 503 q 850 477 850 487 q 842 458 850 467 q 825 450 836 450 l 825 450 m 911 450 q 894 458 902 450 q 884 477 884 467 q 892 494 884 486 q 911 503 901 503 q 928 495 920 503 q 937 477 937 487 q 929 458 937 467 q 911 450 922 450 l 911 450 m 998 450 q 981 458 989 450 q 971 477 971 467 q 979 494 971 486 q 998 503 987 503 q 1015 495 1006 503 q 1024 477 1024 487 q 1016 458 1024 467 q 998 450 1009 450 l 998 450 m 43 529 q 20 538 31 529 q 8 564 8 549 q 18 586 8 575 q 43 598 30 598 q 65 589 54 598 q 77 564 77 576 q 68 538 77 549 q 43 529 57 529 l 43 529 m 130 529 q 107 538 118 529 q 95 564 95 549 q 104 586 95 575 q 130 598 117 598 q 152 589 141 598 q 164 564 164 576 q 155 538 164 549 q 130 529 144 529 l 130 529 m 217 529 q 194 538 205 529 q 182 564 182 549 q 191 586 182 575 q 217 598 203 598 q 239 589 228 598 q 251 564 251 576 q 241 538 251 549 q 217 529 231 529 l 217 529 m 911 529 q 888 538 899 529 q 876 564 876 549 q 886 586 876 575 q 911 598 898 598 q 933 589 922 598 q 945 564 945 576 q 936 538 945 549 q 911 529 925 529 l 911 529 m 998 529 q 975 538 986 529 q 963 564 963 549 q 972 586 963 575 q 998 598 985 598 q 1020 589 1009 598 q 1032 564 1032 576 q 1023 538 1032 549 q 998 529 1012 529 l 998 529 m 1085 529 q 1062 538 1073 529 q 1050 564 1050 549 q 1059 586 1050 575 q 1085 598 1072 598 q 1107 589 1096 598 q 1119 564 1119 576 q 1109 538 1119 549 q 1085 529 1099 529 l 1085 529 m 43 616 q 20 625 31 616 q 8 651 8 636 q 18 673 8 662 q 43 685 30 685 q 65 675 54 685 q 77 651 77 663 q 68 625 77 636 q 43 616 57 616 l 43 616 m 130 616 q 107 625 118 616 q 95 651 95 636 q 104 673 95 662 q 130 685 117 685 q 152 675 141 685 q 164 651 164 663 q 155 625 164 636 q 130 616 144 616 l 130 616 m 217 616 q 194 625 205 616 q 182 651 182 636 q 191 673 182 662 q 217 685 203 685 q 239 675 228 685 q 251 651 251 663 q 241 625 251 636 q 217 616 231 616 l 217 616 m 304 616 q 281 625 292 616 q 269 651 269 636 q 278 673 269 662 q 304 685 290 685 q 326 675 315 685 q 338 651 338 663 q 328 625 338 636 q 304 616 317 616 l 304 616 m 825 616 q 802 625 812 616 q 789 651 789 636 q 799 673 789 662 q 825 685 811 685 q 846 675 836 685 q 859 651 859 663 q 849 625 859 636 q 825 616 838 616 l 825 616 m 911 616 q 888 625 899 616 q 876 651 876 636 q 886 673 876 662 q 911 685 898 685 q 933 675 922 685 q 945 651 945 663 q 936 625 945 636 q 911 616 925 616 l 911 616 m 998 616 q 975 625 986 616 q 963 651 963 636 q 972 673 963 662 q 998 685 985 685 q 1020 675 1009 685 q 1032 651 1032 663 q 1023 625 1032 636 q 998 616 1012 616 l 998 616 m 1085 616 q 1062 625 1073 616 q 1050 651 1050 636 q 1059 673 1050 662 q 1085 685 1072 685 q 1107 675 1096 685 q 1119 651 1119 663 q 1109 625 1119 636 q 1085 616 1099 616 l 1085 616 m 130 694 q 99 707 111 694 q 87 738 87 719 q 99 768 87 755 q 130 781 111 781 q 160 768 148 781 q 174 738 174 755 q 160 707 174 719 q 130 694 148 694 l 130 694 m 217 694 q 186 707 198 694 q 174 738 174 719 q 186 768 174 755 q 217 781 198 781 q 247 768 235 781 q 260 738 260 755 q 247 707 260 719 q 217 694 235 694 l 217 694 m 304 694 q 273 707 285 694 q 260 738 260 719 q 273 768 260 755 q 304 781 285 781 q 334 768 321 781 q 347 738 347 755 q 334 707 347 719 q 304 694 321 694 l 304 694 m 391 694 q 359 707 372 694 q 347 738 347 719 q 359 768 347 755 q 391 781 372 781 q 420 768 408 781 q 434 738 434 755 q 420 707 434 719 q 391 694 408 694 l 391 694 m 477 694 q 446 707 458 694 q 434 738 434 719 q 446 768 434 755 q 477 781 458 781 q 507 768 495 781 q 521 738 521 755 q 507 707 521 719 q 477 694 495 694 l 477 694 m 564 694 q 533 707 545 694 q 521 738 521 719 q 533 768 521 755 q 564 781 545 781 q 594 768 582 781 q 608 738 608 755 q 594 707 608 719 q 564 694 582 694 l 564 694 m 651 694 q 620 707 632 694 q 608 738 608 719 q 620 768 608 755 q 651 781 632 781 q 681 768 669 781 q 694 738 694 755 q 681 707 694 719 q 651 694 669 694 l 651 694 m 738 694 q 707 707 719 694 q 694 738 694 719 q 707 768 694 755 q 738 781 719 781 q 768 768 755 781 q 781 738 781 755 q 768 707 781 719 q 738 694 755 694 l 738 694 m 825 694 q 793 707 806 694 q 781 738 781 719 q 793 768 781 755 q 825 781 806 781 q 854 768 842 781 q 868 738 868 755 q 854 707 868 719 q 825 694 842 694 l 825 694 m 911 694 q 880 707 892 694 q 868 738 868 719 q 880 768 868 755 q 911 781 892 781 q 941 768 929 781 q 955 738 955 755 q 941 707 955 719 q 911 694 929 694 l 911 694 m 998 694 q 967 707 979 694 q 955 738 955 719 q 967 768 955 755 q 998 781 979 781 q 1028 768 1016 781 q 1042 738 1042 755 q 1028 707 1042 719 q 998 694 1016 694 l 998 694 m 217 781 q 186 793 198 781 q 174 825 174 806 q 186 854 174 842 q 217 868 198 868 q 247 854 235 868 q 260 825 260 842 q 247 793 260 806 q 217 781 235 781 l 217 781 m 304 781 q 273 793 285 781 q 260 825 260 806 q 273 854 260 842 q 304 868 285 868 q 334 854 321 868 q 347 825 347 842 q 334 793 347 806 q 304 781 321 781 l 304 781 m 391 781 q 359 793 372 781 q 347 825 347 806 q 359 854 347 842 q 391 868 372 868 q 420 854 408 868 q 434 825 434 842 q 420 793 434 806 q 391 781 408 781 l 391 781 m 477 781 q 446 793 458 781 q 434 825 434 806 q 446 854 434 842 q 477 868 458 868 q 507 854 495 868 q 521 825 521 842 q 507 793 521 806 q 477 781 495 781 l 477 781 m 564 781 q 533 793 545 781 q 521 825 521 806 q 533 854 521 842 q 564 868 545 868 q 594 854 582 868 q 608 825 608 842 q 594 793 608 806 q 564 781 582 781 l 564 781 m 651 781 q 620 793 632 781 q 608 825 608 806 q 620 854 608 842 q 651 868 632 868 q 681 854 669 868 q 694 825 694 842 q 681 793 694 806 q 651 781 669 781 l 651 781 m 738 781 q 707 793 719 781 q 694 825 694 806 q 707 854 694 842 q 738 868 719 868 q 768 854 755 868 q 781 825 781 842 q 768 793 781 806 q 738 781 755 781 l 738 781 m 825 781 q 793 793 806 781 q 781 825 781 806 q 793 854 781 842 q 825 868 806 868 q 854 854 842 868 q 868 825 868 842 q 854 793 868 806 q 825 781 842 781 l 825 781 m 911 781 q 880 793 892 781 q 868 825 868 806 q 880 854 868 842 q 911 868 892 868 q 941 854 929 868 q 955 825 955 842 q 941 793 955 806 q 911 781 929 781 l 911 781 z "},"9":{"ha":1302,"x_min":0,"x_max":1119,"o":"m 477 -251 q 454 -241 465 -251 q 442 -217 442 -231 q 452 -194 442 -205 q 477 -182 464 -182 q 499 -191 488 -182 q 511 -217 511 -203 q 502 -241 511 -231 q 477 -251 491 -251 l 477 -251 m 43 0 q 12 12 24 0 q 0 43 0 24 q 12 73 0 61 q 43 87 24 87 q 73 73 61 87 q 87 43 87 61 q 73 12 87 24 q 43 0 61 0 l 43 0 m 130 0 q 99 12 111 0 q 87 43 87 24 q 99 73 87 61 q 130 87 111 87 q 160 73 148 87 q 174 43 174 61 q 160 12 174 24 q 130 0 148 0 l 130 0 m 217 0 q 186 12 198 0 q 174 43 174 24 q 186 73 174 61 q 217 87 198 87 q 247 73 235 87 q 260 43 260 61 q 247 12 260 24 q 217 0 235 0 l 217 0 m 304 0 q 273 12 285 0 q 260 43 260 24 q 273 73 260 61 q 304 87 285 87 q 334 73 321 87 q 347 43 347 61 q 334 12 347 24 q 304 0 321 0 l 304 0 m 391 0 q 359 12 372 0 q 347 43 347 24 q 359 73 347 61 q 391 87 372 87 q 420 73 408 87 q 434 43 434 61 q 420 12 434 24 q 391 0 408 0 l 391 0 m 477 0 q 446 12 458 0 q 434 43 434 24 q 446 73 434 61 q 477 87 458 87 q 507 73 495 87 q 521 43 521 61 q 507 12 521 24 q 477 0 495 0 l 477 0 m 564 0 q 533 12 545 0 q 521 43 521 24 q 533 73 521 61 q 564 87 545 87 q 594 73 582 87 q 608 43 608 61 q 594 12 608 24 q 564 0 582 0 l 564 0 m 651 0 q 620 12 632 0 q 608 43 608 24 q 620 73 608 61 q 651 87 632 87 q 681 73 669 87 q 694 43 694 61 q 681 12 694 24 q 651 0 669 0 l 651 0 m 738 0 q 707 12 719 0 q 694 43 694 24 q 707 73 694 61 q 738 87 719 87 q 768 73 755 87 q 781 43 781 61 q 768 12 781 24 q 738 0 755 0 l 738 0 m 825 0 q 793 12 806 0 q 781 43 781 24 q 793 73 781 61 q 825 87 806 87 q 854 73 842 87 q 868 43 868 61 q 854 12 868 24 q 825 0 842 0 l 825 0 m 911 0 q 880 12 892 0 q 868 43 868 24 q 880 73 868 61 q 911 87 892 87 q 941 73 929 87 q 955 43 955 61 q 941 12 955 24 q 911 0 929 0 l 911 0 m 43 87 q 12 99 24 87 q 0 130 0 111 q 12 160 0 148 q 43 174 24 174 q 73 160 61 174 q 87 130 87 148 q 73 99 87 111 q 43 87 61 87 l 43 87 m 130 87 q 99 99 111 87 q 87 130 87 111 q 99 160 87 148 q 130 174 111 174 q 160 160 148 174 q 174 130 174 148 q 160 99 174 111 q 130 87 148 87 l 130 87 m 217 87 q 186 99 198 87 q 174 130 174 111 q 186 160 174 148 q 217 174 198 174 q 247 160 235 174 q 260 130 260 148 q 247 99 260 111 q 217 87 235 87 l 217 87 m 304 87 q 273 99 285 87 q 260 130 260 111 q 273 160 260 148 q 304 174 285 174 q 334 160 321 174 q 347 130 347 148 q 334 99 347 111 q 304 87 321 87 l 304 87 m 391 87 q 359 99 372 87 q 347 130 347 111 q 359 160 347 148 q 391 174 372 174 q 420 160 408 174 q 434 130 434 148 q 420 99 434 111 q 391 87 408 87 l 391 87 m 477 87 q 446 99 458 87 q 434 130 434 111 q 446 160 434 148 q 477 174 458 174 q 507 160 495 174 q 521 130 521 148 q 507 99 521 111 q 477 87 495 87 l 477 87 m 564 87 q 533 99 545 87 q 521 130 521 111 q 533 160 521 148 q 564 174 545 174 q 594 160 582 174 q 608 130 608 148 q 594 99 608 111 q 564 87 582 87 l 564 87 m 651 87 q 620 99 632 87 q 608 130 608 111 q 620 160 608 148 q 651 174 632 174 q 681 160 669 174 q 694 130 694 148 q 681 99 694 111 q 651 87 669 87 l 651 87 m 738 87 q 707 99 719 87 q 694 130 694 111 q 707 160 694 148 q 738 174 719 174 q 768 160 755 174 q 781 130 781 148 q 768 99 781 111 q 738 87 755 87 l 738 87 m 825 87 q 793 99 806 87 q 781 130 781 111 q 793 160 781 148 q 825 174 806 174 q 854 160 842 174 q 868 130 868 148 q 854 99 868 111 q 825 87 842 87 l 825 87 m 911 87 q 880 99 892 87 q 868 130 868 111 q 880 160 868 148 q 911 174 892 174 q 941 160 929 174 q 955 130 955 148 q 941 99 955 111 q 911 87 929 87 l 911 87 m 998 87 q 967 99 979 87 q 955 130 955 111 q 967 160 955 148 q 998 174 979 174 q 1028 160 1016 174 q 1042 130 1042 148 q 1028 99 1042 111 q 998 87 1016 87 l 998 87 m 825 182 q 802 191 812 182 q 789 217 789 202 q 799 239 789 228 q 825 251 811 251 q 846 241 836 251 q 859 217 859 229 q 849 191 859 202 q 825 182 838 182 l 825 182 m 911 182 q 888 191 899 182 q 876 217 876 202 q 886 239 876 228 q 911 251 898 251 q 933 241 922 251 q 945 217 945 229 q 936 191 945 202 q 911 182 925 182 l 911 182 m 998 182 q 975 191 986 182 q 963 217 963 202 q 972 239 963 228 q 998 251 985 251 q 1020 241 1009 251 q 1032 217 1032 229 q 1023 191 1032 202 q 998 182 1012 182 l 998 182 m 1085 182 q 1062 191 1073 182 q 1050 217 1050 202 q 1059 239 1050 228 q 1085 251 1072 251 q 1107 241 1096 251 q 1119 217 1119 229 q 1109 191 1119 202 q 1085 182 1099 182 l 1085 182 m 911 269 q 888 278 899 269 q 876 304 876 289 q 886 326 876 315 q 911 338 898 338 q 933 328 922 338 q 945 304 945 316 q 936 278 945 289 q 911 269 925 269 l 911 269 m 998 269 q 975 278 986 269 q 963 304 963 289 q 972 326 963 315 q 998 338 985 338 q 1020 328 1009 338 q 1032 304 1032 316 q 1023 278 1032 289 q 998 269 1012 269 l 998 269 m 1085 269 q 1062 278 1073 269 q 1050 304 1050 289 q 1059 326 1050 315 q 1085 338 1072 338 q 1107 328 1096 338 q 1119 304 1119 316 q 1109 278 1119 289 q 1085 269 1099 269 l 1085 269 m 217 363 q 199 372 208 363 q 190 391 190 380 q 198 407 190 399 q 217 416 206 416 q 233 408 225 416 q 243 391 243 400 q 235 372 243 380 q 217 363 228 363 l 217 363 m 304 363 q 286 372 294 363 q 277 391 277 380 q 285 407 277 399 q 304 416 293 416 q 320 408 312 416 q 330 391 330 400 q 321 372 330 380 q 304 363 315 363 l 304 363 m 391 363 q 373 372 381 363 q 363 391 363 380 q 372 407 363 399 q 391 416 380 416 q 407 408 399 416 q 416 391 416 400 q 408 372 416 380 q 391 363 401 363 l 391 363 m 477 363 q 460 372 468 363 q 450 391 450 380 q 458 407 450 399 q 477 416 467 416 q 494 408 486 416 q 503 391 503 400 q 495 372 503 380 q 477 363 488 363 l 477 363 m 564 363 q 547 372 555 363 q 537 391 537 380 q 545 407 537 399 q 564 416 553 416 q 581 408 572 416 q 590 391 590 400 q 582 372 590 380 q 564 363 575 363 l 564 363 m 651 363 q 633 372 642 363 q 624 391 624 380 q 632 407 624 399 q 651 416 640 416 q 667 408 659 416 q 677 391 677 400 q 669 372 677 380 q 651 363 662 363 l 651 363 m 738 363 q 720 372 728 363 q 711 391 711 380 q 719 407 711 399 q 738 416 727 416 q 754 408 746 416 q 764 391 764 400 q 755 372 764 380 q 738 363 749 363 l 738 363 m 825 363 q 807 372 815 363 q 798 391 798 380 q 806 407 798 399 q 825 416 814 416 q 841 408 833 416 q 850 391 850 400 q 842 372 850 380 q 825 363 836 363 l 825 363 m 911 363 q 894 372 902 363 q 884 391 884 380 q 892 407 884 399 q 911 416 901 416 q 928 408 920 416 q 937 391 937 400 q 929 372 937 380 q 911 363 922 363 l 911 363 m 998 363 q 981 372 989 363 q 971 391 971 380 q 979 407 971 399 q 998 416 987 416 q 1015 408 1006 416 q 1024 391 1024 400 q 1016 372 1024 380 q 998 363 1009 363 l 998 363 m 1085 363 q 1067 372 1076 363 q 1058 391 1058 380 q 1066 407 1058 399 q 1085 416 1074 416 q 1101 408 1093 416 q 1111 391 1111 400 q 1103 372 1111 380 q 1085 363 1096 363 l 1085 363 m 130 450 q 113 458 121 450 q 103 477 103 467 q 111 494 103 486 q 130 503 119 503 q 146 495 138 503 q 156 477 156 487 q 148 458 156 467 q 130 450 141 450 l 130 450 m 217 450 q 199 458 208 450 q 190 477 190 467 q 198 494 190 486 q 217 503 206 503 q 233 495 225 503 q 243 477 243 487 q 235 458 243 467 q 217 450 228 450 l 217 450 m 304 450 q 286 458 294 450 q 277 477 277 467 q 285 494 277 486 q 304 503 293 503 q 320 495 312 503 q 330 477 330 487 q 321 458 330 467 q 304 450 315 450 l 304 450 m 391 450 q 373 458 381 450 q 363 477 363 467 q 372 494 363 486 q 391 503 380 503 q 407 495 399 503 q 416 477 416 487 q 408 458 416 467 q 391 450 401 450 l 391 450 m 477 450 q 460 458 468 450 q 450 477 450 467 q 458 494 450 486 q 477 503 467 503 q 494 495 486 503 q 503 477 503 487 q 495 458 503 467 q 477 450 488 450 l 477 450 m 564 450 q 547 458 555 450 q 537 477 537 467 q 545 494 537 486 q 564 503 553 503 q 581 495 572 503 q 590 477 590 487 q 582 458 590 467 q 564 450 575 450 l 564 450 m 651 450 q 633 458 642 450 q 624 477 624 467 q 632 494 624 486 q 651 503 640 503 q 667 495 659 503 q 677 477 677 487 q 669 458 677 467 q 651 450 662 450 l 651 450 m 738 450 q 720 458 728 450 q 711 477 711 467 q 719 494 711 486 q 738 503 727 503 q 754 495 746 503 q 764 477 764 487 q 755 458 764 467 q 738 450 749 450 l 738 450 m 825 450 q 807 458 815 450 q 798 477 798 467 q 806 494 798 486 q 825 503 814 503 q 841 495 833 503 q 850 477 850 487 q 842 458 850 467 q 825 450 836 450 l 825 450 m 911 450 q 894 458 902 450 q 884 477 884 467 q 892 494 884 486 q 911 503 901 503 q 928 495 920 503 q 937 477 937 487 q 929 458 937 467 q 911 450 922 450 l 911 450 m 998 450 q 981 458 989 450 q 971 477 971 467 q 979 494 971 486 q 998 503 987 503 q 1015 495 1006 503 q 1024 477 1024 487 q 1016 458 1024 467 q 998 450 1009 450 l 998 450 m 1085 450 q 1067 458 1076 450 q 1058 477 1058 467 q 1066 494 1058 486 q 1085 503 1074 503 q 1101 495 1093 503 q 1111 477 1111 487 q 1103 458 1111 467 q 1085 450 1096 450 l 1085 450 m 43 529 q 20 538 31 529 q 8 564 8 549 q 18 586 8 575 q 43 598 30 598 q 65 589 54 598 q 77 564 77 576 q 68 538 77 549 q 43 529 57 529 l 43 529 m 130 529 q 107 538 118 529 q 95 564 95 549 q 104 586 95 575 q 130 598 117 598 q 152 589 141 598 q 164 564 164 576 q 155 538 164 549 q 130 529 144 529 l 130 529 m 217 529 q 194 538 205 529 q 182 564 182 549 q 191 586 182 575 q 217 598 203 598 q 239 589 228 598 q 251 564 251 576 q 241 538 251 549 q 217 529 231 529 l 217 529 m 911 529 q 888 538 899 529 q 876 564 876 549 q 886 586 876 575 q 911 598 898 598 q 933 589 922 598 q 945 564 945 576 q 936 538 945 549 q 911 529 925 529 l 911 529 m 998 529 q 975 538 986 529 q 963 564 963 549 q 972 586 963 575 q 998 598 985 598 q 1020 589 1009 598 q 1032 564 1032 576 q 1023 538 1032 549 q 998 529 1012 529 l 998 529 m 1085 529 q 1062 538 1073 529 q 1050 564 1050 549 q 1059 586 1050 575 q 1085 598 1072 598 q 1107 589 1096 598 q 1119 564 1119 576 q 1109 538 1119 549 q 1085 529 1099 529 l 1085 529 m 43 616 q 20 625 31 616 q 8 651 8 636 q 18 673 8 662 q 43 685 30 685 q 65 675 54 685 q 77 651 77 663 q 68 625 77 636 q 43 616 57 616 l 43 616 m 130 616 q 107 625 118 616 q 95 651 95 636 q 104 673 95 662 q 130 685 117 685 q 152 675 141 685 q 164 651 164 663 q 155 625 164 636 q 130 616 144 616 l 130 616 m 217 616 q 194 625 205 616 q 182 651 182 636 q 191 673 182 662 q 217 685 203 685 q 239 675 228 685 q 251 651 251 663 q 241 625 251 636 q 217 616 231 616 l 217 616 m 304 616 q 281 625 292 616 q 269 651 269 636 q 278 673 269 662 q 304 685 290 685 q 326 675 315 685 q 338 651 338 663 q 328 625 338 636 q 304 616 317 616 l 304 616 m 825 616 q 802 625 812 616 q 789 651 789 636 q 799 673 789 662 q 825 685 811 685 q 846 675 836 685 q 859 651 859 663 q 849 625 859 636 q 825 616 838 616 l 825 616 m 911 616 q 888 625 899 616 q 876 651 876 636 q 886 673 876 662 q 911 685 898 685 q 933 675 922 685 q 945 651 945 663 q 936 625 945 636 q 911 616 925 616 l 911 616 m 998 616 q 975 625 986 616 q 963 651 963 636 q 972 673 963 662 q 998 685 985 685 q 1020 675 1009 685 q 1032 651 1032 663 q 1023 625 1032 636 q 998 616 1012 616 l 998 616 m 1085 616 q 1062 625 1073 616 q 1050 651 1050 636 q 1059 673 1050 662 q 1085 685 1072 685 q 1107 675 1096 685 q 1119 651 1119 663 q 1109 625 1119 636 q 1085 616 1099 616 l 1085 616 m 130 694 q 99 707 111 694 q 87 738 87 719 q 99 768 87 755 q 130 781 111 781 q 160 768 148 781 q 174 738 174 755 q 160 707 174 719 q 130 694 148 694 l 130 694 m 217 694 q 186 707 198 694 q 174 738 174 719 q 186 768 174 755 q 217 781 198 781 q 247 768 235 781 q 260 738 260 755 q 247 707 260 719 q 217 694 235 694 l 217 694 m 304 694 q 273 707 285 694 q 260 738 260 719 q 273 768 260 755 q 304 781 285 781 q 334 768 321 781 q 347 738 347 755 q 334 707 347 719 q 304 694 321 694 l 304 694 m 391 694 q 359 707 372 694 q 347 738 347 719 q 359 768 347 755 q 391 781 372 781 q 420 768 408 781 q 434 738 434 755 q 420 707 434 719 q 391 694 408 694 l 391 694 m 477 694 q 446 707 458 694 q 434 738 434 719 q 446 768 434 755 q 477 781 458 781 q 507 768 495 781 q 521 738 521 755 q 507 707 521 719 q 477 694 495 694 l 477 694 m 564 694 q 533 707 545 694 q 521 738 521 719 q 533 768 521 755 q 564 781 545 781 q 594 768 582 781 q 608 738 608 755 q 594 707 608 719 q 564 694 582 694 l 564 694 m 651 694 q 620 707 632 694 q 608 738 608 719 q 620 768 608 755 q 651 781 632 781 q 681 768 669 781 q 694 738 694 755 q 681 707 694 719 q 651 694 669 694 l 651 694 m 738 694 q 707 707 719 694 q 694 738 694 719 q 707 768 694 755 q 738 781 719 781 q 768 768 755 781 q 781 738 781 755 q 768 707 781 719 q 738 694 755 694 l 738 694 m 825 694 q 793 707 806 694 q 781 738 781 719 q 793 768 781 755 q 825 781 806 781 q 854 768 842 781 q 868 738 868 755 q 854 707 868 719 q 825 694 842 694 l 825 694 m 911 694 q 880 707 892 694 q 868 738 868 719 q 880 768 868 755 q 911 781 892 781 q 941 768 929 781 q 955 738 955 755 q 941 707 955 719 q 911 694 929 694 l 911 694 m 998 694 q 967 707 979 694 q 955 738 955 719 q 967 768 955 755 q 998 781 979 781 q 1028 768 1016 781 q 1042 738 1042 755 q 1028 707 1042 719 q 998 694 1016 694 l 998 694 m 217 781 q 186 793 198 781 q 174 825 174 806 q 186 854 174 842 q 217 868 198 868 q 247 854 235 868 q 260 825 260 842 q 247 793 260 806 q 217 781 235 781 l 217 781 m 304 781 q 273 793 285 781 q 260 825 260 806 q 273 854 260 842 q 304 868 285 868 q 334 854 321 868 q 347 825 347 842 q 334 793 347 806 q 304 781 321 781 l 304 781 m 391 781 q 359 793 372 781 q 347 825 347 806 q 359 854 347 842 q 391 868 372 868 q 420 854 408 868 q 434 825 434 842 q 420 793 434 806 q 391 781 408 781 l 391 781 m 477 781 q 446 793 458 781 q 434 825 434 806 q 446 854 434 842 q 477 868 458 868 q 507 854 495 868 q 521 825 521 842 q 507 793 521 806 q 477 781 495 781 l 477 781 m 564 781 q 533 793 545 781 q 521 825 521 806 q 533 854 521 842 q 564 868 545 868 q 594 854 582 868 q 608 825 608 842 q 594 793 608 806 q 564 781 582 781 l 564 781 m 651 781 q 620 793 632 781 q 608 825 608 806 q 620 854 608 842 q 651 868 632 868 q 681 854 669 868 q 694 825 694 842 q 681 793 694 806 q 651 781 669 781 l 651 781 m 738 781 q 707 793 719 781 q 694 825 694 806 q 707 854 694 842 q 738 868 719 868 q 768 854 755 868 q 781 825 781 842 q 768 793 781 806 q 738 781 755 781 l 738 781 m 825 781 q 793 793 806 781 q 781 825 781 806 q 793 854 781 842 q 825 868 806 868 q 854 854 842 868 q 868 825 868 842 q 854 793 868 806 q 825 781 842 781 l 825 781 m 911 781 q 880 793 892 781 q 868 825 868 806 q 880 854 868 842 q 911 868 892 868 q 941 854 929 868 q 955 825 955 842 q 941 793 955 806 q 911 781 929 781 l 911 781 z "}," ":{"ha":347,"x_min":0,"x_max":0,"o":""},"!":{"ha":434,"x_min":0,"x_max":260,"o":"m 43 0 q 12 12 24 0 q 0 43 0 24 q 12 73 0 61 q 43 87 24 87 q 73 73 61 87 q 87 43 87 61 q 73 12 87 24 q 43 0 61 0 l 43 0 m 130 0 q 99 12 111 0 q 87 43 87 24 q 99 73 87 61 q 130 87 111 87 q 160 73 148 87 q 174 43 174 61 q 160 12 174 24 q 130 0 148 0 l 130 0 m 217 0 q 186 12 198 0 q 174 43 174 24 q 186 73 174 61 q 217 87 198 87 q 247 73 235 87 q 260 43 260 61 q 247 12 260 24 q 217 0 235 0 l 217 0 m 43 87 q 12 99 24 87 q 0 130 0 111 q 12 160 0 148 q 43 174 24 174 q 73 160 61 174 q 87 130 87 148 q 73 99 87 111 q 43 87 61 87 l 43 87 m 130 87 q 99 99 111 87 q 87 130 87 111 q 99 160 87 148 q 130 174 111 174 q 160 160 148 174 q 174 130 174 148 q 160 99 174 111 q 130 87 148 87 l 130 87 m 217 87 q 186 99 198 87 q 174 130 174 111 q 186 160 174 148 q 217 174 198 174 q 247 160 235 174 q 260 130 260 148 q 247 99 260 111 q 217 87 235 87 l 217 87 m 43 269 q 20 278 31 269 q 8 304 8 289 q 18 326 8 315 q 43 338 30 338 q 65 328 54 338 q 77 304 77 316 q 68 278 77 289 q 43 269 57 269 l 43 269 m 130 269 q 107 278 118 269 q 95 304 95 289 q 104 326 95 315 q 130 338 117 338 q 152 328 141 338 q 164 304 164 316 q 155 278 164 289 q 130 269 144 269 l 130 269 m 217 269 q 194 278 205 269 q 182 304 182 289 q 191 326 182 315 q 217 338 203 338 q 239 328 228 338 q 251 304 251 316 q 241 278 251 289 q 217 269 231 269 l 217 269 m 43 363 q 26 372 34 363 q 16 391 16 380 q 24 407 16 399 q 43 416 33 416 q 60 408 52 416 q 69 391 69 400 q 61 372 69 380 q 43 363 54 363 l 43 363 m 130 363 q 113 372 121 363 q 103 391 103 380 q 111 407 103 399 q 130 416 119 416 q 146 408 138 416 q 156 391 156 400 q 148 372 156 380 q 130 363 141 363 l 130 363 m 217 363 q 199 372 208 363 q 190 391 190 380 q 198 407 190 399 q 217 416 206 416 q 233 408 225 416 q 243 391 243 400 q 235 372 243 380 q 217 363 228 363 l 217 363 m 43 450 q 26 458 34 450 q 16 477 16 467 q 24 494 16 486 q 43 503 33 503 q 60 495 52 503 q 69 477 69 487 q 61 458 69 467 q 43 450 54 450 l 43 450 m 130 450 q 113 458 121 450 q 103 477 103 467 q 111 494 103 486 q 130 503 119 503 q 146 495 138 503 q 156 477 156 487 q 148 458 156 467 q 130 450 141 450 l 130 450 m 217 450 q 199 458 208 450 q 190 477 190 467 q 198 494 190 486 q 217 503 206 503 q 233 495 225 503 q 243 477 243 487 q 235 458 243 467 q 217 450 228 450 l 217 450 m 43 529 q 20 538 31 529 q 8 564 8 549 q 18 586 8 575 q 43 598 30 598 q 65 589 54 598 q 77 564 77 576 q 68 538 77 549 q 43 529 57 529 l 43 529 m 130 529 q 107 538 118 529 q 95 564 95 549 q 104 586 95 575 q 130 598 117 598 q 152 589 141 598 q 164 564 164 576 q 155 538 164 549 q 130 529 144 529 l 130 529 m 217 529 q 194 538 205 529 q 182 564 182 549 q 191 586 182 575 q 217 598 203 598 q 239 589 228 598 q 251 564 251 576 q 241 538 251 549 q 217 529 231 529 l 217 529 m 43 616 q 20 625 31 616 q 8 651 8 636 q 18 673 8 662 q 43 685 30 685 q 65 675 54 685 q 77 651 77 663 q 68 625 77 636 q 43 616 57 616 l 43 616 m 130 616 q 107 625 118 616 q 95 651 95 636 q 104 673 95 662 q 130 685 117 685 q 152 675 141 685 q 164 651 164 663 q 155 625 164 636 q 130 616 144 616 l 130 616 m 217 616 q 194 625 205 616 q 182 651 182 636 q 191 673 182 662 q 217 685 203 685 q 239 675 228 685 q 251 651 251 663 q 241 625 251 636 q 217 616 231 616 l 217 616 m 43 694 q 12 707 24 694 q 0 738 0 719 q 12 768 0 755 q 43 781 24 781 q 73 768 61 781 q 87 738 87 755 q 73 707 87 719 q 43 694 61 694 l 43 694 m 130 694 q 99 707 111 694 q 87 738 87 719 q 99 768 87 755 q 130 781 111 781 q 160 768 148 781 q 174 738 174 755 q 160 707 174 719 q 130 694 148 694 l 130 694 m 217 694 q 186 707 198 694 q 174 738 174 719 q 186 768 174 755 q 217 781 198 781 q 247 768 235 781 q 260 738 260 755 q 247 707 260 719 q 217 694 235 694 l 217 694 m 43 781 q 12 793 24 781 q 0 825 0 806 q 12 854 0 842 q 43 868 24 868 q 73 854 61 868 q 87 825 87 842 q 73 793 87 806 q 43 781 61 781 l 43 781 m 130 781 q 99 793 111 781 q 87 825 87 806 q 99 854 87 842 q 130 868 111 868 q 160 854 148 868 q 174 825 174 842 q 160 793 174 806 q 130 781 148 781 l 130 781 m 217 781 q 186 793 198 781 q 174 825 174 806 q 186 854 174 842 q 217 868 198 868 q 247 854 235 868 q 260 825 260 842 q 247 793 260 806 q 217 781 235 781 l 217 781 z "},"\"":{"ha":868,"x_min":0,"x_max":694,"o":"m 43 616 q 20 625 31 616 q 8 651 8 636 q 18 673 8 662 q 43 685 30 685 q 65 675 54 685 q 77 651 77 663 q 68 625 77 636 q 43 616 57 616 l 43 616 m 130 616 q 107 625 118 616 q 95 651 95 636 q 104 673 95 662 q 130 685 117 685 q 152 675 141 685 q 164 651 164 663 q 155 625 164 636 q 130 616 144 616 l 130 616 m 477 616 q 454 625 465 616 q 442 651 442 636 q 452 673 442 662 q 477 685 464 685 q 499 675 488 685 q 511 651 511 663 q 502 625 511 636 q 477 616 491 616 l 477 616 m 564 616 q 541 625 552 616 q 529 651 529 636 q 538 673 529 662 q 564 685 551 685 q 586 675 575 685 q 598 651 598 663 q 589 625 598 636 q 564 616 578 616 l 564 616 m 43 694 q 12 707 24 694 q 0 738 0 719 q 12 768 0 755 q 43 781 24 781 q 73 768 61 781 q 87 738 87 755 q 73 707 87 719 q 43 694 61 694 l 43 694 m 130 694 q 99 707 111 694 q 87 738 87 719 q 99 768 87 755 q 130 781 111 781 q 160 768 148 781 q 174 738 174 755 q 160 707 174 719 q 130 694 148 694 l 130 694 m 217 694 q 186 707 198 694 q 174 738 174 719 q 186 768 174 755 q 217 781 198 781 q 247 768 235 781 q 260 738 260 755 q 247 707 260 719 q 217 694 235 694 l 217 694 m 477 694 q 446 707 458 694 q 434 738 434 719 q 446 768 434 755 q 477 781 458 781 q 507 768 495 781 q 521 738 521 755 q 507 707 521 719 q 477 694 495 694 l 477 694 m 564 694 q 533 707 545 694 q 521 738 521 719 q 533 768 521 755 q 564 781 545 781 q 594 768 582 781 q 608 738 608 755 q 594 707 608 719 q 564 694 582 694 l 564 694 m 651 694 q 620 707 632 694 q 608 738 608 719 q 620 768 608 755 q 651 781 632 781 q 681 768 669 781 q 694 738 694 755 q 681 707 694 719 q 651 694 669 694 l 651 694 m 43 781 q 12 793 24 781 q 0 825 0 806 q 12 854 0 842 q 43 868 24 868 q 73 854 61 868 q 87 825 87 842 q 73 793 87 806 q 43 781 61 781 l 43 781 m 130 781 q 99 793 111 781 q 87 825 87 806 q 99 854 87 842 q 130 868 111 868 q 160 854 148 868 q 174 825 174 842 q 160 793 174 806 q 130 781 148 781 l 130 781 m 217 781 q 186 793 198 781 q 174 825 174 806 q 186 854 174 842 q 217 868 198 868 q 247 854 235 868 q 260 825 260 842 q 247 793 260 806 q 217 781 235 781 l 217 781 m 477 781 q 446 793 458 781 q 434 825 434 806 q 446 854 434 842 q 477 868 458 868 q 507 854 495 868 q 521 825 521 842 q 507 793 521 806 q 477 781 495 781 l 477 781 m 564 781 q 533 793 545 781 q 521 825 521 806 q 533 854 521 842 q 564 868 545 868 q 594 854 582 868 q 608 825 608 842 q 594 793 608 806 q 564 781 582 781 l 564 781 m 651 781 q 620 793 632 781 q 608 825 608 806 q 620 854 608 842 q 651 868 632 868 q 681 854 669 868 q 694 825 694 842 q 681 793 694 806 q 651 781 669 781 l 651 781 z "},"$":{"ha":1302,"x_min":0,"x_max":1128,"o":"m 477 -174 q 446 -160 458 -174 q 434 -130 434 -148 q 446 -99 434 -111 q 477 -87 458 -87 q 507 -99 495 -87 q 521 -130 521 -111 q 507 -160 521 -148 q 477 -174 495 -174 l 477 -174 m 564 -174 q 533 -160 545 -174 q 521 -130 521 -148 q 533 -99 521 -111 q 564 -87 545 -87 q 594 -99 582 -87 q 608 -130 608 -111 q 594 -160 608 -148 q 564 -174 582 -174 l 564 -174 m 651 -174 q 620 -160 632 -174 q 608 -130 608 -148 q 620 -99 608 -111 q 651 -87 632 -87 q 681 -99 669 -87 q 694 -130 694 -111 q 681 -160 694 -148 q 651 -174 669 -174 l 651 -174 m 477 -87 q 446 -73 458 -87 q 434 -43 434 -61 q 446 -12 434 -24 q 477 0 458 0 q 507 -12 495 0 q 521 -43 521 -24 q 507 -73 521 -61 q 477 -87 495 -87 l 477 -87 m 564 -87 q 533 -73 545 -87 q 521 -43 521 -61 q 533 -12 521 -24 q 564 0 545 0 q 594 -12 582 0 q 608 -43 608 -24 q 594 -73 608 -61 q 564 -87 582 -87 l 564 -87 m 651 -87 q 620 -73 632 -87 q 608 -43 608 -61 q 620 -12 608 -24 q 651 0 632 0 q 681 -12 669 0 q 694 -43 694 -24 q 681 -73 694 -61 q 651 -87 669 -87 l 651 -87 m 43 0 q 12 12 24 0 q 0 43 0 24 q 12 73 0 61 q 43 87 24 87 q 73 73 61 87 q 87 43 87 61 q 73 12 87 24 q 43 0 61 0 l 43 0 m 130 0 q 99 12 111 0 q 87 43 87 24 q 99 73 87 61 q 130 87 111 87 q 160 73 148 87 q 174 43 174 61 q 160 12 174 24 q 130 0 148 0 l 130 0 m 217 0 q 186 12 198 0 q 174 43 174 24 q 186 73 174 61 q 217 87 198 87 q 247 73 235 87 q 260 43 260 61 q 247 12 260 24 q 217 0 235 0 l 217 0 m 304 0 q 273 12 285 0 q 260 43 260 24 q 273 73 260 61 q 304 87 285 87 q 334 73 321 87 q 347 43 347 61 q 334 12 347 24 q 304 0 321 0 l 304 0 m 391 0 q 359 12 372 0 q 347 43 347 24 q 359 73 347 61 q 391 87 372 87 q 420 73 408 87 q 434 43 434 61 q 420 12 434 24 q 391 0 408 0 l 391 0 m 477 0 q 446 12 458 0 q 434 43 434 24 q 446 73 434 61 q 477 87 458 87 q 507 73 495 87 q 521 43 521 61 q 507 12 521 24 q 477 0 495 0 l 477 0 m 564 0 q 533 12 545 0 q 521 43 521 24 q 533 73 521 61 q 564 87 545 87 q 594 73 582 87 q 608 43 608 61 q 594 12 608 24 q 564 0 582 0 l 564 0 m 651 0 q 620 12 632 0 q 608 43 608 24 q 620 73 608 61 q 651 87 632 87 q 681 73 669 87 q 694 43 694 61 q 681 12 694 24 q 651 0 669 0 l 651 0 m 738 0 q 707 12 719 0 q 694 43 694 24 q 707 73 694 61 q 738 87 719 87 q 768 73 755 87 q 781 43 781 61 q 768 12 781 24 q 738 0 755 0 l 738 0 m 825 0 q 793 12 806 0 q 781 43 781 24 q 793 73 781 61 q 825 87 806 87 q 854 73 842 87 q 868 43 868 61 q 854 12 868 24 q 825 0 842 0 l 825 0 m 911 0 q 880 12 892 0 q 868 43 868 24 q 880 73 868 61 q 911 87 892 87 q 941 73 929 87 q 955 43 955 61 q 941 12 955 24 q 911 0 929 0 l 911 0 m 43 87 q 12 99 24 87 q 0 130 0 111 q 12 160 0 148 q 43 174 24 174 q 73 160 61 174 q 87 130 87 148 q 73 99 87 111 q 43 87 61 87 l 43 87 m 130 87 q 99 99 111 87 q 87 130 87 111 q 99 160 87 148 q 130 174 111 174 q 160 160 148 174 q 174 130 174 148 q 160 99 174 111 q 130 87 148 87 l 130 87 m 217 87 q 186 99 198 87 q 174 130 174 111 q 186 160 174 148 q 217 174 198 174 q 247 160 235 174 q 260 130 260 148 q 247 99 260 111 q 217 87 235 87 l 217 87 m 304 87 q 273 99 285 87 q 260 130 260 111 q 273 160 260 148 q 304 174 285 174 q 334 160 321 174 q 347 130 347 148 q 334 99 347 111 q 304 87 321 87 l 304 87 m 391 87 q 359 99 372 87 q 347 130 347 111 q 359 160 347 148 q 391 174 372 174 q 420 160 408 174 q 434 130 434 148 q 420 99 434 111 q 391 87 408 87 l 391 87 m 477 87 q 446 99 458 87 q 434 130 434 111 q 446 160 434 148 q 477 174 458 174 q 507 160 495 174 q 521 130 521 148 q 507 99 521 111 q 477 87 495 87 l 477 87 m 564 87 q 533 99 545 87 q 521 130 521 111 q 533 160 521 148 q 564 174 545 174 q 594 160 582 174 q 608 130 608 148 q 594 99 608 111 q 564 87 582 87 l 564 87 m 651 87 q 620 99 632 87 q 608 130 608 111 q 620 160 608 148 q 651 174 632 174 q 681 160 669 174 q 694 130 694 148 q 681 99 694 111 q 651 87 669 87 l 651 87 m 738 87 q 707 99 719 87 q 694 130 694 111 q 707 160 694 148 q 738 174 719 174 q 768 160 755 174 q 781 130 781 148 q 768 99 781 111 q 738 87 755 87 l 738 87 m 825 87 q 793 99 806 87 q 781 130 781 111 q 793 160 781 148 q 825 174 806 174 q 854 160 842 174 q 868 130 868 148 q 854 99 868 111 q 825 87 842 87 l 825 87 m 911 87 q 880 99 892 87 q 868 130 868 111 q 880 160 868 148 q 911 174 892 174 q 941 160 929 174 q 955 130 955 148 q 941 99 955 111 q 911 87 929 87 l 911 87 m 998 87 q 967 99 979 87 q 955 130 955 111 q 967 160 955 148 q 998 174 979 174 q 1028 160 1016 174 q 1042 130 1042 148 q 1028 99 1042 111 q 998 87 1016 87 l 998 87 m 911 182 q 888 191 899 182 q 876 217 876 202 q 886 239 876 228 q 911 251 898 251 q 933 241 922 251 q 945 217 945 229 q 936 191 945 202 q 911 182 925 182 l 911 182 m 998 182 q 975 191 986 182 q 963 217 963 202 q 972 239 963 228 q 998 251 985 251 q 1020 241 1009 251 q 1032 217 1032 229 q 1023 191 1032 202 q 998 182 1012 182 l 998 182 m 1085 182 q 1062 191 1073 182 q 1050 217 1050 202 q 1059 239 1050 228 q 1085 251 1072 251 q 1107 241 1096 251 q 1119 217 1119 229 q 1109 191 1119 202 q 1085 182 1099 182 l 1085 182 m 825 269 q 802 278 812 269 q 789 304 789 289 q 799 326 789 315 q 825 338 811 338 q 846 328 836 338 q 859 304 859 316 q 849 278 859 289 q 825 269 838 269 l 825 269 m 911 269 q 888 278 899 269 q 876 304 876 289 q 886 326 876 315 q 911 338 898 338 q 933 328 922 338 q 945 304 945 316 q 936 278 945 289 q 911 269 925 269 l 911 269 m 998 269 q 975 278 986 269 q 963 304 963 289 q 972 326 963 315 q 998 338 985 338 q 1020 328 1009 338 q 1032 304 1032 316 q 1023 278 1032 289 q 998 269 1012 269 l 998 269 m 1085 269 q 1062 278 1073 269 q 1050 304 1050 289 q 1059 326 1050 315 q 1085 338 1072 338 q 1107 328 1096 338 q 1119 304 1119 316 q 1109 278 1119 289 q 1085 269 1099 269 l 1085 269 m 217 363 q 199 372 208 363 q 190 391 190 380 q 198 407 190 399 q 217 416 206 416 q 233 408 225 416 q 243 391 243 400 q 235 372 243 380 q 217 363 228 363 l 217 363 m 304 363 q 286 372 294 363 q 277 391 277 380 q 285 407 277 399 q 304 416 293 416 q 320 408 312 416 q 330 391 330 400 q 321 372 330 380 q 304 363 315 363 l 304 363 m 391 363 q 373 372 381 363 q 363 391 363 380 q 372 407 363 399 q 391 416 380 416 q 407 408 399 416 q 416 391 416 400 q 408 372 416 380 q 391 363 401 363 l 391 363 m 477 363 q 460 372 468 363 q 450 391 450 380 q 458 407 450 399 q 477 416 467 416 q 494 408 486 416 q 503 391 503 400 q 495 372 503 380 q 477 363 488 363 l 477 363 m 564 363 q 547 372 555 363 q 537 391 537 380 q 545 407 537 399 q 564 416 553 416 q 581 408 572 416 q 590 391 590 400 q 582 372 590 380 q 564 363 575 363 l 564 363 m 651 363 q 633 372 642 363 q 624 391 624 380 q 632 407 624 399 q 651 416 640 416 q 667 408 659 416 q 677 391 677 400 q 669 372 677 380 q 651 363 662 363 l 651 363 m 738 363 q 720 372 728 363 q 711 391 711 380 q 719 407 711 399 q 738 416 727 416 q 754 408 746 416 q 764 391 764 400 q 755 372 764 380 q 738 363 749 363 l 738 363 m 825 363 q 807 372 815 363 q 798 391 798 380 q 806 407 798 399 q 825 416 814 416 q 841 408 833 416 q 850 391 850 400 q 842 372 850 380 q 825 363 836 363 l 825 363 m 911 363 q 894 372 902 363 q 884 391 884 380 q 892 407 884 399 q 911 416 901 416 q 928 408 920 416 q 937 391 937 400 q 929 372 937 380 q 911 363 922 363 l 911 363 m 998 363 q 981 372 989 363 q 971 391 971 380 q 979 407 971 399 q 998 416 987 416 q 1015 408 1006 416 q 1024 391 1024 400 q 1016 372 1024 380 q 998 363 1009 363 l 998 363 m 130 450 q 113 458 121 450 q 103 477 103 467 q 111 494 103 486 q 130 503 119 503 q 146 495 138 503 q 156 477 156 487 q 148 458 156 467 q 130 450 141 450 l 130 450 m 217 450 q 199 458 208 450 q 190 477 190 467 q 198 494 190 486 q 217 503 206 503 q 233 495 225 503 q 243 477 243 487 q 235 458 243 467 q 217 450 228 450 l 217 450 m 304 450 q 286 458 294 450 q 277 477 277 467 q 285 494 277 486 q 304 503 293 503 q 320 495 312 503 q 330 477 330 487 q 321 458 330 467 q 304 450 315 450 l 304 450 m 391 450 q 373 458 381 450 q 363 477 363 467 q 372 494 363 486 q 391 503 380 503 q 407 495 399 503 q 416 477 416 487 q 408 458 416 467 q 391 450 401 450 l 391 450 m 477 450 q 460 458 468 450 q 450 477 450 467 q 458 494 450 486 q 477 503 467 503 q 494 495 486 503 q 503 477 503 487 q 495 458 503 467 q 477 450 488 450 l 477 450 m 564 450 q 547 458 555 450 q 537 477 537 467 q 545 494 537 486 q 564 503 553 503 q 581 495 572 503 q 590 477 590 487 q 582 458 590 467 q 564 450 575 450 l 564 450 m 651 450 q 633 458 642 450 q 624 477 624 467 q 632 494 624 486 q 651 503 640 503 q 667 495 659 503 q 677 477 677 487 q 669 458 677 467 q 651 450 662 450 l 651 450 m 738 450 q 720 458 728 450 q 711 477 711 467 q 719 494 711 486 q 738 503 727 503 q 754 495 746 503 q 764 477 764 487 q 755 458 764 467 q 738 450 749 450 l 738 450 m 825 450 q 807 458 815 450 q 798 477 798 467 q 806 494 798 486 q 825 503 814 503 q 841 495 833 503 q 850 477 850 487 q 842 458 850 467 q 825 450 836 450 l 825 450 m 911 450 q 894 458 902 450 q 884 477 884 467 q 892 494 884 486 q 911 503 901 503 q 928 495 920 503 q 937 477 937 487 q 929 458 937 467 q 911 450 922 450 l 911 450 m 43 529 q 20 538 31 529 q 8 564 8 549 q 18 586 8 575 q 43 598 30 598 q 65 589 54 598 q 77 564 77 576 q 68 538 77 549 q 43 529 57 529 l 43 529 m 130 529 q 107 538 118 529 q 95 564 95 549 q 104 586 95 575 q 130 598 117 598 q 152 589 141 598 q 164 564 164 576 q 155 538 164 549 q 130 529 144 529 l 130 529 m 217 529 q 194 538 205 529 q 182 564 182 549 q 191 586 182 575 q 217 598 203 598 q 239 589 228 598 q 251 564 251 576 q 241 538 251 549 q 217 529 231 529 l 217 529 m 304 529 q 281 538 292 529 q 269 564 269 549 q 278 586 269 575 q 304 598 290 598 q 326 589 315 598 q 338 564 338 576 q 328 538 338 549 q 304 529 317 529 l 304 529 m 43 616 q 20 625 31 616 q 8 651 8 636 q 18 673 8 662 q 43 685 30 685 q 65 675 54 685 q 77 651 77 663 q 68 625 77 636 q 43 616 57 616 l 43 616 m 130 616 q 107 625 118 616 q 95 651 95 636 q 104 673 95 662 q 130 685 117 685 q 152 675 141 685 q 164 651 164 663 q 155 625 164 636 q 130 616 144 616 l 130 616 m 217 616 q 194 625 205 616 q 182 651 182 636 q 191 673 182 662 q 217 685 203 685 q 239 675 228 685 q 251 651 251 663 q 241 625 251 636 q 217 616 231 616 l 217 616 m 130 694 q 99 707 111 694 q 87 738 87 719 q 99 768 87 755 q 130 781 111 781 q 160 768 148 781 q 174 738 174 755 q 160 707 174 719 q 130 694 148 694 l 130 694 m 217 694 q 186 707 198 694 q 174 738 174 719 q 186 768 174 755 q 217 781 198 781 q 247 768 235 781 q 260 738 260 755 q 247 707 260 719 q 217 694 235 694 l 217 694 m 304 694 q 273 707 285 694 q 260 738 260 719 q 273 768 260 755 q 304 781 285 781 q 334 768 321 781 q 347 738 347 755 q 334 707 347 719 q 304 694 321 694 l 304 694 m 391 694 q 359 707 372 694 q 347 738 347 719 q 359 768 347 755 q 391 781 372 781 q 420 768 408 781 q 434 738 434 755 q 420 707 434 719 q 391 694 408 694 l 391 694 m 477 694 q 446 707 458 694 q 434 738 434 719 q 446 768 434 755 q 477 781 458 781 q 507 768 495 781 q 521 738 521 755 q 507 707 521 719 q 477 694 495 694 l 477 694 m 564 694 q 533 707 545 694 q 521 738 521 719 q 533 768 521 755 q 564 781 545 781 q 594 768 582 781 q 608 738 608 755 q 594 707 608 719 q 564 694 582 694 l 564 694 m 651 694 q 620 707 632 694 q 608 738 608 719 q 620 768 608 755 q 651 781 632 781 q 681 768 669 781 q 694 738 694 755 q 681 707 694 719 q 651 694 669 694 l 651 694 m 738 694 q 707 707 719 694 q 694 738 694 719 q 707 768 694 755 q 738 781 719 781 q 768 768 755 781 q 781 738 781 755 q 768 707 781 719 q 738 694 755 694 l 738 694 m 825 694 q 793 707 806 694 q 781 738 781 719 q 793 768 781 755 q 825 781 806 781 q 854 768 842 781 q 868 738 868 755 q 854 707 868 719 q 825 694 842 694 l 825 694 m 911 694 q 880 707 892 694 q 868 738 868 719 q 880 768 868 755 q 911 781 892 781 q 941 768 929 781 q 955 738 955 755 q 941 707 955 719 q 911 694 929 694 l 911 694 m 998 694 q 967 707 979 694 q 955 738 955 719 q 967 768 955 755 q 998 781 979 781 q 1028 768 1016 781 q 1042 738 1042 755 q 1028 707 1042 719 q 998 694 1016 694 l 998 694 m 1085 694 q 1054 707 1066 694 q 1042 738 1042 719 q 1054 768 1042 755 q 1085 781 1066 781 q 1115 768 1103 781 q 1128 738 1128 755 q 1115 707 1128 719 q 1085 694 1103 694 l 1085 694 m 217 781 q 186 793 198 781 q 174 825 174 806 q 186 854 174 842 q 217 868 198 868 q 247 854 235 868 q 260 825 260 842 q 247 793 260 806 q 217 781 235 781 l 217 781 m 304 781 q 273 793 285 781 q 260 825 260 806 q 273 854 260 842 q 304 868 285 868 q 334 854 321 868 q 347 825 347 842 q 334 793 347 806 q 304 781 321 781 l 304 781 m 391 781 q 359 793 372 781 q 347 825 347 806 q 359 854 347 842 q 391 868 372 868 q 420 854 408 868 q 434 825 434 842 q 420 793 434 806 q 391 781 408 781 l 391 781 m 477 781 q 446 793 458 781 q 434 825 434 806 q 446 854 434 842 q 477 868 458 868 q 507 854 495 868 q 521 825 521 842 q 507 793 521 806 q 477 781 495 781 l 477 781 m 564 781 q 533 793 545 781 q 521 825 521 806 q 533 854 521 842 q 564 868 545 868 q 594 854 582 868 q 608 825 608 842 q 594 793 608 806 q 564 781 582 781 l 564 781 m 651 781 q 620 793 632 781 q 608 825 608 806 q 620 854 608 842 q 651 868 632 868 q 681 854 669 868 q 694 825 694 842 q 681 793 694 806 q 651 781 669 781 l 651 781 m 738 781 q 707 793 719 781 q 694 825 694 806 q 707 854 694 842 q 738 868 719 868 q 768 854 755 868 q 781 825 781 842 q 768 793 781 806 q 738 781 755 781 l 738 781 m 825 781 q 793 793 806 781 q 781 825 781 806 q 793 854 781 842 q 825 868 806 868 q 854 854 842 868 q 868 825 868 842 q 854 793 868 806 q 825 781 842 781 l 825 781 m 911 781 q 880 793 892 781 q 868 825 868 806 q 880 854 868 842 q 911 868 892 868 q 941 854 929 868 q 955 825 955 842 q 941 793 955 806 q 911 781 929 781 l 911 781 m 998 781 q 967 793 979 781 q 955 825 955 806 q 967 854 955 842 q 998 868 979 868 q 1028 854 1016 868 q 1042 825 1042 842 q 1028 793 1042 806 q 998 781 1016 781 l 998 781 m 1085 781 q 1054 793 1066 781 q 1042 825 1042 806 q 1054 854 1042 842 q 1085 868 1066 868 q 1115 854 1103 868 q 1128 825 1128 842 q 1115 793 1128 806 q 1085 781 1103 781 l 1085 781 m 477 868 q 446 880 458 868 q 434 911 434 892 q 446 941 434 929 q 477 955 458 955 q 507 941 495 955 q 521 911 521 929 q 507 880 521 892 q 477 868 495 868 l 477 868 m 564 868 q 533 880 545 868 q 521 911 521 892 q 533 941 521 929 q 564 955 545 955 q 594 941 582 955 q 608 911 608 929 q 594 880 608 892 q 564 868 582 868 l 564 868 m 651 868 q 620 880 632 868 q 608 911 608 892 q 620 941 608 929 q 651 955 632 955 q 681 941 669 955 q 694 911 694 929 q 681 880 694 892 q 651 868 669 868 l 651 868 m 477 955 q 446 967 458 955 q 434 998 434 979 q 446 1028 434 1016 q 477 1042 458 1042 q 507 1028 495 1042 q 521 998 521 1016 q 507 967 521 979 q 477 955 495 955 l 477 955 m 564 955 q 533 967 545 955 q 521 998 521 979 q 533 1028 521 1016 q 564 1042 545 1042 q 594 1028 582 1042 q 608 998 608 1016 q 594 967 608 979 q 564 955 582 955 l 564 955 m 651 955 q 620 967 632 955 q 608 998 608 979 q 620 1028 608 1016 q 651 1042 632 1042 q 681 1028 669 1042 q 694 998 694 1016 q 681 967 694 979 q 651 955 669 955 l 651 955 z "},"%":{"ha":1302,"x_min":0,"x_max":1128,"o":"m 43 0 q 12 12 24 0 q 0 43 0 24 q 12 73 0 61 q 43 87 24 87 q 73 73 61 87 q 87 43 87 61 q 73 12 87 24 q 43 0 61 0 l 43 0 m 130 0 q 99 12 111 0 q 87 43 87 24 q 99 73 87 61 q 130 87 111 87 q 160 73 148 87 q 174 43 174 61 q 160 12 174 24 q 130 0 148 0 l 130 0 m 217 0 q 186 12 198 0 q 174 43 174 24 q 186 73 174 61 q 217 87 198 87 q 247 73 235 87 q 260 43 260 61 q 247 12 260 24 q 217 0 235 0 l 217 0 m 304 0 q 273 12 285 0 q 260 43 260 24 q 273 73 260 61 q 304 87 285 87 q 334 73 321 87 q 347 43 347 61 q 334 12 347 24 q 304 0 321 0 l 304 0 m 391 0 q 359 12 372 0 q 347 43 347 24 q 359 73 347 61 q 391 87 372 87 q 420 73 408 87 q 434 43 434 61 q 420 12 434 24 q 391 0 408 0 l 391 0 m 477 0 q 446 12 458 0 q 434 43 434 24 q 446 73 434 61 q 477 87 458 87 q 507 73 495 87 q 521 43 521 61 q 507 12 521 24 q 477 0 495 0 l 477 0 m 564 0 q 533 12 545 0 q 521 43 521 24 q 533 73 521 61 q 564 87 545 87 q 594 73 582 87 q 608 43 608 61 q 594 12 608 24 q 564 0 582 0 l 564 0 m 651 0 q 620 12 632 0 q 608 43 608 24 q 620 73 608 61 q 651 87 632 87 q 681 73 669 87 q 694 43 694 61 q 681 12 694 24 q 651 0 669 0 l 651 0 m 738 0 q 707 12 719 0 q 694 43 694 24 q 707 73 694 61 q 738 87 719 87 q 768 73 755 87 q 781 43 781 61 q 768 12 781 24 q 738 0 755 0 l 738 0 m 825 0 q 793 12 806 0 q 781 43 781 24 q 793 73 781 61 q 825 87 806 87 q 854 73 842 87 q 868 43 868 61 q 854 12 868 24 q 825 0 842 0 l 825 0 m 911 0 q 880 12 892 0 q 868 43 868 24 q 880 73 868 61 q 911 87 892 87 q 941 73 929 87 q 955 43 955 61 q 941 12 955 24 q 911 0 929 0 l 911 0 m 998 0 q 967 12 979 0 q 955 43 955 24 q 967 73 955 61 q 998 87 979 87 q 1028 73 1016 87 q 1042 43 1042 61 q 1028 12 1042 24 q 998 0 1016 0 l 998 0 m 1085 0 q 1054 12 1066 0 q 1042 43 1042 24 q 1054 73 1042 61 q 1085 87 1066 87 q 1115 73 1103 87 q 1128 43 1128 61 q 1115 12 1128 24 q 1085 0 1103 0 l 1085 0 m 43 87 q 12 99 24 87 q 0 130 0 111 q 12 160 0 148 q 43 174 24 174 q 73 160 61 174 q 87 130 87 148 q 73 99 87 111 q 43 87 61 87 l 43 87 m 130 87 q 99 99 111 87 q 87 130 87 111 q 99 160 87 148 q 130 174 111 174 q 160 160 148 174 q 174 130 174 148 q 160 99 174 111 q 130 87 148 87 l 130 87 m 217 87 q 186 99 198 87 q 174 130 174 111 q 186 160 174 148 q 217 174 198 174 q 247 160 235 174 q 260 130 260 148 q 247 99 260 111 q 217 87 235 87 l 217 87 m 304 87 q 273 99 285 87 q 260 130 260 111 q 273 160 260 148 q 304 174 285 174 q 334 160 321 174 q 347 130 347 148 q 334 99 347 111 q 304 87 321 87 l 304 87 m 391 87 q 359 99 372 87 q 347 130 347 111 q 359 160 347 148 q 391 174 372 174 q 420 160 408 174 q 434 130 434 148 q 420 99 434 111 q 391 87 408 87 l 391 87 m 477 87 q 446 99 458 87 q 434 130 434 111 q 446 160 434 148 q 477 174 458 174 q 507 160 495 174 q 521 130 521 148 q 507 99 521 111 q 477 87 495 87 l 477 87 m 564 87 q 533 99 545 87 q 521 130 521 111 q 533 160 521 148 q 564 174 545 174 q 594 160 582 174 q 608 130 608 148 q 594 99 608 111 q 564 87 582 87 l 564 87 m 651 87 q 620 99 632 87 q 608 130 608 111 q 620 160 608 148 q 651 174 632 174 q 681 160 669 174 q 694 130 694 148 q 681 99 694 111 q 651 87 669 87 l 651 87 m 738 87 q 707 99 719 87 q 694 130 694 111 q 707 160 694 148 q 738 174 719 174 q 768 160 755 174 q 781 130 781 148 q 768 99 781 111 q 738 87 755 87 l 738 87 m 825 87 q 793 99 806 87 q 781 130 781 111 q 793 160 781 148 q 825 174 806 174 q 854 160 842 174 q 868 130 868 148 q 854 99 868 111 q 825 87 842 87 l 825 87 m 911 87 q 880 99 892 87 q 868 130 868 111 q 880 160 868 148 q 911 174 892 174 q 941 160 929 174 q 955 130 955 148 q 941 99 955 111 q 911 87 929 87 l 911 87 m 998 87 q 967 99 979 87 q 955 130 955 111 q 967 160 955 148 q 998 174 979 174 q 1028 160 1016 174 q 1042 130 1042 148 q 1028 99 1042 111 q 998 87 1016 87 l 998 87 m 1085 87 q 1054 99 1066 87 q 1042 130 1042 111 q 1054 160 1042 148 q 1085 174 1066 174 q 1115 160 1103 174 q 1128 130 1128 148 q 1115 99 1128 111 q 1085 87 1103 87 l 1085 87 m 43 182 q 20 191 31 182 q 8 217 8 202 q 18 239 8 228 q 43 251 30 251 q 65 241 54 251 q 77 217 77 229 q 68 191 77 202 q 43 182 57 182 l 43 182 m 130 182 q 107 191 118 182 q 95 217 95 202 q 104 239 95 228 q 130 251 117 251 q 152 241 141 251 q 164 217 164 229 q 155 191 164 202 q 130 182 144 182 l 130 182 m 217 182 q 194 191 205 182 q 182 217 182 202 q 191 239 182 228 q 217 251 203 251 q 239 241 228 251 q 251 217 251 229 q 241 191 251 202 q 217 182 231 182 l 217 182 m 304 182 q 281 191 292 182 q 269 217 269 202 q 278 239 269 228 q 304 251 290 251 q 326 241 315 251 q 338 217 338 229 q 328 191 338 202 q 304 182 317 182 l 304 182 m 391 182 q 368 191 378 182 q 355 217 355 202 q 365 239 355 228 q 391 251 377 251 q 412 241 401 251 q 425 217 425 229 q 415 191 425 202 q 391 182 404 182 l 391 182 m 477 182 q 454 191 465 182 q 442 217 442 202 q 452 239 442 228 q 477 251 464 251 q 499 241 488 251 q 511 217 511 229 q 502 191 511 202 q 477 182 491 182 l 477 182 m 564 182 q 541 191 552 182 q 529 217 529 202 q 538 239 529 228 q 564 251 551 251 q 586 241 575 251 q 598 217 598 229 q 589 191 598 202 q 564 182 578 182 l 564 182 m 651 182 q 628 191 639 182 q 616 217 616 202 q 625 239 616 228 q 651 251 637 251 q 673 241 662 251 q 685 217 685 229 q 675 191 685 202 q 651 182 665 182 l 651 182 m 738 182 q 715 191 726 182 q 703 217 703 202 q 712 239 703 228 q 738 251 724 251 q 760 241 749 251 q 772 217 772 229 q 762 191 772 202 q 738 182 751 182 l 738 182 m 825 182 q 802 191 812 182 q 789 217 789 202 q 799 239 789 228 q 825 251 811 251 q 846 241 836 251 q 859 217 859 229 q 849 191 859 202 q 825 182 838 182 l 825 182 m 911 182 q 888 191 899 182 q 876 217 876 202 q 886 239 876 228 q 911 251 898 251 q 933 241 922 251 q 945 217 945 229 q 936 191 945 202 q 911 182 925 182 l 911 182 m 998 182 q 975 191 986 182 q 963 217 963 202 q 972 239 963 228 q 998 251 985 251 q 1020 241 1009 251 q 1032 217 1032 229 q 1023 191 1032 202 q 998 182 1012 182 l 998 182 m 1085 182 q 1062 191 1073 182 q 1050 217 1050 202 q 1059 239 1050 228 q 1085 251 1072 251 q 1107 241 1096 251 q 1119 217 1119 229 q 1109 191 1119 202 q 1085 182 1099 182 l 1085 182 m 43 269 q 20 278 31 269 q 8 304 8 289 q 18 326 8 315 q 43 338 30 338 q 65 328 54 338 q 77 304 77 316 q 68 278 77 289 q 43 269 57 269 l 43 269 m 130 269 q 107 278 118 269 q 95 304 95 289 q 104 326 95 315 q 130 338 117 338 q 152 328 141 338 q 164 304 164 316 q 155 278 164 289 q 130 269 144 269 l 130 269 m 217 269 q 194 278 205 269 q 182 304 182 289 q 191 326 182 315 q 217 338 203 338 q 239 328 228 338 q 251 304 251 316 q 241 278 251 289 q 217 269 231 269 l 217 269 m 304 269 q 281 278 292 269 q 269 304 269 289 q 278 326 269 315 q 304 338 290 338 q 326 328 315 338 q 338 304 338 316 q 328 278 338 289 q 304 269 317 269 l 304 269 m 391 269 q 368 278 378 269 q 355 304 355 289 q 365 326 355 315 q 391 338 377 338 q 412 328 401 338 q 425 304 425 316 q 415 278 425 289 q 391 269 404 269 l 391 269 m 477 269 q 454 278 465 269 q 442 304 442 289 q 452 326 442 315 q 477 338 464 338 q 499 328 488 338 q 511 304 511 316 q 502 278 511 289 q 477 269 491 269 l 477 269 m 564 269 q 541 278 552 269 q 529 304 529 289 q 538 326 529 315 q 564 338 551 338 q 586 328 575 338 q 598 304 598 316 q 589 278 598 289 q 564 269 578 269 l 564 269 m 651 269 q 628 278 639 269 q 616 304 616 289 q 625 326 616 315 q 651 338 637 338 q 673 328 662 338 q 685 304 685 316 q 675 278 685 289 q 651 269 665 269 l 651 269 m 738 269 q 715 278 726 269 q 703 304 703 289 q 712 326 703 315 q 738 338 724 338 q 760 328 749 338 q 772 304 772 316 q 762 278 772 289 q 738 269 751 269 l 738 269 m 825 269 q 802 278 812 269 q 789 304 789 289 q 799 326 789 315 q 825 338 811 338 q 846 328 836 338 q 859 304 859 316 q 849 278 859 289 q 825 269 838 269 l 825 269 m 911 269 q 888 278 899 269 q 876 304 876 289 q 886 326 876 315 q 911 338 898 338 q 933 328 922 338 q 945 304 945 316 q 936 278 945 289 q 911 269 925 269 l 911 269 m 998 269 q 975 278 986 269 q 963 304 963 289 q 972 326 963 315 q 998 338 985 338 q 1020 328 1009 338 q 1032 304 1032 316 q 1023 278 1032 289 q 998 269 1012 269 l 998 269 m 1085 269 q 1062 278 1073 269 q 1050 304 1050 289 q 1059 326 1050 315 q 1085 338 1072 338 q 1107 328 1096 338 q 1119 304 1119 316 q 1109 278 1119 289 q 1085 269 1099 269 l 1085 269 m 43 363 q 26 372 34 363 q 16 391 16 380 q 24 407 16 399 q 43 416 33 416 q 60 408 52 416 q 69 391 69 400 q 61 372 69 380 q 43 363 54 363 l 43 363 m 130 363 q 113 372 121 363 q 103 391 103 380 q 111 407 103 399 q 130 416 119 416 q 146 408 138 416 q 156 391 156 400 q 148 372 156 380 q 130 363 141 363 l 130 363 m 217 363 q 199 372 208 363 q 190 391 190 380 q 198 407 190 399 q 217 416 206 416 q 233 408 225 416 q 243 391 243 400 q 235 372 243 380 q 217 363 228 363 l 217 363 m 304 363 q 286 372 294 363 q 277 391 277 380 q 285 407 277 399 q 304 416 293 416 q 320 408 312 416 q 330 391 330 400 q 321 372 330 380 q 304 363 315 363 l 304 363 m 391 363 q 373 372 381 363 q 363 391 363 380 q 372 407 363 399 q 391 416 380 416 q 407 408 399 416 q 416 391 416 400 q 408 372 416 380 q 391 363 401 363 l 391 363 m 477 363 q 460 372 468 363 q 450 391 450 380 q 458 407 450 399 q 477 416 467 416 q 494 408 486 416 q 503 391 503 400 q 495 372 503 380 q 477 363 488 363 l 477 363 m 564 363 q 547 372 555 363 q 537 391 537 380 q 545 407 537 399 q 564 416 553 416 q 581 408 572 416 q 590 391 590 400 q 582 372 590 380 q 564 363 575 363 l 564 363 m 651 363 q 633 372 642 363 q 624 391 624 380 q 632 407 624 399 q 651 416 640 416 q 667 408 659 416 q 677 391 677 400 q 669 372 677 380 q 651 363 662 363 l 651 363 m 738 363 q 720 372 728 363 q 711 391 711 380 q 719 407 711 399 q 738 416 727 416 q 754 408 746 416 q 764 391 764 400 q 755 372 764 380 q 738 363 749 363 l 738 363 m 825 363 q 807 372 815 363 q 798 391 798 380 q 806 407 798 399 q 825 416 814 416 q 841 408 833 416 q 850 391 850 400 q 842 372 850 380 q 825 363 836 363 l 825 363 m 911 363 q 894 372 902 363 q 884 391 884 380 q 892 407 884 399 q 911 416 901 416 q 928 408 920 416 q 937 391 937 400 q 929 372 937 380 q 911 363 922 363 l 911 363 m 998 363 q 981 372 989 363 q 971 391 971 380 q 979 407 971 399 q 998 416 987 416 q 1015 408 1006 416 q 1024 391 1024 400 q 1016 372 1024 380 q 998 363 1009 363 l 998 363 m 1085 363 q 1067 372 1076 363 q 1058 391 1058 380 q 1066 407 1058 399 q 1085 416 1074 416 q 1101 408 1093 416 q 1111 391 1111 400 q 1103 372 1111 380 q 1085 363 1096 363 l 1085 363 m 43 450 q 26 458 34 450 q 16 477 16 467 q 24 494 16 486 q 43 503 33 503 q 60 495 52 503 q 69 477 69 487 q 61 458 69 467 q 43 450 54 450 l 43 450 m 130 450 q 113 458 121 450 q 103 477 103 467 q 111 494 103 486 q 130 503 119 503 q 146 495 138 503 q 156 477 156 487 q 148 458 156 467 q 130 450 141 450 l 130 450 m 217 450 q 199 458 208 450 q 190 477 190 467 q 198 494 190 486 q 217 503 206 503 q 233 495 225 503 q 243 477 243 487 q 235 458 243 467 q 217 450 228 450 l 217 450 m 304 450 q 286 458 294 450 q 277 477 277 467 q 285 494 277 486 q 304 503 293 503 q 320 495 312 503 q 330 477 330 487 q 321 458 330 467 q 304 450 315 450 l 304 450 m 391 450 q 373 458 381 450 q 363 477 363 467 q 372 494 363 486 q 391 503 380 503 q 407 495 399 503 q 416 477 416 487 q 408 458 416 467 q 391 450 401 450 l 391 450 m 477 450 q 460 458 468 450 q 450 477 450 467 q 458 494 450 486 q 477 503 467 503 q 494 495 486 503 q 503 477 503 487 q 495 458 503 467 q 477 450 488 450 l 477 450 m 564 450 q 547 458 555 450 q 537 477 537 467 q 545 494 537 486 q 564 503 553 503 q 581 495 572 503 q 590 477 590 487 q 582 458 590 467 q 564 450 575 450 l 564 450 m 651 450 q 633 458 642 450 q 624 477 624 467 q 632 494 624 486 q 651 503 640 503 q 667 495 659 503 q 677 477 677 487 q 669 458 677 467 q 651 450 662 450 l 651 450 m 738 450 q 720 458 728 450 q 711 477 711 467 q 719 494 711 486 q 738 503 727 503 q 754 495 746 503 q 764 477 764 487 q 755 458 764 467 q 738 450 749 450 l 738 450 m 825 450 q 807 458 815 450 q 798 477 798 467 q 806 494 798 486 q 825 503 814 503 q 841 495 833 503 q 850 477 850 487 q 842 458 850 467 q 825 450 836 450 l 825 450 m 911 450 q 894 458 902 450 q 884 477 884 467 q 892 494 884 486 q 911 503 901 503 q 928 495 920 503 q 937 477 937 487 q 929 458 937 467 q 911 450 922 450 l 911 450 m 998 450 q 981 458 989 450 q 971 477 971 467 q 979 494 971 486 q 998 503 987 503 q 1015 495 1006 503 q 1024 477 1024 487 q 1016 458 1024 467 q 998 450 1009 450 l 998 450 m 1085 450 q 1067 458 1076 450 q 1058 477 1058 467 q 1066 494 1058 486 q 1085 503 1074 503 q 1101 495 1093 503 q 1111 477 1111 487 q 1103 458 1111 467 q 1085 450 1096 450 l 1085 450 m 43 529 q 20 538 31 529 q 8 564 8 549 q 18 586 8 575 q 43 598 30 598 q 65 589 54 598 q 77 564 77 576 q 68 538 77 549 q 43 529 57 529 l 43 529 m 130 529 q 107 538 118 529 q 95 564 95 549 q 104 586 95 575 q 130 598 117 598 q 152 589 141 598 q 164 564 164 576 q 155 538 164 549 q 130 529 144 529 l 130 529 m 217 529 q 194 538 205 529 q 182 564 182 549 q 191 586 182 575 q 217 598 203 598 q 239 589 228 598 q 251 564 251 576 q 241 538 251 549 q 217 529 231 529 l 217 529 m 304 529 q 281 538 292 529 q 269 564 269 549 q 278 586 269 575 q 304 598 290 598 q 326 589 315 598 q 338 564 338 576 q 328 538 338 549 q 304 529 317 529 l 304 529 m 391 529 q 368 538 378 529 q 355 564 355 549 q 365 586 355 575 q 391 598 377 598 q 412 589 401 598 q 425 564 425 576 q 415 538 425 549 q 391 529 404 529 l 391 529 m 477 529 q 454 538 465 529 q 442 564 442 549 q 452 586 442 575 q 477 598 464 598 q 499 589 488 598 q 511 564 511 576 q 502 538 511 549 q 477 529 491 529 l 477 529 m 564 529 q 541 538 552 529 q 529 564 529 549 q 538 586 529 575 q 564 598 551 598 q 586 589 575 598 q 598 564 598 576 q 589 538 598 549 q 564 529 578 529 l 564 529 m 651 529 q 628 538 639 529 q 616 564 616 549 q 625 586 616 575 q 651 598 637 598 q 673 589 662 598 q 685 564 685 576 q 675 538 685 549 q 651 529 665 529 l 651 529 m 738 529 q 715 538 726 529 q 703 564 703 549 q 712 586 703 575 q 738 598 724 598 q 760 589 749 598 q 772 564 772 576 q 762 538 772 549 q 738 529 751 529 l 738 529 m 825 529 q 802 538 812 529 q 789 564 789 549 q 799 586 789 575 q 825 598 811 598 q 846 589 836 598 q 859 564 859 576 q 849 538 859 549 q 825 529 838 529 l 825 529 m 911 529 q 888 538 899 529 q 876 564 876 549 q 886 586 876 575 q 911 598 898 598 q 933 589 922 598 q 945 564 945 576 q 936 538 945 549 q 911 529 925 529 l 911 529 m 998 529 q 975 538 986 529 q 963 564 963 549 q 972 586 963 575 q 998 598 985 598 q 1020 589 1009 598 q 1032 564 1032 576 q 1023 538 1032 549 q 998 529 1012 529 l 998 529 m 1085 529 q 1062 538 1073 529 q 1050 564 1050 549 q 1059 586 1050 575 q 1085 598 1072 598 q 1107 589 1096 598 q 1119 564 1119 576 q 1109 538 1119 549 q 1085 529 1099 529 l 1085 529 m 43 616 q 20 625 31 616 q 8 651 8 636 q 18 673 8 662 q 43 685 30 685 q 65 675 54 685 q 77 651 77 663 q 68 625 77 636 q 43 616 57 616 l 43 616 m 130 616 q 107 625 118 616 q 95 651 95 636 q 104 673 95 662 q 130 685 117 685 q 152 675 141 685 q 164 651 164 663 q 155 625 164 636 q 130 616 144 616 l 130 616 m 217 616 q 194 625 205 616 q 182 651 182 636 q 191 673 182 662 q 217 685 203 685 q 239 675 228 685 q 251 651 251 663 q 241 625 251 636 q 217 616 231 616 l 217 616 m 304 616 q 281 625 292 616 q 269 651 269 636 q 278 673 269 662 q 304 685 290 685 q 326 675 315 685 q 338 651 338 663 q 328 625 338 636 q 304 616 317 616 l 304 616 m 391 616 q 368 625 378 616 q 355 651 355 636 q 365 673 355 662 q 391 685 377 685 q 412 675 401 685 q 425 651 425 663 q 415 625 425 636 q 391 616 404 616 l 391 616 m 477 616 q 454 625 465 616 q 442 651 442 636 q 452 673 442 662 q 477 685 464 685 q 499 675 488 685 q 511 651 511 663 q 502 625 511 636 q 477 616 491 616 l 477 616 m 564 616 q 541 625 552 616 q 529 651 529 636 q 538 673 529 662 q 564 685 551 685 q 586 675 575 685 q 598 651 598 663 q 589 625 598 636 q 564 616 578 616 l 564 616 m 651 616 q 628 625 639 616 q 616 651 616 636 q 625 673 616 662 q 651 685 637 685 q 673 675 662 685 q 685 651 685 663 q 675 625 685 636 q 651 616 665 616 l 651 616 m 738 616 q 715 625 726 616 q 703 651 703 636 q 712 673 703 662 q 738 685 724 685 q 760 675 749 685 q 772 651 772 663 q 762 625 772 636 q 738 616 751 616 l 738 616 m 825 616 q 802 625 812 616 q 789 651 789 636 q 799 673 789 662 q 825 685 811 685 q 846 675 836 685 q 859 651 859 663 q 849 625 859 636 q 825 616 838 616 l 825 616 m 911 616 q 888 625 899 616 q 876 651 876 636 q 886 673 876 662 q 911 685 898 685 q 933 675 922 685 q 945 651 945 663 q 936 625 945 636 q 911 616 925 616 l 911 616 m 998 616 q 975 625 986 616 q 963 651 963 636 q 972 673 963 662 q 998 685 985 685 q 1020 675 1009 685 q 1032 651 1032 663 q 1023 625 1032 636 q 998 616 1012 616 l 998 616 m 1085 616 q 1062 625 1073 616 q 1050 651 1050 636 q 1059 673 1050 662 q 1085 685 1072 685 q 1107 675 1096 685 q 1119 651 1119 663 q 1109 625 1119 636 q 1085 616 1099 616 l 1085 616 m 43 694 q 12 707 24 694 q 0 738 0 719 q 12 768 0 755 q 43 781 24 781 q 73 768 61 781 q 87 738 87 755 q 73 707 87 719 q 43 694 61 694 l 43 694 m 130 694 q 99 707 111 694 q 87 738 87 719 q 99 768 87 755 q 130 781 111 781 q 160 768 148 781 q 174 738 174 755 q 160 707 174 719 q 130 694 148 694 l 130 694 m 217 694 q 186 707 198 694 q 174 738 174 719 q 186 768 174 755 q 217 781 198 781 q 247 768 235 781 q 260 738 260 755 q 247 707 260 719 q 217 694 235 694 l 217 694 m 304 694 q 273 707 285 694 q 260 738 260 719 q 273 768 260 755 q 304 781 285 781 q 334 768 321 781 q 347 738 347 755 q 334 707 347 719 q 304 694 321 694 l 304 694 m 391 694 q 359 707 372 694 q 347 738 347 719 q 359 768 347 755 q 391 781 372 781 q 420 768 408 781 q 434 738 434 755 q 420 707 434 719 q 391 694 408 694 l 391 694 m 477 694 q 446 707 458 694 q 434 738 434 719 q 446 768 434 755 q 477 781 458 781 q 507 768 495 781 q 521 738 521 755 q 507 707 521 719 q 477 694 495 694 l 477 694 m 564 694 q 533 707 545 694 q 521 738 521 719 q 533 768 521 755 q 564 781 545 781 q 594 768 582 781 q 608 738 608 755 q 594 707 608 719 q 564 694 582 694 l 564 694 m 651 694 q 620 707 632 694 q 608 738 608 719 q 620 768 608 755 q 651 781 632 781 q 681 768 669 781 q 694 738 694 755 q 681 707 694 719 q 651 694 669 694 l 651 694 m 738 694 q 707 707 719 694 q 694 738 694 719 q 707 768 694 755 q 738 781 719 781 q 768 768 755 781 q 781 738 781 755 q 768 707 781 719 q 738 694 755 694 l 738 694 m 825 694 q 793 707 806 694 q 781 738 781 719 q 793 768 781 755 q 825 781 806 781 q 854 768 842 781 q 868 738 868 755 q 854 707 868 719 q 825 694 842 694 l 825 694 m 911 694 q 880 707 892 694 q 868 738 868 719 q 880 768 868 755 q 911 781 892 781 q 941 768 929 781 q 955 738 955 755 q 941 707 955 719 q 911 694 929 694 l 911 694 m 998 694 q 967 707 979 694 q 955 738 955 719 q 967 768 955 755 q 998 781 979 781 q 1028 768 1016 781 q 1042 738 1042 755 q 1028 707 1042 719 q 998 694 1016 694 l 998 694 m 1085 694 q 1054 707 1066 694 q 1042 738 1042 719 q 1054 768 1042 755 q 1085 781 1066 781 q 1115 768 1103 781 q 1128 738 1128 755 q 1115 707 1128 719 q 1085 694 1103 694 l 1085 694 m 43 781 q 12 793 24 781 q 0 825 0 806 q 12 854 0 842 q 43 868 24 868 q 73 854 61 868 q 87 825 87 842 q 73 793 87 806 q 43 781 61 781 l 43 781 m 130 781 q 99 793 111 781 q 87 825 87 806 q 99 854 87 842 q 130 868 111 868 q 160 854 148 868 q 174 825 174 842 q 160 793 174 806 q 130 781 148 781 l 130 781 m 217 781 q 186 793 198 781 q 174 825 174 806 q 186 854 174 842 q 217 868 198 868 q 247 854 235 868 q 260 825 260 842 q 247 793 260 806 q 217 781 235 781 l 217 781 m 304 781 q 273 793 285 781 q 260 825 260 806 q 273 854 260 842 q 304 868 285 868 q 334 854 321 868 q 347 825 347 842 q 334 793 347 806 q 304 781 321 781 l 304 781 m 391 781 q 359 793 372 781 q 347 825 347 806 q 359 854 347 842 q 391 868 372 868 q 420 854 408 868 q 434 825 434 842 q 420 793 434 806 q 391 781 408 781 l 391 781 m 477 781 q 446 793 458 781 q 434 825 434 806 q 446 854 434 842 q 477 868 458 868 q 507 854 495 868 q 521 825 521 842 q 507 793 521 806 q 477 781 495 781 l 477 781 m 564 781 q 533 793 545 781 q 521 825 521 806 q 533 854 521 842 q 564 868 545 868 q 594 854 582 868 q 608 825 608 842 q 594 793 608 806 q 564 781 582 781 l 564 781 m 651 781 q 620 793 632 781 q 608 825 608 806 q 620 854 608 842 q 651 868 632 868 q 681 854 669 868 q 694 825 694 842 q 681 793 694 806 q 651 781 669 781 l 651 781 m 738 781 q 707 793 719 781 q 694 825 694 806 q 707 854 694 842 q 738 868 719 868 q 768 854 755 868 q 781 825 781 842 q 768 793 781 806 q 738 781 755 781 l 738 781 m 825 781 q 793 793 806 781 q 781 825 781 806 q 793 854 781 842 q 825 868 806 868 q 854 854 842 868 q 868 825 868 842 q 854 793 868 806 q 825 781 842 781 l 825 781 m 911 781 q 880 793 892 781 q 868 825 868 806 q 880 854 868 842 q 911 868 892 868 q 941 854 929 868 q 955 825 955 842 q 941 793 955 806 q 911 781 929 781 l 911 781 m 998 781 q 967 793 979 781 q 955 825 955 806 q 967 854 955 842 q 998 868 979 868 q 1028 854 1016 868 q 1042 825 1042 842 q 1028 793 1042 806 q 998 781 1016 781 l 998 781 m 1085 781 q 1054 793 1066 781 q 1042 825 1042 806 q 1054 854 1042 842 q 1085 868 1066 868 q 1115 854 1103 868 q 1128 825 1128 842 q 1115 793 1128 806 q 1085 781 1103 781 l 1085 781 z "},"&":{"ha":1302,"x_min":8,"x_max":1119,"o":"m 217 0 q 186 12 198 0 q 174 43 174 24 q 186 73 174 61 q 217 87 198 87 q 247 73 235 87 q 260 43 260 61 q 247 12 260 24 q 217 0 235 0 l 217 0 m 304 0 q 273 12 285 0 q 260 43 260 24 q 273 73 260 61 q 304 87 285 87 q 334 73 321 87 q 347 43 347 61 q 334 12 347 24 q 304 0 321 0 l 304 0 m 391 0 q 359 12 372 0 q 347 43 347 24 q 359 73 347 61 q 391 87 372 87 q 420 73 408 87 q 434 43 434 61 q 420 12 434 24 q 391 0 408 0 l 391 0 m 477 0 q 446 12 458 0 q 434 43 434 24 q 446 73 434 61 q 477 87 458 87 q 507 73 495 87 q 521 43 521 61 q 507 12 521 24 q 477 0 495 0 l 477 0 m 564 0 q 533 12 545 0 q 521 43 521 24 q 533 73 521 61 q 564 87 545 87 q 594 73 582 87 q 608 43 608 61 q 594 12 608 24 q 564 0 582 0 l 564 0 m 651 0 q 620 12 632 0 q 608 43 608 24 q 620 73 608 61 q 651 87 632 87 q 681 73 669 87 q 694 43 694 61 q 681 12 694 24 q 651 0 669 0 l 651 0 m 738 0 q 707 12 719 0 q 694 43 694 24 q 707 73 694 61 q 738 87 719 87 q 768 73 755 87 q 781 43 781 61 q 768 12 781 24 q 738 0 755 0 l 738 0 m 825 0 q 793 12 806 0 q 781 43 781 24 q 793 73 781 61 q 825 87 806 87 q 854 73 842 87 q 868 43 868 61 q 854 12 868 24 q 825 0 842 0 l 825 0 m 911 0 q 880 12 892 0 q 868 43 868 24 q 880 73 868 61 q 911 87 892 87 q 941 73 929 87 q 955 43 955 61 q 941 12 955 24 q 911 0 929 0 l 911 0 m 130 87 q 99 99 111 87 q 87 130 87 111 q 99 160 87 148 q 130 174 111 174 q 160 160 148 174 q 174 130 174 148 q 160 99 174 111 q 130 87 148 87 l 130 87 m 217 87 q 186 99 198 87 q 174 130 174 111 q 186 160 174 148 q 217 174 198 174 q 247 160 235 174 q 260 130 260 148 q 247 99 260 111 q 217 87 235 87 l 217 87 m 304 87 q 273 99 285 87 q 260 130 260 111 q 273 160 260 148 q 304 174 285 174 q 334 160 321 174 q 347 130 347 148 q 334 99 347 111 q 304 87 321 87 l 304 87 m 391 87 q 359 99 372 87 q 347 130 347 111 q 359 160 347 148 q 391 174 372 174 q 420 160 408 174 q 434 130 434 148 q 420 99 434 111 q 391 87 408 87 l 391 87 m 477 87 q 446 99 458 87 q 434 130 434 111 q 446 160 434 148 q 477 174 458 174 q 507 160 495 174 q 521 130 521 148 q 507 99 521 111 q 477 87 495 87 l 477 87 m 564 87 q 533 99 545 87 q 521 130 521 111 q 533 160 521 148 q 564 174 545 174 q 594 160 582 174 q 608 130 608 148 q 594 99 608 111 q 564 87 582 87 l 564 87 m 651 87 q 620 99 632 87 q 608 130 608 111 q 620 160 608 148 q 651 174 632 174 q 681 160 669 174 q 694 130 694 148 q 681 99 694 111 q 651 87 669 87 l 651 87 m 738 87 q 707 99 719 87 q 694 130 694 111 q 707 160 694 148 q 738 174 719 174 q 768 160 755 174 q 781 130 781 148 q 768 99 781 111 q 738 87 755 87 l 738 87 m 825 87 q 793 99 806 87 q 781 130 781 111 q 793 160 781 148 q 825 174 806 174 q 854 160 842 174 q 868 130 868 148 q 854 99 868 111 q 825 87 842 87 l 825 87 m 911 87 q 880 99 892 87 q 868 130 868 111 q 880 160 868 148 q 911 174 892 174 q 941 160 929 174 q 955 130 955 148 q 941 99 955 111 q 911 87 929 87 l 911 87 m 998 87 q 967 99 979 87 q 955 130 955 111 q 967 160 955 148 q 998 174 979 174 q 1028 160 1016 174 q 1042 130 1042 148 q 1028 99 1042 111 q 998 87 1016 87 l 998 87 m 43 182 q 20 191 31 182 q 8 217 8 202 q 18 239 8 228 q 43 251 30 251 q 65 241 54 251 q 77 217 77 229 q 68 191 77 202 q 43 182 57 182 l 43 182 m 130 182 q 107 191 118 182 q 95 217 95 202 q 104 239 95 228 q 130 251 117 251 q 152 241 141 251 q 164 217 164 229 q 155 191 164 202 q 130 182 144 182 l 130 182 m 217 182 q 194 191 205 182 q 182 217 182 202 q 191 239 182 228 q 217 251 203 251 q 239 241 228 251 q 251 217 251 229 q 241 191 251 202 q 217 182 231 182 l 217 182 m 304 182 q 281 191 292 182 q 269 217 269 202 q 278 239 269 228 q 304 251 290 251 q 326 241 315 251 q 338 217 338 229 q 328 191 338 202 q 304 182 317 182 l 304 182 m 825 182 q 802 191 812 182 q 789 217 789 202 q 799 239 789 228 q 825 251 811 251 q 846 241 836 251 q 859 217 859 229 q 849 191 859 202 q 825 182 838 182 l 825 182 m 911 182 q 888 191 899 182 q 876 217 876 202 q 886 239 876 228 q 911 251 898 251 q 933 241 922 251 q 945 217 945 229 q 936 191 945 202 q 911 182 925 182 l 911 182 m 998 182 q 975 191 986 182 q 963 217 963 202 q 972 239 963 228 q 998 251 985 251 q 1020 241 1009 251 q 1032 217 1032 229 q 1023 191 1032 202 q 998 182 1012 182 l 998 182 m 1085 182 q 1062 191 1073 182 q 1050 217 1050 202 q 1059 239 1050 228 q 1085 251 1072 251 q 1107 241 1096 251 q 1119 217 1119 229 q 1109 191 1119 202 q 1085 182 1099 182 l 1085 182 m 43 269 q 20 278 31 269 q 8 304 8 289 q 18 326 8 315 q 43 338 30 338 q 65 328 54 338 q 77 304 77 316 q 68 278 77 289 q 43 269 57 269 l 43 269 m 130 269 q 107 278 118 269 q 95 304 95 289 q 104 326 95 315 q 130 338 117 338 q 152 328 141 338 q 164 304 164 316 q 155 278 164 289 q 130 269 144 269 l 130 269 m 217 269 q 194 278 205 269 q 182 304 182 289 q 191 326 182 315 q 217 338 203 338 q 239 328 228 338 q 251 304 251 316 q 241 278 251 289 q 217 269 231 269 l 217 269 m 911 269 q 888 278 899 269 q 876 304 876 289 q 886 326 876 315 q 911 338 898 338 q 933 328 922 338 q 945 304 945 316 q 936 278 945 289 q 911 269 925 269 l 911 269 m 998 269 q 975 278 986 269 q 963 304 963 289 q 972 326 963 315 q 998 338 985 338 q 1020 328 1009 338 q 1032 304 1032 316 q 1023 278 1032 289 q 998 269 1012 269 l 998 269 m 1085 269 q 1062 278 1073 269 q 1050 304 1050 289 q 1059 326 1050 315 q 1085 338 1072 338 q 1107 328 1096 338 q 1119 304 1119 316 q 1109 278 1119 289 q 1085 269 1099 269 l 1085 269 m 130 363 q 113 372 121 363 q 103 391 103 380 q 111 407 103 399 q 130 416 119 416 q 146 408 138 416 q 156 391 156 400 q 148 372 156 380 q 130 363 141 363 l 130 363 m 217 363 q 199 372 208 363 q 190 391 190 380 q 198 407 190 399 q 217 416 206 416 q 233 408 225 416 q 243 391 243 400 q 235 372 243 380 q 217 363 228 363 l 217 363 m 304 363 q 286 372 294 363 q 277 391 277 380 q 285 407 277 399 q 304 416 293 416 q 320 408 312 416 q 330 391 330 400 q 321 372 330 380 q 304 363 315 363 l 304 363 m 391 363 q 373 372 381 363 q 363 391 363 380 q 372 407 363 399 q 391 416 380 416 q 407 408 399 416 q 416 391 416 400 q 408 372 416 380 q 391 363 401 363 l 391 363 m 477 363 q 460 372 468 363 q 450 391 450 380 q 458 407 450 399 q 477 416 467 416 q 494 408 486 416 q 503 391 503 400 q 495 372 503 380 q 477 363 488 363 l 477 363 m 564 363 q 547 372 555 363 q 537 391 537 380 q 545 407 537 399 q 564 416 553 416 q 581 408 572 416 q 590 391 590 400 q 582 372 590 380 q 564 363 575 363 l 564 363 m 651 363 q 633 372 642 363 q 624 391 624 380 q 632 407 624 399 q 651 416 640 416 q 667 408 659 416 q 677 391 677 400 q 669 372 677 380 q 651 363 662 363 l 651 363 m 911 363 q 894 372 902 363 q 884 391 884 380 q 892 407 884 399 q 911 416 901 416 q 928 408 920 416 q 937 391 937 400 q 929 372 937 380 q 911 363 922 363 l 911 363 m 998 363 q 981 372 989 363 q 971 391 971 380 q 979 407 971 399 q 998 416 987 416 q 1015 408 1006 416 q 1024 391 1024 400 q 1016 372 1024 380 q 998 363 1009 363 l 998 363 m 1085 363 q 1067 372 1076 363 q 1058 391 1058 380 q 1066 407 1058 399 q 1085 416 1074 416 q 1101 408 1093 416 q 1111 391 1111 400 q 1103 372 1111 380 q 1085 363 1096 363 l 1085 363 m 130 450 q 113 458 121 450 q 103 477 103 467 q 111 494 103 486 q 130 503 119 503 q 146 495 138 503 q 156 477 156 487 q 148 458 156 467 q 130 450 141 450 l 130 450 m 217 450 q 199 458 208 450 q 190 477 190 467 q 198 494 190 486 q 217 503 206 503 q 233 495 225 503 q 243 477 243 487 q 235 458 243 467 q 217 450 228 450 l 217 450 m 304 450 q 286 458 294 450 q 277 477 277 467 q 285 494 277 486 q 304 503 293 503 q 320 495 312 503 q 330 477 330 487 q 321 458 330 467 q 304 450 315 450 l 304 450 m 391 450 q 373 458 381 450 q 363 477 363 467 q 372 494 363 486 q 391 503 380 503 q 407 495 399 503 q 416 477 416 487 q 408 458 416 467 q 391 450 401 450 l 391 450 m 477 450 q 460 458 468 450 q 450 477 450 467 q 458 494 450 486 q 477 503 467 503 q 494 495 486 503 q 503 477 503 487 q 495 458 503 467 q 477 450 488 450 l 477 450 m 564 450 q 547 458 555 450 q 537 477 537 467 q 545 494 537 486 q 564 503 553 503 q 581 495 572 503 q 590 477 590 487 q 582 458 590 467 q 564 450 575 450 l 564 450 m 651 450 q 633 458 642 450 q 624 477 624 467 q 632 494 624 486 q 651 503 640 503 q 667 495 659 503 q 677 477 677 487 q 669 458 677 467 q 651 450 662 450 l 651 450 m 911 450 q 894 458 902 450 q 884 477 884 467 q 892 494 884 486 q 911 503 901 503 q 928 495 920 503 q 937 477 937 487 q 929 458 937 467 q 911 450 922 450 l 911 450 m 998 450 q 981 458 989 450 q 971 477 971 467 q 979 494 971 486 q 998 503 987 503 q 1015 495 1006 503 q 1024 477 1024 487 q 1016 458 1024 467 q 998 450 1009 450 l 998 450 m 1085 450 q 1067 458 1076 450 q 1058 477 1058 467 q 1066 494 1058 486 q 1085 503 1074 503 q 1101 495 1093 503 q 1111 477 1111 487 q 1103 458 1111 467 q 1085 450 1096 450 l 1085 450 m 43 529 q 20 538 31 529 q 8 564 8 549 q 18 586 8 575 q 43 598 30 598 q 65 589 54 598 q 77 564 77 576 q 68 538 77 549 q 43 529 57 529 l 43 529 m 130 529 q 107 538 118 529 q 95 564 95 549 q 104 586 95 575 q 130 598 117 598 q 152 589 141 598 q 164 564 164 576 q 155 538 164 549 q 130 529 144 529 l 130 529 m 217 529 q 194 538 205 529 q 182 564 182 549 q 191 586 182 575 q 217 598 203 598 q 239 589 228 598 q 251 564 251 576 q 241 538 251 549 q 217 529 231 529 l 217 529 m 43 616 q 20 625 31 616 q 8 651 8 636 q 18 673 8 662 q 43 685 30 685 q 65 675 54 685 q 77 651 77 663 q 68 625 77 636 q 43 616 57 616 l 43 616 m 130 616 q 107 625 118 616 q 95 651 95 636 q 104 673 95 662 q 130 685 117 685 q 152 675 141 685 q 164 651 164 663 q 155 625 164 636 q 130 616 144 616 l 130 616 m 217 616 q 194 625 205 616 q 182 651 182 636 q 191 673 182 662 q 217 685 203 685 q 239 675 228 685 q 251 651 251 663 q 241 625 251 636 q 217 616 231 616 l 217 616 m 304 616 q 281 625 292 616 q 269 651 269 636 q 278 673 269 662 q 304 685 290 685 q 326 675 315 685 q 338 651 338 663 q 328 625 338 636 q 304 616 317 616 l 304 616 m 130 694 q 99 707 111 694 q 87 738 87 719 q 99 768 87 755 q 130 781 111 781 q 160 768 148 781 q 174 738 174 755 q 160 707 174 719 q 130 694 148 694 l 130 694 m 217 694 q 186 707 198 694 q 174 738 174 719 q 186 768 174 755 q 217 781 198 781 q 247 768 235 781 q 260 738 260 755 q 247 707 260 719 q 217 694 235 694 l 217 694 m 304 694 q 273 707 285 694 q 260 738 260 719 q 273 768 260 755 q 304 781 285 781 q 334 768 321 781 q 347 738 347 755 q 334 707 347 719 q 304 694 321 694 l 304 694 m 391 694 q 359 707 372 694 q 347 738 347 719 q 359 768 347 755 q 391 781 372 781 q 420 768 408 781 q 434 738 434 755 q 420 707 434 719 q 391 694 408 694 l 391 694 m 477 694 q 446 707 458 694 q 434 738 434 719 q 446 768 434 755 q 477 781 458 781 q 507 768 495 781 q 521 738 521 755 q 507 707 521 719 q 477 694 495 694 l 477 694 m 564 694 q 533 707 545 694 q 521 738 521 719 q 533 768 521 755 q 564 781 545 781 q 594 768 582 781 q 608 738 608 755 q 594 707 608 719 q 564 694 582 694 l 564 694 m 651 694 q 620 707 632 694 q 608 738 608 719 q 620 768 608 755 q 651 781 632 781 q 681 768 669 781 q 694 738 694 755 q 681 707 694 719 q 651 694 669 694 l 651 694 m 738 694 q 707 707 719 694 q 694 738 694 719 q 707 768 694 755 q 738 781 719 781 q 768 768 755 781 q 781 738 781 755 q 768 707 781 719 q 738 694 755 694 l 738 694 m 825 694 q 793 707 806 694 q 781 738 781 719 q 793 768 781 755 q 825 781 806 781 q 854 768 842 781 q 868 738 868 755 q 854 707 868 719 q 825 694 842 694 l 825 694 m 911 694 q 880 707 892 694 q 868 738 868 719 q 880 768 868 755 q 911 781 892 781 q 941 768 929 781 q 955 738 955 755 q 941 707 955 719 q 911 694 929 694 l 911 694 m 998 694 q 967 707 979 694 q 955 738 955 719 q 967 768 955 755 q 998 781 979 781 q 1028 768 1016 781 q 1042 738 1042 755 q 1028 707 1042 719 q 998 694 1016 694 l 998 694 m 217 781 q 186 793 198 781 q 174 825 174 806 q 186 854 174 842 q 217 868 198 868 q 247 854 235 868 q 260 825 260 842 q 247 793 260 806 q 217 781 235 781 l 217 781 m 304 781 q 273 793 285 781 q 260 825 260 806 q 273 854 260 842 q 304 868 285 868 q 334 854 321 868 q 347 825 347 842 q 334 793 347 806 q 304 781 321 781 l 304 781 m 391 781 q 359 793 372 781 q 347 825 347 806 q 359 854 347 842 q 391 868 372 868 q 420 854 408 868 q 434 825 434 842 q 420 793 434 806 q 391 781 408 781 l 391 781 m 477 781 q 446 793 458 781 q 434 825 434 806 q 446 854 434 842 q 477 868 458 868 q 507 854 495 868 q 521 825 521 842 q 507 793 521 806 q 477 781 495 781 l 477 781 m 564 781 q 533 793 545 781 q 521 825 521 806 q 533 854 521 842 q 564 868 545 868 q 594 854 582 868 q 608 825 608 842 q 594 793 608 806 q 564 781 582 781 l 564 781 m 651 781 q 620 793 632 781 q 608 825 608 806 q 620 854 608 842 q 651 868 632 868 q 681 854 669 868 q 694 825 694 842 q 681 793 694 806 q 651 781 669 781 l 651 781 m 738 781 q 707 793 719 781 q 694 825 694 806 q 707 854 694 842 q 738 868 719 868 q 768 854 755 868 q 781 825 781 842 q 768 793 781 806 q 738 781 755 781 l 738 781 m 825 781 q 793 793 806 781 q 781 825 781 806 q 793 854 781 842 q 825 868 806 868 q 854 854 842 868 q 868 825 868 842 q 854 793 868 806 q 825 781 842 781 l 825 781 m 911 781 q 880 793 892 781 q 868 825 868 806 q 880 854 868 842 q 911 868 892 868 q 941 854 929 868 q 955 825 955 842 q 941 793 955 806 q 911 781 929 781 l 911 781 z "},"'":{"ha":434,"x_min":0,"x_max":260,"o":"m 43 616 q 20 625 31 616 q 8 651 8 636 q 18 673 8 662 q 43 685 30 685 q 65 675 54 685 q 77 651 77 663 q 68 625 77 636 q 43 616 57 616 l 43 616 m 130 616 q 107 625 118 616 q 95 651 95 636 q 104 673 95 662 q 130 685 117 685 q 152 675 141 685 q 164 651 164 663 q 155 625 164 636 q 130 616 144 616 l 130 616 m 43 694 q 12 707 24 694 q 0 738 0 719 q 12 768 0 755 q 43 781 24 781 q 73 768 61 781 q 87 738 87 755 q 73 707 87 719 q 43 694 61 694 l 43 694 m 130 694 q 99 707 111 694 q 87 738 87 719 q 99 768 87 755 q 130 781 111 781 q 160 768 148 781 q 174 738 174 755 q 160 707 174 719 q 130 694 148 694 l 130 694 m 217 694 q 186 707 198 694 q 174 738 174 719 q 186 768 174 755 q 217 781 198 781 q 247 768 235 781 q 260 738 260 755 q 247 707 260 719 q 217 694 235 694 l 217 694 m 43 781 q 12 793 24 781 q 0 825 0 806 q 12 854 0 842 q 43 868 24 868 q 73 854 61 868 q 87 825 87 842 q 73 793 87 806 q 43 781 61 781 l 43 781 m 130 781 q 99 793 111 781 q 87 825 87 806 q 99 854 87 842 q 130 868 111 868 q 160 854 148 868 q 174 825 174 842 q 160 793 174 806 q 130 781 148 781 l 130 781 m 217 781 q 186 793 198 781 q 174 825 174 806 q 186 854 174 842 q 217 868 198 868 q 247 854 235 868 q 260 825 260 842 q 247 793 260 806 q 217 781 235 781 l 217 781 z "},",":{"ha":434,"x_min":0,"x_max":260,"o":"m 43 -87 q 12 -73 24 -87 q 0 -43 0 -61 q 12 -12 0 -24 q 43 0 24 0 q 73 -12 61 0 q 87 -43 87 -24 q 73 -73 87 -61 q 43 -87 61 -87 l 43 -87 m 130 -87 q 99 -73 111 -87 q 87 -43 87 -61 q 99 -12 87 -24 q 130 0 111 0 q 160 -12 148 0 q 174 -43 174 -24 q 160 -73 174 -61 q 130 -87 148 -87 l 130 -87 m 43 0 q 12 12 24 0 q 0 43 0 24 q 12 73 0 61 q 43 87 24 87 q 73 73 61 87 q 87 43 87 61 q 73 12 87 24 q 43 0 61 0 l 43 0 m 130 0 q 99 12 111 0 q 87 43 87 24 q 99 73 87 61 q 130 87 111 87 q 160 73 148 87 q 174 43 174 61 q 160 12 174 24 q 130 0 148 0 l 130 0 m 217 0 q 186 12 198 0 q 174 43 174 24 q 186 73 174 61 q 217 87 198 87 q 247 73 235 87 q 260 43 260 61 q 247 12 260 24 q 217 0 235 0 l 217 0 m 43 87 q 12 99 24 87 q 0 130 0 111 q 12 160 0 148 q 43 174 24 174 q 73 160 61 174 q 87 130 87 148 q 73 99 87 111 q 43 87 61 87 l 43 87 m 130 87 q 99 99 111 87 q 87 130 87 111 q 99 160 87 148 q 130 174 111 174 q 160 160 148 174 q 174 130 174 148 q 160 99 174 111 q 130 87 148 87 l 130 87 m 217 87 q 186 99 198 87 q 174 130 174 111 q 186 160 174 148 q 217 174 198 174 q 247 160 235 174 q 260 130 260 148 q 247 99 260 111 q 217 87 235 87 l 217 87 z "},".":{"ha":434,"x_min":0,"x_max":260,"o":"m 43 0 q 12 12 24 0 q 0 43 0 24 q 12 73 0 61 q 43 87 24 87 q 73 73 61 87 q 87 43 87 61 q 73 12 87 24 q 43 0 61 0 l 43 0 m 130 0 q 99 12 111 0 q 87 43 87 24 q 99 73 87 61 q 130 87 111 87 q 160 73 148 87 q 174 43 174 61 q 160 12 174 24 q 130 0 148 0 l 130 0 m 217 0 q 186 12 198 0 q 174 43 174 24 q 186 73 174 61 q 217 87 198 87 q 247 73 235 87 q 260 43 260 61 q 247 12 260 24 q 217 0 235 0 l 217 0 m 43 87 q 12 99 24 87 q 0 130 0 111 q 12 160 0 148 q 43 174 24 174 q 73 160 61 174 q 87 130 87 148 q 73 99 87 111 q 43 87 61 87 l 43 87 m 130 87 q 99 99 111 87 q 87 130 87 111 q 99 160 87 148 q 130 174 111 174 q 160 160 148 174 q 174 130 174 148 q 160 99 174 111 q 130 87 148 87 l 130 87 m 217 87 q 186 99 198 87 q 174 130 174 111 q 186 160 174 148 q 217 174 198 174 q 247 160 235 174 q 260 130 260 148 q 247 99 260 111 q 217 87 235 87 l 217 87 z "},":":{"ha":433,"x_min":8,"x_max":251,"o":"m 43 182 q 20 191 31 182 q 8 217 8 202 q 18 239 8 228 q 43 251 30 251 q 65 241 54 251 q 77 217 77 229 q 68 191 77 202 q 43 182 57 182 l 43 182 m 130 182 q 107 191 118 182 q 95 217 95 202 q 104 239 95 228 q 130 251 117 251 q 152 241 141 251 q 164 217 164 229 q 155 191 164 202 q 130 182 144 182 l 130 182 m 217 182 q 194 191 205 182 q 182 217 182 202 q 191 239 182 228 q 217 251 203 251 q 239 241 228 251 q 251 217 251 229 q 241 191 251 202 q 217 182 231 182 l 217 182 m 43 269 q 20 278 31 269 q 8 304 8 289 q 18 326 8 315 q 43 338 30 338 q 65 328 54 338 q 77 304 77 316 q 68 278 77 289 q 43 269 57 269 l 43 269 m 130 269 q 107 278 118 269 q 95 304 95 289 q 104 326 95 315 q 130 338 117 338 q 152 328 141 338 q 164 304 164 316 q 155 278 164 289 q 130 269 144 269 l 130 269 m 217 269 q 194 278 205 269 q 182 304 182 289 q 191 326 182 315 q 217 338 203 338 q 239 328 228 338 q 251 304 251 316 q 241 278 251 289 q 217 269 231 269 l 217 269 m 43 529 q 20 538 31 529 q 8 564 8 549 q 18 586 8 575 q 43 598 30 598 q 65 589 54 598 q 77 564 77 576 q 68 538 77 549 q 43 529 57 529 l 43 529 m 130 529 q 107 538 118 529 q 95 564 95 549 q 104 586 95 575 q 130 598 117 598 q 152 589 141 598 q 164 564 164 576 q 155 538 164 549 q 130 529 144 529 l 130 529 m 217 529 q 194 538 205 529 q 182 564 182 549 q 191 586 182 575 q 217 598 203 598 q 239 589 228 598 q 251 564 251 576 q 241 538 251 549 q 217 529 231 529 l 217 529 m 43 616 q 20 625 31 616 q 8 651 8 636 q 18 673 8 662 q 43 685 30 685 q 65 675 54 685 q 77 651 77 663 q 68 625 77 636 q 43 616 57 616 l 43 616 m 130 616 q 107 625 118 616 q 95 651 95 636 q 104 673 95 662 q 130 685 117 685 q 152 675 141 685 q 164 651 164 663 q 155 625 164 636 q 130 616 144 616 l 130 616 m 217 616 q 194 625 205 616 q 182 651 182 636 q 191 673 182 662 q 217 685 203 685 q 239 675 228 685 q 251 651 251 663 q 241 625 251 636 q 217 616 231 616 l 217 616 z "},";":{"ha":433,"x_min":0,"x_max":251,"o":"m 43 87 q 12 99 24 87 q 0 130 0 111 q 12 160 0 148 q 43 174 24 174 q 73 160 61 174 q 87 130 87 148 q 73 99 87 111 q 43 87 61 87 l 43 87 m 130 87 q 99 99 111 87 q 87 130 87 111 q 99 160 87 148 q 130 174 111 174 q 160 160 148 174 q 174 130 174 148 q 160 99 174 111 q 130 87 148 87 l 130 87 m 43 182 q 20 191 31 182 q 8 217 8 202 q 18 239 8 228 q 43 251 30 251 q 65 241 54 251 q 77 217 77 229 q 68 191 77 202 q 43 182 57 182 l 43 182 m 130 182 q 107 191 118 182 q 95 217 95 202 q 104 239 95 228 q 130 251 117 251 q 152 241 141 251 q 164 217 164 229 q 155 191 164 202 q 130 182 144 182 l 130 182 m 217 182 q 194 191 205 182 q 182 217 182 202 q 191 239 182 228 q 217 251 203 251 q 239 241 228 251 q 251 217 251 229 q 241 191 251 202 q 217 182 231 182 l 217 182 m 43 269 q 20 278 31 269 q 8 304 8 289 q 18 326 8 315 q 43 338 30 338 q 65 328 54 338 q 77 304 77 316 q 68 278 77 289 q 43 269 57 269 l 43 269 m 130 269 q 107 278 118 269 q 95 304 95 289 q 104 326 95 315 q 130 338 117 338 q 152 328 141 338 q 164 304 164 316 q 155 278 164 289 q 130 269 144 269 l 130 269 m 217 269 q 194 278 205 269 q 182 304 182 289 q 191 326 182 315 q 217 338 203 338 q 239 328 228 338 q 251 304 251 316 q 241 278 251 289 q 217 269 231 269 l 217 269 m 43 529 q 20 538 31 529 q 8 564 8 549 q 18 586 8 575 q 43 598 30 598 q 65 589 54 598 q 77 564 77 576 q 68 538 77 549 q 43 529 57 529 l 43 529 m 130 529 q 107 538 118 529 q 95 564 95 549 q 104 586 95 575 q 130 598 117 598 q 152 589 141 598 q 164 564 164 576 q 155 538 164 549 q 130 529 144 529 l 130 529 m 217 529 q 194 538 205 529 q 182 564 182 549 q 191 586 182 575 q 217 598 203 598 q 239 589 228 598 q 251 564 251 576 q 241 538 251 549 q 217 529 231 529 l 217 529 m 43 616 q 20 625 31 616 q 8 651 8 636 q 18 673 8 662 q 43 685 30 685 q 65 675 54 685 q 77 651 77 663 q 68 625 77 636 q 43 616 57 616 l 43 616 m 130 616 q 107 625 118 616 q 95 651 95 636 q 104 673 95 662 q 130 685 117 685 q 152 675 141 685 q 164 651 164 663 q 155 625 164 636 q 130 616 144 616 l 130 616 m 217 616 q 194 625 205 616 q 182 651 182 636 q 191 673 182 662 q 217 685 203 685 q 239 675 228 685 q 251 651 251 663 q 241 625 251 636 q 217 616 231 616 l 217 616 z "},"?":{"ha":1215,"x_min":0,"x_max":1119,"o":"m 391 0 q 359 12 372 0 q 347 43 347 24 q 359 73 347 61 q 391 87 372 87 q 420 73 408 87 q 434 43 434 61 q 420 12 434 24 q 391 0 408 0 l 391 0 m 477 0 q 446 12 458 0 q 434 43 434 24 q 446 73 434 61 q 477 87 458 87 q 507 73 495 87 q 521 43 521 61 q 507 12 521 24 q 477 0 495 0 l 477 0 m 564 0 q 533 12 545 0 q 521 43 521 24 q 533 73 521 61 q 564 87 545 87 q 594 73 582 87 q 608 43 608 61 q 594 12 608 24 q 564 0 582 0 l 564 0 m 391 87 q 359 99 372 87 q 347 130 347 111 q 359 160 347 148 q 391 174 372 174 q 420 160 408 174 q 434 130 434 148 q 420 99 434 111 q 391 87 408 87 l 391 87 m 477 87 q 446 99 458 87 q 434 130 434 111 q 446 160 434 148 q 477 174 458 174 q 507 160 495 174 q 521 130 521 148 q 507 99 521 111 q 477 87 495 87 l 477 87 m 564 87 q 533 99 545 87 q 521 130 521 111 q 533 160 521 148 q 564 174 545 174 q 594 160 582 174 q 608 130 608 148 q 594 99 608 111 q 564 87 582 87 l 564 87 m 391 269 q 368 278 378 269 q 355 304 355 289 q 365 326 355 315 q 391 338 377 338 q 412 328 401 338 q 425 304 425 316 q 415 278 425 289 q 391 269 404 269 l 391 269 m 477 269 q 454 278 465 269 q 442 304 442 289 q 452 326 442 315 q 477 338 464 338 q 499 328 488 338 q 511 304 511 316 q 502 278 511 289 q 477 269 491 269 l 477 269 m 564 269 q 541 278 552 269 q 529 304 529 289 q 538 326 529 315 q 564 338 551 338 q 586 328 575 338 q 598 304 598 316 q 589 278 598 289 q 564 269 578 269 l 564 269 m 391 363 q 373 372 381 363 q 363 391 363 380 q 372 407 363 399 q 391 416 380 416 q 407 408 399 416 q 416 391 416 400 q 408 372 416 380 q 391 363 401 363 l 391 363 m 477 363 q 460 372 468 363 q 450 391 450 380 q 458 407 450 399 q 477 416 467 416 q 494 408 486 416 q 503 391 503 400 q 495 372 503 380 q 477 363 488 363 l 477 363 m 564 363 q 547 372 555 363 q 537 391 537 380 q 545 407 537 399 q 564 416 553 416 q 581 408 572 416 q 590 391 590 400 q 582 372 590 380 q 564 363 575 363 l 564 363 m 651 363 q 633 372 642 363 q 624 391 624 380 q 632 407 624 399 q 651 416 640 416 q 667 408 659 416 q 677 391 677 400 q 669 372 677 380 q 651 363 662 363 l 651 363 m 738 363 q 720 372 728 363 q 711 391 711 380 q 719 407 711 399 q 738 416 727 416 q 754 408 746 416 q 764 391 764 400 q 755 372 764 380 q 738 363 749 363 l 738 363 m 825 363 q 807 372 815 363 q 798 391 798 380 q 806 407 798 399 q 825 416 814 416 q 841 408 833 416 q 850 391 850 400 q 842 372 850 380 q 825 363 836 363 l 825 363 m 911 363 q 894 372 902 363 q 884 391 884 380 q 892 407 884 399 q 911 416 901 416 q 928 408 920 416 q 937 391 937 400 q 929 372 937 380 q 911 363 922 363 l 911 363 m 477 450 q 460 458 468 450 q 450 477 450 467 q 458 494 450 486 q 477 503 467 503 q 494 495 486 503 q 503 477 503 487 q 495 458 503 467 q 477 450 488 450 l 477 450 m 564 450 q 547 458 555 450 q 537 477 537 467 q 545 494 537 486 q 564 503 553 503 q 581 495 572 503 q 590 477 590 487 q 582 458 590 467 q 564 450 575 450 l 564 450 m 651 450 q 633 458 642 450 q 624 477 624 467 q 632 494 624 486 q 651 503 640 503 q 667 495 659 503 q 677 477 677 487 q 669 458 677 467 q 651 450 662 450 l 651 450 m 738 450 q 720 458 728 450 q 711 477 711 467 q 719 494 711 486 q 738 503 727 503 q 754 495 746 503 q 764 477 764 487 q 755 458 764 467 q 738 450 749 450 l 738 450 m 825 450 q 807 458 815 450 q 798 477 798 467 q 806 494 798 486 q 825 503 814 503 q 841 495 833 503 q 850 477 850 487 q 842 458 850 467 q 825 450 836 450 l 825 450 m 911 450 q 894 458 902 450 q 884 477 884 467 q 892 494 884 486 q 911 503 901 503 q 928 495 920 503 q 937 477 937 487 q 929 458 937 467 q 911 450 922 450 l 911 450 m 998 450 q 981 458 989 450 q 971 477 971 467 q 979 494 971 486 q 998 503 987 503 q 1015 495 1006 503 q 1024 477 1024 487 q 1016 458 1024 467 q 998 450 1009 450 l 998 450 m 911 529 q 888 538 899 529 q 876 564 876 549 q 886 586 876 575 q 911 598 898 598 q 933 589 922 598 q 945 564 945 576 q 936 538 945 549 q 911 529 925 529 l 911 529 m 998 529 q 975 538 986 529 q 963 564 963 549 q 972 586 963 575 q 998 598 985 598 q 1020 589 1009 598 q 1032 564 1032 576 q 1023 538 1032 549 q 998 529 1012 529 l 998 529 m 1085 529 q 1062 538 1073 529 q 1050 564 1050 549 q 1059 586 1050 575 q 1085 598 1072 598 q 1107 589 1096 598 q 1119 564 1119 576 q 1109 538 1119 549 q 1085 529 1099 529 l 1085 529 m 825 616 q 802 625 812 616 q 789 651 789 636 q 799 673 789 662 q 825 685 811 685 q 846 675 836 685 q 859 651 859 663 q 849 625 859 636 q 825 616 838 616 l 825 616 m 911 616 q 888 625 899 616 q 876 651 876 636 q 886 673 876 662 q 911 685 898 685 q 933 675 922 685 q 945 651 945 663 q 936 625 945 636 q 911 616 925 616 l 911 616 m 998 616 q 975 625 986 616 q 963 651 963 636 q 972 673 963 662 q 998 685 985 685 q 1020 675 1009 685 q 1032 651 1032 663 q 1023 625 1032 636 q 998 616 1012 616 l 998 616 m 1085 616 q 1062 625 1073 616 q 1050 651 1050 636 q 1059 673 1050 662 q 1085 685 1072 685 q 1107 675 1096 685 q 1119 651 1119 663 q 1109 625 1119 636 q 1085 616 1099 616 l 1085 616 m 43 694 q 12 707 24 694 q 0 738 0 719 q 12 768 0 755 q 43 781 24 781 q 73 768 61 781 q 87 738 87 755 q 73 707 87 719 q 43 694 61 694 l 43 694 m 130 694 q 99 707 111 694 q 87 738 87 719 q 99 768 87 755 q 130 781 111 781 q 160 768 148 781 q 174 738 174 755 q 160 707 174 719 q 130 694 148 694 l 130 694 m 217 694 q 186 707 198 694 q 174 738 174 719 q 186 768 174 755 q 217 781 198 781 q 247 768 235 781 q 260 738 260 755 q 247 707 260 719 q 217 694 235 694 l 217 694 m 304 694 q 273 707 285 694 q 260 738 260 719 q 273 768 260 755 q 304 781 285 781 q 334 768 321 781 q 347 738 347 755 q 334 707 347 719 q 304 694 321 694 l 304 694 m 391 694 q 359 707 372 694 q 347 738 347 719 q 359 768 347 755 q 391 781 372 781 q 420 768 408 781 q 434 738 434 755 q 420 707 434 719 q 391 694 408 694 l 391 694 m 477 694 q 446 707 458 694 q 434 738 434 719 q 446 768 434 755 q 477 781 458 781 q 507 768 495 781 q 521 738 521 755 q 507 707 521 719 q 477 694 495 694 l 477 694 m 564 694 q 533 707 545 694 q 521 738 521 719 q 533 768 521 755 q 564 781 545 781 q 594 768 582 781 q 608 738 608 755 q 594 707 608 719 q 564 694 582 694 l 564 694 m 651 694 q 620 707 632 694 q 608 738 608 719 q 620 768 608 755 q 651 781 632 781 q 681 768 669 781 q 694 738 694 755 q 681 707 694 719 q 651 694 669 694 l 651 694 m 738 694 q 707 707 719 694 q 694 738 694 719 q 707 768 694 755 q 738 781 719 781 q 768 768 755 781 q 781 738 781 755 q 768 707 781 719 q 738 694 755 694 l 738 694 m 825 694 q 793 707 806 694 q 781 738 781 719 q 793 768 781 755 q 825 781 806 781 q 854 768 842 781 q 868 738 868 755 q 854 707 868 719 q 825 694 842 694 l 825 694 m 911 694 q 880 707 892 694 q 868 738 868 719 q 880 768 868 755 q 911 781 892 781 q 941 768 929 781 q 955 738 955 755 q 941 707 955 719 q 911 694 929 694 l 911 694 m 998 694 q 967 707 979 694 q 955 738 955 719 q 967 768 955 755 q 998 781 979 781 q 1028 768 1016 781 q 1042 738 1042 755 q 1028 707 1042 719 q 998 694 1016 694 l 998 694 m 43 781 q 12 793 24 781 q 0 825 0 806 q 12 854 0 842 q 43 868 24 868 q 73 854 61 868 q 87 825 87 842 q 73 793 87 806 q 43 781 61 781 l 43 781 m 130 781 q 99 793 111 781 q 87 825 87 806 q 99 854 87 842 q 130 868 111 868 q 160 854 148 868 q 174 825 174 842 q 160 793 174 806 q 130 781 148 781 l 130 781 m 217 781 q 186 793 198 781 q 174 825 174 806 q 186 854 174 842 q 217 868 198 868 q 247 854 235 868 q 260 825 260 842 q 247 793 260 806 q 217 781 235 781 l 217 781 m 304 781 q 273 793 285 781 q 260 825 260 806 q 273 854 260 842 q 304 868 285 868 q 334 854 321 868 q 347 825 347 842 q 334 793 347 806 q 304 781 321 781 l 304 781 m 391 781 q 359 793 372 781 q 347 825 347 806 q 359 854 347 842 q 391 868 372 868 q 420 854 408 868 q 434 825 434 842 q 420 793 434 806 q 391 781 408 781 l 391 781 m 477 781 q 446 793 458 781 q 434 825 434 806 q 446 854 434 842 q 477 868 458 868 q 507 854 495 868 q 521 825 521 842 q 507 793 521 806 q 477 781 495 781 l 477 781 m 564 781 q 533 793 545 781 q 521 825 521 806 q 533 854 521 842 q 564 868 545 868 q 594 854 582 868 q 608 825 608 842 q 594 793 608 806 q 564 781 582 781 l 564 781 m 651 781 q 620 793 632 781 q 608 825 608 806 q 620 854 608 842 q 651 868 632 868 q 681 854 669 868 q 694 825 694 842 q 681 793 694 806 q 651 781 669 781 l 651 781 m 738 781 q 707 793 719 781 q 694 825 694 806 q 707 854 694 842 q 738 868 719 868 q 768 854 755 868 q 781 825 781 842 q 768 793 781 806 q 738 781 755 781 l 738 781 m 825 781 q 793 793 806 781 q 781 825 781 806 q 793 854 781 842 q 825 868 806 868 q 854 854 842 868 q 868 825 868 842 q 854 793 868 806 q 825 781 842 781 l 825 781 m 911 781 q 880 793 892 781 q 868 825 868 806 q 880 854 868 842 q 911 868 892 868 q 941 854 929 868 q 955 825 955 842 q 941 793 955 806 q 911 781 929 781 l 911 781 z "}}}
